<mxfile host="app.diagrams.net" agent="Mozilla/5.0 (Windows NT 10.0; Win64; x64) AppleWebKit/537.36 (KHTML, like Gecko) Chrome/135.0.0.0 Safari/537.36" version="26.2.14" pages="7">
  <diagram id="R24UAvFD40VSu86AnBfp" name="Person">
    <mxGraphModel dx="1171" dy="1020" grid="0" gridSize="10" guides="1" tooltips="1" connect="1" arrows="1" fold="1" page="0" pageScale="1" pageWidth="827" pageHeight="1169" math="0" shadow="0">
      <root>
        <mxCell id="0" />
        <mxCell id="1" parent="0" />
        <mxCell id="SQYsEwDWb2ATAcnmcTGE-9" value="" style="group" vertex="1" connectable="0" parent="1">
          <mxGeometry x="-275" y="-201" width="80" height="146" as="geometry" />
        </mxCell>
        <mxCell id="Nwo_d49Ja96LuP_Ybd1G-1" value="&lt;div&gt;&lt;span style=&quot;text-align: left; text-wrap-mode: wrap;&quot;&gt;&lt;b&gt;Алексей&lt;/b&gt;&lt;/span&gt;&lt;/div&gt;" style="shape=umlActor;verticalLabelPosition=bottom;verticalAlign=top;html=1;fontSize=15;" parent="SQYsEwDWb2ATAcnmcTGE-9" vertex="1">
          <mxGeometry width="80" height="146" as="geometry" />
        </mxCell>
        <mxCell id="SQYsEwDWb2ATAcnmcTGE-4" value="1" style="text;html=1;align=center;verticalAlign=middle;whiteSpace=wrap;rounded=0;" vertex="1" parent="SQYsEwDWb2ATAcnmcTGE-9">
          <mxGeometry x="10" y="4" width="60" height="30" as="geometry" />
        </mxCell>
        <mxCell id="SQYsEwDWb2ATAcnmcTGE-10" value="" style="group" vertex="1" connectable="0" parent="1">
          <mxGeometry x="-174" y="-201" width="80" height="146" as="geometry" />
        </mxCell>
        <mxCell id="Nwo_d49Ja96LuP_Ybd1G-8" value="&lt;p style=&quot;white-space: pre-wrap;&quot; dir=&quot;auto&quot;&gt;&lt;b&gt;Мария&lt;/b&gt;&lt;/p&gt;" style="shape=umlActor;verticalLabelPosition=bottom;verticalAlign=top;html=1;fontSize=15;" parent="SQYsEwDWb2ATAcnmcTGE-10" vertex="1">
          <mxGeometry width="80" height="146" as="geometry" />
        </mxCell>
        <mxCell id="SQYsEwDWb2ATAcnmcTGE-5" value="2&lt;span style=&quot;color: rgba(0, 0, 0, 0); font-family: monospace; font-size: 0px; text-align: start; text-wrap-mode: nowrap;&quot;&gt;%3CmxGraphModel%3E%3Croot%3E%3CmxCell%20id%3D%220%22%2F%3E%3CmxCell%20id%3D%221%22%20parent%3D%220%22%2F%3E%3CmxCell%20id%3D%222%22%20value%3D%221%22%20style%3D%22text%3Bhtml%3D1%3Balign%3Dcenter%3BverticalAlign%3Dmiddle%3BwhiteSpace%3Dwrap%3Brounded%3D0%3B%22%20vertex%3D%221%22%20parent%3D%221%22%3E%3CmxGeometry%20x%3D%22-265%22%20y%3D%22-197%22%20width%3D%2260%22%20height%3D%2230%22%20as%3D%22geometry%22%2F%3E%3C%2FmxCell%3E%3C%2Froot%3E%3C%2FmxGraphModel%3E&lt;/span&gt;" style="text;html=1;align=center;verticalAlign=middle;whiteSpace=wrap;rounded=0;" vertex="1" parent="SQYsEwDWb2ATAcnmcTGE-10">
          <mxGeometry x="10" y="4" width="60" height="30" as="geometry" />
        </mxCell>
        <mxCell id="SQYsEwDWb2ATAcnmcTGE-11" value="" style="group" vertex="1" connectable="0" parent="1">
          <mxGeometry x="-83" y="-201" width="80" height="146" as="geometry" />
        </mxCell>
        <mxCell id="Nwo_d49Ja96LuP_Ybd1G-9" value="&lt;div&gt;&lt;span style=&quot;text-wrap-mode: wrap;&quot;&gt;&lt;b&gt;Дмитрий&lt;/b&gt;&lt;/span&gt;&lt;/div&gt;" style="shape=umlActor;verticalLabelPosition=bottom;verticalAlign=top;html=1;fontSize=15;" parent="SQYsEwDWb2ATAcnmcTGE-11" vertex="1">
          <mxGeometry width="80" height="146" as="geometry" />
        </mxCell>
        <mxCell id="SQYsEwDWb2ATAcnmcTGE-6" value="3" style="text;html=1;align=center;verticalAlign=middle;whiteSpace=wrap;rounded=0;" vertex="1" parent="SQYsEwDWb2ATAcnmcTGE-11">
          <mxGeometry x="10" y="4" width="60" height="30" as="geometry" />
        </mxCell>
        <mxCell id="SQYsEwDWb2ATAcnmcTGE-12" value="" style="group" vertex="1" connectable="0" parent="1">
          <mxGeometry x="11" y="-201" width="80" height="146" as="geometry" />
        </mxCell>
        <mxCell id="Nwo_d49Ja96LuP_Ybd1G-10" value="&lt;div&gt;&lt;span style=&quot;text-wrap-mode: wrap;&quot;&gt;&lt;b&gt;Екатерина&lt;/b&gt;&lt;/span&gt;&lt;/div&gt;" style="shape=umlActor;verticalLabelPosition=bottom;verticalAlign=top;html=1;fontSize=15;" parent="SQYsEwDWb2ATAcnmcTGE-12" vertex="1">
          <mxGeometry width="80" height="146" as="geometry" />
        </mxCell>
        <mxCell id="SQYsEwDWb2ATAcnmcTGE-7" value="4" style="text;html=1;align=center;verticalAlign=middle;whiteSpace=wrap;rounded=0;" vertex="1" parent="SQYsEwDWb2ATAcnmcTGE-12">
          <mxGeometry x="10" y="4" width="60" height="30" as="geometry" />
        </mxCell>
        <mxCell id="SQYsEwDWb2ATAcnmcTGE-13" value="" style="group" vertex="1" connectable="0" parent="1">
          <mxGeometry x="101" y="-201" width="80" height="146" as="geometry" />
        </mxCell>
        <mxCell id="Nwo_d49Ja96LuP_Ybd1G-11" value="&lt;div&gt;&lt;span style=&quot;text-wrap-mode: wrap;&quot;&gt;&lt;b&gt;Сергей&lt;/b&gt;&lt;/span&gt;&lt;/div&gt;" style="shape=umlActor;verticalLabelPosition=bottom;verticalAlign=top;html=1;fontSize=15;" parent="SQYsEwDWb2ATAcnmcTGE-13" vertex="1">
          <mxGeometry width="80" height="146" as="geometry" />
        </mxCell>
        <mxCell id="SQYsEwDWb2ATAcnmcTGE-8" value="5" style="text;html=1;align=center;verticalAlign=middle;whiteSpace=wrap;rounded=0;" vertex="1" parent="SQYsEwDWb2ATAcnmcTGE-13">
          <mxGeometry x="10" y="4" width="60" height="30" as="geometry" />
        </mxCell>
        <mxCell id="SQYsEwDWb2ATAcnmcTGE-20" value="" style="group" vertex="1" connectable="0" parent="1">
          <mxGeometry x="-279" y="51" width="80" height="146" as="geometry" />
        </mxCell>
        <mxCell id="Nwo_d49Ja96LuP_Ybd1G-12" value="&lt;span style=&quot;text-wrap-mode: wrap;&quot;&gt;&lt;b&gt;Анастасия&lt;/b&gt;&lt;/span&gt;" style="shape=umlActor;verticalLabelPosition=bottom;verticalAlign=top;html=1;fontSize=15;" parent="SQYsEwDWb2ATAcnmcTGE-20" vertex="1">
          <mxGeometry width="80" height="146" as="geometry" />
        </mxCell>
        <mxCell id="SQYsEwDWb2ATAcnmcTGE-14" value="6" style="text;html=1;align=center;verticalAlign=middle;whiteSpace=wrap;rounded=0;" vertex="1" parent="SQYsEwDWb2ATAcnmcTGE-20">
          <mxGeometry x="10" y="4" width="60" height="30" as="geometry" />
        </mxCell>
        <mxCell id="SQYsEwDWb2ATAcnmcTGE-21" value="" style="group" vertex="1" connectable="0" parent="1">
          <mxGeometry x="-178" y="51" width="80" height="146" as="geometry" />
        </mxCell>
        <mxCell id="Nwo_d49Ja96LuP_Ybd1G-13" value="&lt;div&gt;&lt;span style=&quot;text-wrap-mode: wrap;&quot;&gt;&lt;b&gt;Игорь&lt;/b&gt;&lt;/span&gt;&lt;/div&gt;" style="shape=umlActor;verticalLabelPosition=bottom;verticalAlign=top;html=1;fontSize=15;" parent="SQYsEwDWb2ATAcnmcTGE-21" vertex="1">
          <mxGeometry width="80" height="146" as="geometry" />
        </mxCell>
        <mxCell id="SQYsEwDWb2ATAcnmcTGE-15" value="7" style="text;html=1;align=center;verticalAlign=middle;whiteSpace=wrap;rounded=0;" vertex="1" parent="SQYsEwDWb2ATAcnmcTGE-21">
          <mxGeometry x="10" y="4" width="60" height="30" as="geometry" />
        </mxCell>
        <mxCell id="SQYsEwDWb2ATAcnmcTGE-22" value="" style="group" vertex="1" connectable="0" parent="1">
          <mxGeometry x="-83" y="51" width="80" height="146" as="geometry" />
        </mxCell>
        <mxCell id="Nwo_d49Ja96LuP_Ybd1G-14" value="&lt;div&gt;&lt;span style=&quot;text-wrap-mode: wrap;&quot;&gt;&lt;b&gt;Ольга&lt;/b&gt;&lt;/span&gt;&lt;/div&gt;" style="shape=umlActor;verticalLabelPosition=bottom;verticalAlign=top;html=1;fontSize=15;" parent="SQYsEwDWb2ATAcnmcTGE-22" vertex="1">
          <mxGeometry width="80" height="146" as="geometry" />
        </mxCell>
        <mxCell id="SQYsEwDWb2ATAcnmcTGE-16" value="8" style="text;html=1;align=center;verticalAlign=middle;whiteSpace=wrap;rounded=0;" vertex="1" parent="SQYsEwDWb2ATAcnmcTGE-22">
          <mxGeometry x="10" y="4" width="60" height="30" as="geometry" />
        </mxCell>
        <mxCell id="SQYsEwDWb2ATAcnmcTGE-23" value="" style="group" vertex="1" connectable="0" parent="1">
          <mxGeometry x="7" y="51" width="72" height="146" as="geometry" />
        </mxCell>
        <mxCell id="Nwo_d49Ja96LuP_Ybd1G-15" value="&lt;b&gt;Владимир&lt;/b&gt;" style="shape=umlActor;verticalLabelPosition=bottom;verticalAlign=top;html=1;fontSize=15;" parent="SQYsEwDWb2ATAcnmcTGE-23" vertex="1">
          <mxGeometry width="72" height="146" as="geometry" />
        </mxCell>
        <mxCell id="SQYsEwDWb2ATAcnmcTGE-17" value="9" style="text;html=1;align=center;verticalAlign=middle;whiteSpace=wrap;rounded=0;" vertex="1" parent="SQYsEwDWb2ATAcnmcTGE-23">
          <mxGeometry x="6" y="4" width="60" height="30" as="geometry" />
        </mxCell>
        <mxCell id="SQYsEwDWb2ATAcnmcTGE-24" value="" style="group" vertex="1" connectable="0" parent="1">
          <mxGeometry x="97" y="51" width="80" height="146" as="geometry" />
        </mxCell>
        <mxCell id="Nwo_d49Ja96LuP_Ybd1G-16" value="&lt;div style=&quot;&quot;&gt;&lt;span style=&quot;text-wrap-mode: wrap;&quot;&gt;&lt;b&gt;Юлия&lt;/b&gt;&lt;/span&gt;&lt;/div&gt;" style="shape=umlActor;verticalLabelPosition=bottom;verticalAlign=top;html=1;fontSize=15;align=center;" parent="SQYsEwDWb2ATAcnmcTGE-24" vertex="1">
          <mxGeometry width="80" height="146" as="geometry" />
        </mxCell>
        <mxCell id="SQYsEwDWb2ATAcnmcTGE-18" value="10" style="text;html=1;align=center;verticalAlign=middle;whiteSpace=wrap;rounded=0;" vertex="1" parent="SQYsEwDWb2ATAcnmcTGE-24">
          <mxGeometry x="10" y="4" width="60" height="30" as="geometry" />
        </mxCell>
        <mxCell id="yBRhDTHFHlxMNVGow-Po-1" value="&lt;font style=&quot;font-size: 48px;&quot;&gt;&lt;b&gt;Люди&lt;/b&gt;&lt;/font&gt;" style="text;html=1;align=center;verticalAlign=middle;whiteSpace=wrap;rounded=0;" vertex="1" parent="1">
          <mxGeometry x="-73" y="-309" width="60" height="30" as="geometry" />
        </mxCell>
      </root>
    </mxGraphModel>
  </diagram>
  <diagram id="zZL-7ms0MjTuq53bIBEk" name="Country ">
    <mxGraphModel dx="1159" dy="917" grid="0" gridSize="10" guides="1" tooltips="1" connect="1" arrows="1" fold="1" page="0" pageScale="1" pageWidth="827" pageHeight="1169" math="0" shadow="0">
      <root>
        <mxCell id="0" />
        <mxCell id="1" parent="0" />
        <mxCell id="HMI23ZpkJvZm76oslS-E-18" value="" style="group;fontSize=15;" parent="1" vertex="1" connectable="0">
          <mxGeometry x="-394" y="-284" width="100" height="102" as="geometry" />
        </mxCell>
        <mxCell id="HMI23ZpkJvZm76oslS-E-2" value="" style="verticalLabelPosition=bottom;verticalAlign=top;html=1;shape=mxgraph.flowchart.on-page_reference;fontSize=15;" parent="HMI23ZpkJvZm76oslS-E-18" vertex="1">
          <mxGeometry width="100" height="100" as="geometry" />
        </mxCell>
        <mxCell id="HMI23ZpkJvZm76oslS-E-17" value="&lt;div&gt;&lt;span style=&quot;text-align: left; text-wrap-mode: wrap;&quot;&gt;Китай&lt;/span&gt;&lt;/div&gt;" style="text;align=center;fontStyle=1;verticalAlign=middle;spacingLeft=3;spacingRight=3;strokeColor=none;rotatable=0;points=[[0,0.5],[1,0.5]];portConstraint=eastwest;html=1;fontSize=15;" parent="HMI23ZpkJvZm76oslS-E-18" vertex="1">
          <mxGeometry x="10" y="18" width="80" height="47" as="geometry" />
        </mxCell>
        <mxCell id="suVXjxts1eiVrK-f27ON-2" value="&lt;span style=&quot;font-size: 15px; text-align: left;&quot;&gt;Азия&lt;/span&gt;" style="strokeWidth=2;html=1;shape=mxgraph.flowchart.start_2;whiteSpace=wrap;" parent="HMI23ZpkJvZm76oslS-E-18" vertex="1">
          <mxGeometry x="26" y="52" width="48" height="48" as="geometry" />
        </mxCell>
        <mxCell id="MARCBWqhoHOY2bxCVvuC-1" value="1" style="ellipse;whiteSpace=wrap;html=1;aspect=fixed;" parent="HMI23ZpkJvZm76oslS-E-18" vertex="1">
          <mxGeometry x="36" width="28" height="28" as="geometry" />
        </mxCell>
        <mxCell id="MARCBWqhoHOY2bxCVvuC-2" value="" style="group;fontSize=15;" parent="1" vertex="1" connectable="0">
          <mxGeometry x="-270" y="-284" width="100" height="102" as="geometry" />
        </mxCell>
        <mxCell id="MARCBWqhoHOY2bxCVvuC-3" value="" style="verticalLabelPosition=bottom;verticalAlign=top;html=1;shape=mxgraph.flowchart.on-page_reference;fontSize=15;" parent="MARCBWqhoHOY2bxCVvuC-2" vertex="1">
          <mxGeometry width="100" height="100" as="geometry" />
        </mxCell>
        <mxCell id="MARCBWqhoHOY2bxCVvuC-4" value="&lt;div&gt;&lt;span style=&quot;text-align: left; text-wrap-mode: wrap;&quot;&gt;Индия&lt;/span&gt;&lt;/div&gt;" style="text;align=center;fontStyle=1;verticalAlign=middle;spacingLeft=3;spacingRight=3;strokeColor=none;rotatable=0;points=[[0,0.5],[1,0.5]];portConstraint=eastwest;html=1;fontSize=15;" parent="MARCBWqhoHOY2bxCVvuC-2" vertex="1">
          <mxGeometry x="10" y="18" width="80" height="47" as="geometry" />
        </mxCell>
        <mxCell id="MARCBWqhoHOY2bxCVvuC-5" value="&lt;span style=&quot;font-size: 15px; text-align: left;&quot;&gt;Азия&lt;/span&gt;" style="strokeWidth=2;html=1;shape=mxgraph.flowchart.start_2;whiteSpace=wrap;" parent="MARCBWqhoHOY2bxCVvuC-2" vertex="1">
          <mxGeometry x="26" y="52" width="48" height="48" as="geometry" />
        </mxCell>
        <mxCell id="MARCBWqhoHOY2bxCVvuC-6" value="2" style="ellipse;whiteSpace=wrap;html=1;aspect=fixed;" parent="MARCBWqhoHOY2bxCVvuC-2" vertex="1">
          <mxGeometry x="36" width="28" height="28" as="geometry" />
        </mxCell>
        <mxCell id="MARCBWqhoHOY2bxCVvuC-7" value="" style="group;fontSize=15;" parent="1" vertex="1" connectable="0">
          <mxGeometry x="-400" y="-179" width="112" height="102" as="geometry" />
        </mxCell>
        <mxCell id="MARCBWqhoHOY2bxCVvuC-11" value="3" style="ellipse;whiteSpace=wrap;html=1;aspect=fixed;" parent="MARCBWqhoHOY2bxCVvuC-7" vertex="1">
          <mxGeometry x="36" width="28" height="28" as="geometry" />
        </mxCell>
        <mxCell id="MARCBWqhoHOY2bxCVvuC-22" value="" style="group" parent="MARCBWqhoHOY2bxCVvuC-7" vertex="1" connectable="0">
          <mxGeometry x="-9" width="121" height="100" as="geometry" />
        </mxCell>
        <mxCell id="MARCBWqhoHOY2bxCVvuC-25" value="" style="group" parent="MARCBWqhoHOY2bxCVvuC-22" vertex="1" connectable="0">
          <mxGeometry width="121" height="100" as="geometry" />
        </mxCell>
        <mxCell id="MARCBWqhoHOY2bxCVvuC-8" value="" style="verticalLabelPosition=bottom;verticalAlign=top;html=1;shape=mxgraph.flowchart.on-page_reference;fontSize=15;" parent="MARCBWqhoHOY2bxCVvuC-25" vertex="1">
          <mxGeometry x="9" width="100" height="100" as="geometry" />
        </mxCell>
        <mxCell id="MARCBWqhoHOY2bxCVvuC-10" value="&lt;span style=&quot;font-size: 15px; text-align: left;&quot;&gt;Азия&lt;/span&gt;" style="strokeWidth=2;html=1;shape=mxgraph.flowchart.start_2;whiteSpace=wrap;" parent="MARCBWqhoHOY2bxCVvuC-25" vertex="1">
          <mxGeometry x="35" y="52" width="48" height="48" as="geometry" />
        </mxCell>
        <mxCell id="MARCBWqhoHOY2bxCVvuC-20" value="&lt;font style=&quot;font-size: 14px;&quot;&gt;&lt;b&gt;Шри-Ланка&lt;/b&gt;&lt;/font&gt;" style="text;html=1;align=center;verticalAlign=middle;whiteSpace=wrap;rounded=0;" parent="MARCBWqhoHOY2bxCVvuC-25" vertex="1">
          <mxGeometry y="28" width="121" height="30" as="geometry" />
        </mxCell>
        <mxCell id="MARCBWqhoHOY2bxCVvuC-24" value="3" style="ellipse;whiteSpace=wrap;html=1;aspect=fixed;" parent="MARCBWqhoHOY2bxCVvuC-25" vertex="1">
          <mxGeometry x="45" width="28" height="28" as="geometry" />
        </mxCell>
        <mxCell id="MARCBWqhoHOY2bxCVvuC-12" value="" style="group;fontSize=15;" parent="1" vertex="1" connectable="0">
          <mxGeometry x="-270" y="-182" width="100" height="102" as="geometry" />
        </mxCell>
        <mxCell id="MARCBWqhoHOY2bxCVvuC-13" value="" style="verticalLabelPosition=bottom;verticalAlign=top;html=1;shape=mxgraph.flowchart.on-page_reference;fontSize=15;" parent="MARCBWqhoHOY2bxCVvuC-12" vertex="1">
          <mxGeometry width="100" height="100" as="geometry" />
        </mxCell>
        <mxCell id="MARCBWqhoHOY2bxCVvuC-14" value="&lt;div&gt;&lt;span style=&quot;text-align: left; text-wrap-mode: wrap;&quot;&gt;Япония&lt;/span&gt;&lt;/div&gt;" style="text;align=center;fontStyle=1;verticalAlign=middle;spacingLeft=3;spacingRight=3;strokeColor=none;rotatable=0;points=[[0,0.5],[1,0.5]];portConstraint=eastwest;html=1;fontSize=15;" parent="MARCBWqhoHOY2bxCVvuC-12" vertex="1">
          <mxGeometry x="10" y="18" width="80" height="47" as="geometry" />
        </mxCell>
        <mxCell id="MARCBWqhoHOY2bxCVvuC-15" value="&lt;span style=&quot;font-size: 15px; text-align: left;&quot;&gt;Азия&lt;/span&gt;" style="strokeWidth=2;html=1;shape=mxgraph.flowchart.start_2;whiteSpace=wrap;" parent="MARCBWqhoHOY2bxCVvuC-12" vertex="1">
          <mxGeometry x="26" y="52" width="48" height="48" as="geometry" />
        </mxCell>
        <mxCell id="MARCBWqhoHOY2bxCVvuC-16" value="4" style="ellipse;whiteSpace=wrap;html=1;aspect=fixed;" parent="MARCBWqhoHOY2bxCVvuC-12" vertex="1">
          <mxGeometry x="36" width="28" height="28" as="geometry" />
        </mxCell>
        <mxCell id="MARCBWqhoHOY2bxCVvuC-33" value="" style="group;fontSize=15;" parent="1" vertex="1" connectable="0">
          <mxGeometry x="-394" y="-71" width="100" height="102" as="geometry" />
        </mxCell>
        <mxCell id="MARCBWqhoHOY2bxCVvuC-34" value="" style="verticalLabelPosition=bottom;verticalAlign=top;html=1;shape=mxgraph.flowchart.on-page_reference;fontSize=15;" parent="MARCBWqhoHOY2bxCVvuC-33" vertex="1">
          <mxGeometry width="100" height="100" as="geometry" />
        </mxCell>
        <mxCell id="MARCBWqhoHOY2bxCVvuC-35" value="&lt;div&gt;&lt;span style=&quot;text-align: left; text-wrap-mode: wrap;&quot;&gt;Кения&lt;/span&gt;&lt;/div&gt;" style="text;align=center;fontStyle=1;verticalAlign=middle;spacingLeft=3;spacingRight=3;strokeColor=none;rotatable=0;points=[[0,0.5],[1,0.5]];portConstraint=eastwest;html=1;fontSize=15;" parent="MARCBWqhoHOY2bxCVvuC-33" vertex="1">
          <mxGeometry x="10" y="18" width="80" height="47" as="geometry" />
        </mxCell>
        <mxCell id="MARCBWqhoHOY2bxCVvuC-36" value="&lt;span style=&quot;text-align: left;&quot;&gt;&lt;font style=&quot;font-size: 12px;&quot;&gt;Африка&lt;/font&gt;&lt;/span&gt;" style="strokeWidth=2;html=1;shape=mxgraph.flowchart.start_2;whiteSpace=wrap;" parent="MARCBWqhoHOY2bxCVvuC-33" vertex="1">
          <mxGeometry x="26" y="52" width="48" height="48" as="geometry" />
        </mxCell>
        <mxCell id="MARCBWqhoHOY2bxCVvuC-37" value="5" style="ellipse;whiteSpace=wrap;html=1;aspect=fixed;" parent="MARCBWqhoHOY2bxCVvuC-33" vertex="1">
          <mxGeometry x="36" width="28" height="28" as="geometry" />
        </mxCell>
        <mxCell id="MARCBWqhoHOY2bxCVvuC-38" value="" style="group;fontSize=15;" parent="1" vertex="1" connectable="0">
          <mxGeometry x="-270" y="-77" width="100" height="102" as="geometry" />
        </mxCell>
        <mxCell id="MARCBWqhoHOY2bxCVvuC-39" value="" style="verticalLabelPosition=bottom;verticalAlign=top;html=1;shape=mxgraph.flowchart.on-page_reference;fontSize=15;" parent="MARCBWqhoHOY2bxCVvuC-38" vertex="1">
          <mxGeometry width="100" height="100" as="geometry" />
        </mxCell>
        <mxCell id="MARCBWqhoHOY2bxCVvuC-40" value="&lt;div&gt;&lt;span style=&quot;text-align: left; text-wrap-mode: wrap;&quot;&gt;Турция&lt;/span&gt;&lt;/div&gt;" style="text;align=center;fontStyle=1;verticalAlign=middle;spacingLeft=3;spacingRight=3;strokeColor=none;rotatable=0;points=[[0,0.5],[1,0.5]];portConstraint=eastwest;html=1;fontSize=15;" parent="MARCBWqhoHOY2bxCVvuC-38" vertex="1">
          <mxGeometry x="10" y="18" width="80" height="47" as="geometry" />
        </mxCell>
        <mxCell id="MARCBWqhoHOY2bxCVvuC-41" value="&lt;span style=&quot;font-size: 15px; text-align: left;&quot;&gt;Азия&lt;/span&gt;" style="strokeWidth=2;html=1;shape=mxgraph.flowchart.start_2;whiteSpace=wrap;" parent="MARCBWqhoHOY2bxCVvuC-38" vertex="1">
          <mxGeometry x="26" y="52" width="48" height="48" as="geometry" />
        </mxCell>
        <mxCell id="MARCBWqhoHOY2bxCVvuC-42" value="6" style="ellipse;whiteSpace=wrap;html=1;aspect=fixed;" parent="MARCBWqhoHOY2bxCVvuC-38" vertex="1">
          <mxGeometry x="36" width="28" height="28" as="geometry" />
        </mxCell>
        <mxCell id="MARCBWqhoHOY2bxCVvuC-43" value="" style="group;fontSize=15;" parent="1" vertex="1" connectable="0">
          <mxGeometry x="-394" y="31" width="100" height="102" as="geometry" />
        </mxCell>
        <mxCell id="MARCBWqhoHOY2bxCVvuC-44" value="" style="verticalLabelPosition=bottom;verticalAlign=top;html=1;shape=mxgraph.flowchart.on-page_reference;fontSize=15;" parent="MARCBWqhoHOY2bxCVvuC-43" vertex="1">
          <mxGeometry width="100" height="100" as="geometry" />
        </mxCell>
        <mxCell id="MARCBWqhoHOY2bxCVvuC-45" value="&lt;div&gt;&lt;span style=&quot;text-align: left; text-wrap-mode: wrap;&quot;&gt;Вьетнам&lt;/span&gt;&lt;/div&gt;" style="text;align=center;fontStyle=1;verticalAlign=middle;spacingLeft=3;spacingRight=3;strokeColor=none;rotatable=0;points=[[0,0.5],[1,0.5]];portConstraint=eastwest;html=1;fontSize=15;" parent="MARCBWqhoHOY2bxCVvuC-43" vertex="1">
          <mxGeometry x="10" y="18" width="80" height="47" as="geometry" />
        </mxCell>
        <mxCell id="MARCBWqhoHOY2bxCVvuC-46" value="&lt;span style=&quot;font-size: 15px; text-align: left;&quot;&gt;Азия&lt;/span&gt;" style="strokeWidth=2;html=1;shape=mxgraph.flowchart.start_2;whiteSpace=wrap;" parent="MARCBWqhoHOY2bxCVvuC-43" vertex="1">
          <mxGeometry x="26" y="52" width="48" height="48" as="geometry" />
        </mxCell>
        <mxCell id="MARCBWqhoHOY2bxCVvuC-47" value="7" style="ellipse;whiteSpace=wrap;html=1;aspect=fixed;" parent="MARCBWqhoHOY2bxCVvuC-43" vertex="1">
          <mxGeometry x="36" width="28" height="28" as="geometry" />
        </mxCell>
        <mxCell id="MARCBWqhoHOY2bxCVvuC-48" value="" style="group;fontSize=15;" parent="1" vertex="1" connectable="0">
          <mxGeometry x="-270" y="25" width="100" height="102" as="geometry" />
        </mxCell>
        <mxCell id="MARCBWqhoHOY2bxCVvuC-49" value="" style="verticalLabelPosition=bottom;verticalAlign=top;html=1;shape=mxgraph.flowchart.on-page_reference;fontSize=15;" parent="MARCBWqhoHOY2bxCVvuC-48" vertex="1">
          <mxGeometry width="100" height="100" as="geometry" />
        </mxCell>
        <mxCell id="MARCBWqhoHOY2bxCVvuC-50" value="&lt;div&gt;&lt;span style=&quot;text-align: left; text-wrap-mode: wrap;&quot;&gt;Аргентина&lt;/span&gt;&lt;/div&gt;" style="text;align=center;fontStyle=1;verticalAlign=middle;spacingLeft=3;spacingRight=3;strokeColor=none;rotatable=0;points=[[0,0.5],[1,0.5]];portConstraint=eastwest;html=1;fontSize=15;" parent="MARCBWqhoHOY2bxCVvuC-48" vertex="1">
          <mxGeometry x="10" y="18" width="80" height="47" as="geometry" />
        </mxCell>
        <mxCell id="MARCBWqhoHOY2bxCVvuC-51" value="&lt;span style=&quot;font-size: 15px; text-align: left;&quot;&gt;Юж. Ам.&lt;/span&gt;" style="strokeWidth=2;html=1;shape=mxgraph.flowchart.start_2;whiteSpace=wrap;" parent="MARCBWqhoHOY2bxCVvuC-48" vertex="1">
          <mxGeometry x="26" y="52" width="48" height="48" as="geometry" />
        </mxCell>
        <mxCell id="MARCBWqhoHOY2bxCVvuC-52" value="8" style="ellipse;whiteSpace=wrap;html=1;aspect=fixed;" parent="MARCBWqhoHOY2bxCVvuC-48" vertex="1">
          <mxGeometry x="36" width="28" height="28" as="geometry" />
        </mxCell>
        <mxCell id="MARCBWqhoHOY2bxCVvuC-53" value="" style="group;fontSize=15;" parent="1" vertex="1" connectable="0">
          <mxGeometry x="-394" y="136" width="100" height="102" as="geometry" />
        </mxCell>
        <mxCell id="MARCBWqhoHOY2bxCVvuC-54" value="" style="verticalLabelPosition=bottom;verticalAlign=top;html=1;shape=mxgraph.flowchart.on-page_reference;fontSize=15;" parent="MARCBWqhoHOY2bxCVvuC-53" vertex="1">
          <mxGeometry width="100" height="100" as="geometry" />
        </mxCell>
        <mxCell id="MARCBWqhoHOY2bxCVvuC-55" value="&lt;div&gt;&lt;span style=&quot;text-align: left; text-wrap-mode: wrap;&quot;&gt;Юж.Африка&lt;/span&gt;&lt;/div&gt;" style="text;align=center;fontStyle=1;verticalAlign=middle;spacingLeft=3;spacingRight=3;strokeColor=none;rotatable=0;points=[[0,0.5],[1,0.5]];portConstraint=eastwest;html=1;fontSize=15;" parent="MARCBWqhoHOY2bxCVvuC-53" vertex="1">
          <mxGeometry x="10" y="18" width="80" height="47" as="geometry" />
        </mxCell>
        <mxCell id="MARCBWqhoHOY2bxCVvuC-56" value="&lt;span style=&quot;text-align: left;&quot;&gt;&lt;font style=&quot;font-size: 12px;&quot;&gt;Африка&lt;/font&gt;&lt;/span&gt;" style="strokeWidth=2;html=1;shape=mxgraph.flowchart.start_2;whiteSpace=wrap;" parent="MARCBWqhoHOY2bxCVvuC-53" vertex="1">
          <mxGeometry x="26" y="52" width="48" height="48" as="geometry" />
        </mxCell>
        <mxCell id="MARCBWqhoHOY2bxCVvuC-57" value="9" style="ellipse;whiteSpace=wrap;html=1;aspect=fixed;" parent="MARCBWqhoHOY2bxCVvuC-53" vertex="1">
          <mxGeometry x="36" width="28" height="28" as="geometry" />
        </mxCell>
        <mxCell id="MARCBWqhoHOY2bxCVvuC-59" value="" style="group;fontSize=15;" parent="1" vertex="1" connectable="0">
          <mxGeometry x="-270" y="127" width="100" height="102" as="geometry" />
        </mxCell>
        <mxCell id="MARCBWqhoHOY2bxCVvuC-60" value="" style="verticalLabelPosition=bottom;verticalAlign=top;html=1;shape=mxgraph.flowchart.on-page_reference;fontSize=15;" parent="MARCBWqhoHOY2bxCVvuC-59" vertex="1">
          <mxGeometry width="100" height="100" as="geometry" />
        </mxCell>
        <mxCell id="MARCBWqhoHOY2bxCVvuC-61" value="&lt;div&gt;&lt;span style=&quot;text-align: left; text-wrap-mode: wrap;&quot;&gt;Иран&lt;/span&gt;&lt;/div&gt;" style="text;align=center;fontStyle=1;verticalAlign=middle;spacingLeft=3;spacingRight=3;strokeColor=none;rotatable=0;points=[[0,0.5],[1,0.5]];portConstraint=eastwest;html=1;fontSize=15;" parent="MARCBWqhoHOY2bxCVvuC-59" vertex="1">
          <mxGeometry x="10" y="18" width="80" height="47" as="geometry" />
        </mxCell>
        <mxCell id="MARCBWqhoHOY2bxCVvuC-62" value="&lt;span style=&quot;font-size: 15px; text-align: left;&quot;&gt;Азия&lt;/span&gt;" style="strokeWidth=2;html=1;shape=mxgraph.flowchart.start_2;whiteSpace=wrap;" parent="MARCBWqhoHOY2bxCVvuC-59" vertex="1">
          <mxGeometry x="26" y="52" width="48" height="48" as="geometry" />
        </mxCell>
        <mxCell id="MARCBWqhoHOY2bxCVvuC-63" value="10" style="ellipse;whiteSpace=wrap;html=1;aspect=fixed;" parent="MARCBWqhoHOY2bxCVvuC-59" vertex="1">
          <mxGeometry x="36" width="28" height="28" as="geometry" />
        </mxCell>
        <mxCell id="MARCBWqhoHOY2bxCVvuC-65" value="&lt;p dir=&quot;auto&quot; style=&quot;white-space: pre-wrap;&quot;&gt;&lt;font style=&quot;font-size: 48px;&quot;&gt;&lt;b&gt;Country&lt;/b&gt;&lt;/font&gt;&lt;/p&gt;" style="text;whiteSpace=wrap;html=1;" parent="1" vertex="1">
          <mxGeometry x="-363.99572126116067" y="-371.99855224609377" width="70" height="60" as="geometry" />
        </mxCell>
      </root>
    </mxGraphModel>
  </diagram>
  <diagram name="Tea" id="SQLIt1jUeSK_mm7NhEO4">
    <mxGraphModel dx="1598" dy="2233" grid="0" gridSize="10" guides="1" tooltips="1" connect="1" arrows="1" fold="1" page="0" pageScale="1" pageWidth="827" pageHeight="1169" math="0" shadow="0">
      <root>
        <mxCell id="0" />
        <mxCell id="1" parent="0" />
        <mxCell id="txSXcNbZ7creqiaCZGTC-26" value="" style="group" parent="1" vertex="1" connectable="0">
          <mxGeometry x="-322" y="-440" width="212" height="222" as="geometry" />
        </mxCell>
        <mxCell id="txSXcNbZ7creqiaCZGTC-27" value="&lt;font style=&quot;font-size: 18px;&quot;&gt;Ассам&lt;/font&gt;" style="strokeWidth=2;html=1;shape=mxgraph.flowchart.database;whiteSpace=wrap;" parent="txSXcNbZ7creqiaCZGTC-26" vertex="1">
          <mxGeometry width="160.3947368421053" height="222" as="geometry" />
        </mxCell>
        <mxCell id="txSXcNbZ7creqiaCZGTC-28" value="" style="shape=requiredInterface;html=1;verticalLabelPosition=bottom;sketch=0;" parent="txSXcNbZ7creqiaCZGTC-26" vertex="1">
          <mxGeometry x="159.21052631578948" y="59.84347826086957" width="55.78947368421053" height="119.68695652173913" as="geometry" />
        </mxCell>
        <mxCell id="txSXcNbZ7creqiaCZGTC-29" value="" style="group;fillColor=#e3c800;fontColor=#000000;strokeColor=#B09500;" parent="txSXcNbZ7creqiaCZGTC-26" vertex="1" connectable="0">
          <mxGeometry x="30.19999999999999" y="17" width="91.5" height="39" as="geometry" />
        </mxCell>
        <mxCell id="txSXcNbZ7creqiaCZGTC-30" value="" style="verticalLabelPosition=bottom;verticalAlign=top;html=1;shape=mxgraph.basic.rect;fillColor2=none;strokeWidth=1;size=20;indent=5;" parent="txSXcNbZ7creqiaCZGTC-29" vertex="1">
          <mxGeometry width="91.5" height="39" as="geometry" />
        </mxCell>
        <mxCell id="txSXcNbZ7creqiaCZGTC-31" value="5" style="text;align=center;fontStyle=1;verticalAlign=middle;spacingLeft=3;spacingRight=3;strokeColor=none;rotatable=0;points=[[0,0.5],[1,0.5]];portConstraint=eastwest;html=1;" parent="txSXcNbZ7creqiaCZGTC-29" vertex="1">
          <mxGeometry x="3" y="4" width="85.5" height="31" as="geometry" />
        </mxCell>
        <mxCell id="txSXcNbZ7creqiaCZGTC-32" value="Чёрный" style="strokeWidth=2;html=1;shape=mxgraph.flowchart.merge_or_storage;whiteSpace=wrap;fillColor=#647687;fontColor=#ffffff;strokeColor=#314354;" parent="txSXcNbZ7creqiaCZGTC-26" vertex="1">
          <mxGeometry x="35" y="126" width="100" height="58" as="geometry" />
        </mxCell>
        <mxCell id="txSXcNbZ7creqiaCZGTC-33" value="" style="group" parent="1" vertex="1" connectable="0">
          <mxGeometry x="-574" y="-205" width="212" height="222" as="geometry" />
        </mxCell>
        <mxCell id="txSXcNbZ7creqiaCZGTC-34" value="&lt;font style=&quot;font-size: 18px;&quot;&gt;Пуэр&lt;/font&gt;" style="strokeWidth=2;html=1;shape=mxgraph.flowchart.database;whiteSpace=wrap;" parent="txSXcNbZ7creqiaCZGTC-33" vertex="1">
          <mxGeometry width="160.3947368421053" height="222" as="geometry" />
        </mxCell>
        <mxCell id="txSXcNbZ7creqiaCZGTC-35" value="" style="shape=requiredInterface;html=1;verticalLabelPosition=bottom;sketch=0;" parent="txSXcNbZ7creqiaCZGTC-33" vertex="1">
          <mxGeometry x="158.21052631578948" y="59.84347826086957" width="55.78947368421053" height="119.68695652173913" as="geometry" />
        </mxCell>
        <mxCell id="txSXcNbZ7creqiaCZGTC-36" value="" style="group;fillColor=#e3c800;fontColor=#000000;strokeColor=#B09500;" parent="txSXcNbZ7creqiaCZGTC-33" vertex="1" connectable="0">
          <mxGeometry x="30.19999999999999" y="17" width="91.5" height="39" as="geometry" />
        </mxCell>
        <mxCell id="txSXcNbZ7creqiaCZGTC-37" value="" style="verticalLabelPosition=bottom;verticalAlign=top;html=1;shape=mxgraph.basic.rect;fillColor2=none;strokeWidth=1;size=20;indent=5;" parent="txSXcNbZ7creqiaCZGTC-36" vertex="1">
          <mxGeometry width="91.5" height="39" as="geometry" />
        </mxCell>
        <mxCell id="txSXcNbZ7creqiaCZGTC-38" value="3" style="text;align=center;fontStyle=1;verticalAlign=middle;spacingLeft=3;spacingRight=3;strokeColor=none;rotatable=0;points=[[0,0.5],[1,0.5]];portConstraint=eastwest;html=1;" parent="txSXcNbZ7creqiaCZGTC-36" vertex="1">
          <mxGeometry x="3" y="4" width="85.5" height="31" as="geometry" />
        </mxCell>
        <mxCell id="txSXcNbZ7creqiaCZGTC-39" value="" style="strokeWidth=2;html=1;shape=mxgraph.flowchart.merge_or_storage;whiteSpace=wrap;fillColor=#FFBAD8;strokeColor=#36393d;" parent="txSXcNbZ7creqiaCZGTC-33" vertex="1">
          <mxGeometry x="19" y="134" width="116" height="60" as="geometry" />
        </mxCell>
        <mxCell id="txSXcNbZ7creqiaCZGTC-47" value="&lt;font style=&quot;color: rgb(255, 255, 255); font-weight: 400; text-wrap-mode: wrap; font-size: 10px;&quot;&gt;Фермен-&lt;/font&gt;&lt;div style=&quot;color: rgb(255, 255, 255); font-weight: 400; text-wrap-mode: wrap;&quot;&gt;&lt;font style=&quot;font-size: 10px;&quot;&gt;тированный&lt;/font&gt;&lt;/div&gt;" style="text;align=center;fontStyle=1;verticalAlign=middle;spacingLeft=3;spacingRight=3;strokeColor=none;rotatable=0;points=[[0,0.5],[1,0.5]];portConstraint=eastwest;html=1;" parent="txSXcNbZ7creqiaCZGTC-33" vertex="1">
          <mxGeometry x="34" y="137" width="81.95" height="28" as="geometry" />
        </mxCell>
        <mxCell id="txSXcNbZ7creqiaCZGTC-49" value="" style="group" parent="1" vertex="1" connectable="0">
          <mxGeometry x="-574" y="-440" width="212" height="222" as="geometry" />
        </mxCell>
        <mxCell id="txSXcNbZ7creqiaCZGTC-97" value="" style="group" parent="txSXcNbZ7creqiaCZGTC-49" vertex="1" connectable="0">
          <mxGeometry x="-3" y="1" width="214" height="222" as="geometry" />
        </mxCell>
        <mxCell id="txSXcNbZ7creqiaCZGTC-50" value="&lt;font style=&quot;font-size: 18px;&quot;&gt;Матча&lt;/font&gt;" style="strokeWidth=2;html=1;shape=mxgraph.flowchart.database;whiteSpace=wrap;" parent="txSXcNbZ7creqiaCZGTC-97" vertex="1">
          <mxGeometry width="160.3947368421053" height="222" as="geometry" />
        </mxCell>
        <mxCell id="txSXcNbZ7creqiaCZGTC-51" value="" style="shape=requiredInterface;html=1;verticalLabelPosition=bottom;sketch=0;" parent="txSXcNbZ7creqiaCZGTC-97" vertex="1">
          <mxGeometry x="158.21052631578948" y="59.84347826086957" width="55.78947368421053" height="119.68695652173913" as="geometry" />
        </mxCell>
        <mxCell id="txSXcNbZ7creqiaCZGTC-52" value="" style="group;fillColor=#e3c800;fontColor=#000000;strokeColor=#B09500;" parent="txSXcNbZ7creqiaCZGTC-97" vertex="1" connectable="0">
          <mxGeometry x="30.19999999999999" y="17" width="91.5" height="39" as="geometry" />
        </mxCell>
        <mxCell id="txSXcNbZ7creqiaCZGTC-53" value="" style="verticalLabelPosition=bottom;verticalAlign=top;html=1;shape=mxgraph.basic.rect;fillColor2=none;strokeWidth=1;size=20;indent=5;" parent="txSXcNbZ7creqiaCZGTC-52" vertex="1">
          <mxGeometry width="91.5" height="39" as="geometry" />
        </mxCell>
        <mxCell id="txSXcNbZ7creqiaCZGTC-54" value="2" style="text;align=center;fontStyle=1;verticalAlign=middle;spacingLeft=3;spacingRight=3;strokeColor=none;rotatable=0;points=[[0,0.5],[1,0.5]];portConstraint=eastwest;html=1;" parent="txSXcNbZ7creqiaCZGTC-52" vertex="1">
          <mxGeometry x="3" y="4" width="85.5" height="31" as="geometry" />
        </mxCell>
        <mxCell id="txSXcNbZ7creqiaCZGTC-55" value="Зелёный" style="strokeWidth=2;html=1;shape=mxgraph.flowchart.merge_or_storage;whiteSpace=wrap;fillColor=#6d8764;fontColor=#ffffff;strokeColor=#3A5431;" parent="txSXcNbZ7creqiaCZGTC-97" vertex="1">
          <mxGeometry x="35" y="126" width="100" height="58" as="geometry" />
        </mxCell>
        <mxCell id="txSXcNbZ7creqiaCZGTC-72" value="" style="group" parent="1" vertex="1" connectable="0">
          <mxGeometry x="-321" y="-211" width="212" height="222" as="geometry" />
        </mxCell>
        <mxCell id="txSXcNbZ7creqiaCZGTC-73" value="&lt;font style=&quot;font-size: 18px;&quot;&gt;Сенча&lt;/font&gt;" style="strokeWidth=2;html=1;shape=mxgraph.flowchart.database;whiteSpace=wrap;" parent="txSXcNbZ7creqiaCZGTC-72" vertex="1">
          <mxGeometry width="160.3947368421053" height="222" as="geometry" />
        </mxCell>
        <mxCell id="txSXcNbZ7creqiaCZGTC-74" value="" style="shape=requiredInterface;html=1;verticalLabelPosition=bottom;sketch=0;" parent="txSXcNbZ7creqiaCZGTC-72" vertex="1">
          <mxGeometry x="158.21052631578948" y="59.84347826086957" width="55.78947368421053" height="119.68695652173913" as="geometry" />
        </mxCell>
        <mxCell id="txSXcNbZ7creqiaCZGTC-75" value="" style="group;fillColor=#e3c800;fontColor=#000000;strokeColor=#B09500;" parent="txSXcNbZ7creqiaCZGTC-72" vertex="1" connectable="0">
          <mxGeometry x="30.19999999999999" y="17" width="91.5" height="39" as="geometry" />
        </mxCell>
        <mxCell id="txSXcNbZ7creqiaCZGTC-76" value="" style="verticalLabelPosition=bottom;verticalAlign=top;html=1;shape=mxgraph.basic.rect;fillColor2=none;strokeWidth=1;size=20;indent=5;" parent="txSXcNbZ7creqiaCZGTC-75" vertex="1">
          <mxGeometry width="91.5" height="39" as="geometry" />
        </mxCell>
        <mxCell id="txSXcNbZ7creqiaCZGTC-77" value="6" style="text;align=center;fontStyle=1;verticalAlign=middle;spacingLeft=3;spacingRight=3;strokeColor=none;rotatable=0;points=[[0,0.5],[1,0.5]];portConstraint=eastwest;html=1;" parent="txSXcNbZ7creqiaCZGTC-75" vertex="1">
          <mxGeometry x="3" y="4" width="85.5" height="31" as="geometry" />
        </mxCell>
        <mxCell id="txSXcNbZ7creqiaCZGTC-78" value="Зелёный" style="strokeWidth=2;html=1;shape=mxgraph.flowchart.merge_or_storage;whiteSpace=wrap;fillColor=#6d8764;fontColor=#ffffff;strokeColor=#3A5431;" parent="txSXcNbZ7creqiaCZGTC-72" vertex="1">
          <mxGeometry x="35" y="126" width="100" height="58" as="geometry" />
        </mxCell>
        <mxCell id="txSXcNbZ7creqiaCZGTC-99" value="" style="group" parent="1" vertex="1" connectable="0">
          <mxGeometry x="-322" y="-668" width="215" height="222" as="geometry" />
        </mxCell>
        <mxCell id="txSXcNbZ7creqiaCZGTC-20" value="&lt;font style=&quot;font-size: 17px;&quot;&gt;Цейлон&lt;/font&gt;" style="strokeWidth=2;html=1;shape=mxgraph.flowchart.database;whiteSpace=wrap;" parent="txSXcNbZ7creqiaCZGTC-99" vertex="1">
          <mxGeometry width="160.3947368421053" height="222" as="geometry" />
        </mxCell>
        <mxCell id="txSXcNbZ7creqiaCZGTC-21" value="" style="shape=requiredInterface;html=1;verticalLabelPosition=bottom;sketch=0;" parent="txSXcNbZ7creqiaCZGTC-99" vertex="1">
          <mxGeometry x="159.21" y="59" width="55.79" height="120.53" as="geometry" />
        </mxCell>
        <mxCell id="txSXcNbZ7creqiaCZGTC-22" value="" style="group;fillColor=#e3c800;fontColor=#000000;strokeColor=#B09500;" parent="txSXcNbZ7creqiaCZGTC-99" vertex="1" connectable="0">
          <mxGeometry x="30.19999999999999" y="17" width="91.5" height="39" as="geometry" />
        </mxCell>
        <mxCell id="txSXcNbZ7creqiaCZGTC-23" value="" style="verticalLabelPosition=bottom;verticalAlign=top;html=1;shape=mxgraph.basic.rect;fillColor2=none;strokeWidth=1;size=20;indent=5;" parent="txSXcNbZ7creqiaCZGTC-22" vertex="1">
          <mxGeometry width="91.5" height="39" as="geometry" />
        </mxCell>
        <mxCell id="txSXcNbZ7creqiaCZGTC-24" value="4" style="text;align=center;fontStyle=1;verticalAlign=middle;spacingLeft=3;spacingRight=3;strokeColor=none;rotatable=0;points=[[0,0.5],[1,0.5]];portConstraint=eastwest;html=1;" parent="txSXcNbZ7creqiaCZGTC-22" vertex="1">
          <mxGeometry x="3" y="4" width="85.5" height="31" as="geometry" />
        </mxCell>
        <mxCell id="txSXcNbZ7creqiaCZGTC-25" value="Чёрный" style="strokeWidth=2;html=1;shape=mxgraph.flowchart.merge_or_storage;whiteSpace=wrap;fillColor=#647687;fontColor=#ffffff;strokeColor=#314354;" parent="txSXcNbZ7creqiaCZGTC-99" vertex="1">
          <mxGeometry x="35" y="126" width="100" height="58" as="geometry" />
        </mxCell>
        <mxCell id="txSXcNbZ7creqiaCZGTC-100" value="&lt;font style=&quot;font-size: 40px;&quot;&gt;ЧАЙ | ВИДЫ ЧАЯ&lt;/font&gt;" style="text;align=center;fontStyle=1;verticalAlign=middle;spacingLeft=3;spacingRight=3;strokeColor=none;rotatable=0;points=[[0,0.5],[1,0.5]];portConstraint=eastwest;html=1;" parent="1" vertex="1">
          <mxGeometry x="-137" y="-846" width="369" height="141" as="geometry" />
        </mxCell>
        <mxCell id="8zY6w5nHYSyDwL4ewkXp-12" value="" style="group" parent="1" vertex="1" connectable="0">
          <mxGeometry x="-580" y="-676.69" width="216" height="230.69000000000005" as="geometry" />
        </mxCell>
        <mxCell id="txSXcNbZ7creqiaCZGTC-13" value="&lt;font style=&quot;font-size: 18px;&quot;&gt;Дарджилинг&lt;/font&gt;" style="strokeWidth=2;html=1;shape=mxgraph.flowchart.database;whiteSpace=wrap;" parent="8zY6w5nHYSyDwL4ewkXp-12" vertex="1">
          <mxGeometry width="160.3947368421053" height="222" as="geometry" />
        </mxCell>
        <mxCell id="txSXcNbZ7creqiaCZGTC-14" value="" style="shape=requiredInterface;html=1;verticalLabelPosition=bottom;sketch=0;" parent="8zY6w5nHYSyDwL4ewkXp-12" vertex="1">
          <mxGeometry x="160.21052631578948" y="59.84347826086957" width="55.78947368421053" height="119.68695652173913" as="geometry" />
        </mxCell>
        <mxCell id="txSXcNbZ7creqiaCZGTC-18" value="Чёрный" style="strokeWidth=2;html=1;shape=mxgraph.flowchart.merge_or_storage;whiteSpace=wrap;fillColor=#647687;fontColor=#ffffff;strokeColor=#314354;" parent="8zY6w5nHYSyDwL4ewkXp-12" vertex="1">
          <mxGeometry x="35" y="126" width="100" height="58" as="geometry" />
        </mxCell>
        <mxCell id="txSXcNbZ7creqiaCZGTC-16" value="" style="group" parent="8zY6w5nHYSyDwL4ewkXp-12" vertex="1" connectable="0">
          <mxGeometry x="4" y="5.5067062021407764e-14" width="212" height="222" as="geometry" />
        </mxCell>
        <mxCell id="wdU4WR_uaWJgmH3k8_aH-6" value="" style="group;fillColor=#e3c800;fontColor=#000000;strokeColor=#B09500;" parent="txSXcNbZ7creqiaCZGTC-16" vertex="1" connectable="0">
          <mxGeometry x="30.19999999999999" y="17" width="91.5" height="39" as="geometry" />
        </mxCell>
        <mxCell id="wdU4WR_uaWJgmH3k8_aH-4" value="" style="verticalLabelPosition=bottom;verticalAlign=top;html=1;shape=mxgraph.basic.rect;fillColor2=none;strokeWidth=1;size=20;indent=5;" parent="wdU4WR_uaWJgmH3k8_aH-6" vertex="1">
          <mxGeometry width="91.5" height="39" as="geometry" />
        </mxCell>
        <mxCell id="wdU4WR_uaWJgmH3k8_aH-5" value="1" style="text;align=center;fontStyle=1;verticalAlign=middle;spacingLeft=3;spacingRight=3;strokeColor=none;rotatable=0;points=[[0,0.5],[1,0.5]];portConstraint=eastwest;html=1;" parent="wdU4WR_uaWJgmH3k8_aH-6" vertex="1">
          <mxGeometry x="3" y="4" width="85.5" height="31" as="geometry" />
        </mxCell>
        <mxCell id="8zY6w5nHYSyDwL4ewkXp-21" value="" style="group" parent="1" vertex="1" connectable="0">
          <mxGeometry x="-86" y="-440" width="215" height="222" as="geometry" />
        </mxCell>
        <mxCell id="8zY6w5nHYSyDwL4ewkXp-22" value="&lt;font style=&quot;font-size: 17px;&quot;&gt;Ройбуш&lt;/font&gt;" style="strokeWidth=2;html=1;shape=mxgraph.flowchart.database;whiteSpace=wrap;" parent="8zY6w5nHYSyDwL4ewkXp-21" vertex="1">
          <mxGeometry width="160.3947368421053" height="222" as="geometry" />
        </mxCell>
        <mxCell id="8zY6w5nHYSyDwL4ewkXp-23" value="" style="shape=requiredInterface;html=1;verticalLabelPosition=bottom;sketch=0;" parent="8zY6w5nHYSyDwL4ewkXp-21" vertex="1">
          <mxGeometry x="159.21" y="59" width="55.79" height="120.53" as="geometry" />
        </mxCell>
        <mxCell id="8zY6w5nHYSyDwL4ewkXp-24" value="" style="group;fillColor=#e3c800;fontColor=#000000;strokeColor=#B09500;" parent="8zY6w5nHYSyDwL4ewkXp-21" vertex="1" connectable="0">
          <mxGeometry x="30.19999999999999" y="17" width="91.5" height="39" as="geometry" />
        </mxCell>
        <mxCell id="8zY6w5nHYSyDwL4ewkXp-25" value="" style="verticalLabelPosition=bottom;verticalAlign=top;html=1;shape=mxgraph.basic.rect;fillColor2=none;strokeWidth=1;size=20;indent=5;" parent="8zY6w5nHYSyDwL4ewkXp-24" vertex="1">
          <mxGeometry width="91.5" height="39" as="geometry" />
        </mxCell>
        <mxCell id="8zY6w5nHYSyDwL4ewkXp-26" value="8" style="text;align=center;fontStyle=1;verticalAlign=middle;spacingLeft=3;spacingRight=3;strokeColor=none;rotatable=0;points=[[0,0.5],[1,0.5]];portConstraint=eastwest;html=1;" parent="8zY6w5nHYSyDwL4ewkXp-24" vertex="1">
          <mxGeometry x="3" y="4" width="85.5" height="31" as="geometry" />
        </mxCell>
        <mxCell id="8zY6w5nHYSyDwL4ewkXp-27" value="Травяной" style="strokeWidth=2;html=1;shape=mxgraph.flowchart.merge_or_storage;whiteSpace=wrap;fillColor=#B9E0A5;fontColor=#ffffff;strokeColor=#314354;" parent="8zY6w5nHYSyDwL4ewkXp-21" vertex="1">
          <mxGeometry x="35" y="126" width="100" height="58" as="geometry" />
        </mxCell>
        <mxCell id="8zY6w5nHYSyDwL4ewkXp-28" value="" style="group" parent="1" vertex="1" connectable="0">
          <mxGeometry x="-36" y="-893.5" width="380" height="444" as="geometry" />
        </mxCell>
        <mxCell id="txSXcNbZ7creqiaCZGTC-56" value="" style="group" parent="8zY6w5nHYSyDwL4ewkXp-28" vertex="1" connectable="0">
          <mxGeometry x="-47" y="215" width="212" height="222" as="geometry" />
        </mxCell>
        <mxCell id="txSXcNbZ7creqiaCZGTC-98" value="" style="group" parent="txSXcNbZ7creqiaCZGTC-56" vertex="1" connectable="0">
          <mxGeometry x="-11" y="7" width="214" height="222" as="geometry" />
        </mxCell>
        <mxCell id="txSXcNbZ7creqiaCZGTC-57" value="&lt;font style=&quot;font-size: 18px;&quot;&gt;Улун&lt;/font&gt;" style="strokeWidth=2;html=1;shape=mxgraph.flowchart.database;whiteSpace=wrap;" parent="txSXcNbZ7creqiaCZGTC-98" vertex="1">
          <mxGeometry width="160.3947368421053" height="222" as="geometry" />
        </mxCell>
        <mxCell id="txSXcNbZ7creqiaCZGTC-58" value="" style="shape=requiredInterface;html=1;verticalLabelPosition=bottom;sketch=0;" parent="txSXcNbZ7creqiaCZGTC-98" vertex="1">
          <mxGeometry x="158.21052631578948" y="59.84347826086957" width="55.78947368421053" height="119.68695652173913" as="geometry" />
        </mxCell>
        <mxCell id="txSXcNbZ7creqiaCZGTC-59" value="" style="group;fillColor=#e3c800;fontColor=#000000;strokeColor=#B09500;" parent="txSXcNbZ7creqiaCZGTC-98" vertex="1" connectable="0">
          <mxGeometry x="30.19999999999999" y="17" width="91.5" height="39" as="geometry" />
        </mxCell>
        <mxCell id="txSXcNbZ7creqiaCZGTC-60" value="" style="verticalLabelPosition=bottom;verticalAlign=top;html=1;shape=mxgraph.basic.rect;fillColor2=none;strokeWidth=1;size=20;indent=5;" parent="txSXcNbZ7creqiaCZGTC-59" vertex="1">
          <mxGeometry width="91.5" height="39" as="geometry" />
        </mxCell>
        <mxCell id="txSXcNbZ7creqiaCZGTC-61" value="7" style="text;align=center;fontStyle=1;verticalAlign=middle;spacingLeft=3;spacingRight=3;strokeColor=none;rotatable=0;points=[[0,0.5],[1,0.5]];portConstraint=eastwest;html=1;" parent="txSXcNbZ7creqiaCZGTC-59" vertex="1">
          <mxGeometry x="3" y="4" width="85.5" height="31" as="geometry" />
        </mxCell>
        <mxCell id="txSXcNbZ7creqiaCZGTC-62" value="Улун" style="strokeWidth=2;html=1;shape=mxgraph.flowchart.merge_or_storage;whiteSpace=wrap;fillColor=#2C5700;fontColor=#ffffff;strokeColor=#3A5431;" parent="txSXcNbZ7creqiaCZGTC-98" vertex="1">
          <mxGeometry x="35" y="126" width="100" height="58" as="geometry" />
        </mxCell>
        <mxCell id="txSXcNbZ7creqiaCZGTC-86" value="" style="group" parent="8zY6w5nHYSyDwL4ewkXp-28" vertex="1" connectable="0">
          <mxGeometry x="168" y="222" width="212" height="222" as="geometry" />
        </mxCell>
        <mxCell id="txSXcNbZ7creqiaCZGTC-87" value="&lt;p style=&quot;white-space-collapse: preserve;&quot; dir=&quot;auto&quot;&gt;&lt;font style=&quot;font-size: 18px;&quot;&gt;Бай Му Дань&lt;/font&gt;&lt;/p&gt;" style="strokeWidth=2;html=1;shape=mxgraph.flowchart.database;whiteSpace=wrap;" parent="txSXcNbZ7creqiaCZGTC-86" vertex="1">
          <mxGeometry width="160.3947368421053" height="222" as="geometry" />
        </mxCell>
        <mxCell id="txSXcNbZ7creqiaCZGTC-88" value="" style="shape=requiredInterface;html=1;verticalLabelPosition=bottom;sketch=0;" parent="txSXcNbZ7creqiaCZGTC-86" vertex="1">
          <mxGeometry x="159.21052631578948" y="59.84347826086957" width="55.78947368421053" height="119.68695652173913" as="geometry" />
        </mxCell>
        <mxCell id="txSXcNbZ7creqiaCZGTC-89" value="" style="group;fillColor=#e3c800;fontColor=#000000;strokeColor=#B09500;" parent="txSXcNbZ7creqiaCZGTC-86" vertex="1" connectable="0">
          <mxGeometry x="30.19999999999999" y="17" width="91.5" height="39" as="geometry" />
        </mxCell>
        <mxCell id="txSXcNbZ7creqiaCZGTC-90" value="" style="verticalLabelPosition=bottom;verticalAlign=top;html=1;shape=mxgraph.basic.rect;fillColor2=none;strokeWidth=1;size=20;indent=5;" parent="txSXcNbZ7creqiaCZGTC-89" vertex="1">
          <mxGeometry width="91.5" height="39" as="geometry" />
        </mxCell>
        <mxCell id="txSXcNbZ7creqiaCZGTC-91" value="10" style="text;align=center;fontStyle=1;verticalAlign=middle;spacingLeft=3;spacingRight=3;strokeColor=none;rotatable=0;points=[[0,0.5],[1,0.5]];portConstraint=eastwest;html=1;" parent="txSXcNbZ7creqiaCZGTC-89" vertex="1">
          <mxGeometry x="3" y="4" width="85.5" height="31" as="geometry" />
        </mxCell>
        <mxCell id="txSXcNbZ7creqiaCZGTC-92" value="Белый" style="strokeWidth=2;html=1;shape=mxgraph.flowchart.merge_or_storage;whiteSpace=wrap;fillColor=#f5f5f5;fontColor=#333333;strokeColor=#666666;" parent="txSXcNbZ7creqiaCZGTC-86" vertex="1">
          <mxGeometry x="35" y="126" width="100" height="58" as="geometry" />
        </mxCell>
        <mxCell id="8zY6w5nHYSyDwL4ewkXp-35" value="" style="group" parent="1" vertex="1" connectable="0">
          <mxGeometry x="-100" y="-211" width="215" height="222" as="geometry" />
        </mxCell>
        <mxCell id="8zY6w5nHYSyDwL4ewkXp-36" value="&lt;p style=&quot;white-space-collapse: preserve;&quot; dir=&quot;auto&quot;&gt;&lt;font style=&quot;font-size: 18px;&quot;&gt;Лапсанг Сушонг&lt;/font&gt;&lt;/p&gt;" style="strokeWidth=2;html=1;shape=mxgraph.flowchart.database;whiteSpace=wrap;" parent="8zY6w5nHYSyDwL4ewkXp-35" vertex="1">
          <mxGeometry width="160.3947368421053" height="222" as="geometry" />
        </mxCell>
        <mxCell id="8zY6w5nHYSyDwL4ewkXp-37" value="" style="shape=requiredInterface;html=1;verticalLabelPosition=bottom;sketch=0;" parent="8zY6w5nHYSyDwL4ewkXp-35" vertex="1">
          <mxGeometry x="159.21" y="59" width="55.79" height="120.53" as="geometry" />
        </mxCell>
        <mxCell id="8zY6w5nHYSyDwL4ewkXp-38" value="" style="group;fillColor=#e3c800;fontColor=#000000;strokeColor=#B09500;" parent="8zY6w5nHYSyDwL4ewkXp-35" vertex="1" connectable="0">
          <mxGeometry x="30.19999999999999" y="17" width="91.5" height="39" as="geometry" />
        </mxCell>
        <mxCell id="8zY6w5nHYSyDwL4ewkXp-39" value="" style="verticalLabelPosition=bottom;verticalAlign=top;html=1;shape=mxgraph.basic.rect;fillColor2=none;strokeWidth=1;size=20;indent=5;" parent="8zY6w5nHYSyDwL4ewkXp-38" vertex="1">
          <mxGeometry width="91.5" height="39" as="geometry" />
        </mxCell>
        <mxCell id="8zY6w5nHYSyDwL4ewkXp-40" value="9" style="text;align=center;fontStyle=1;verticalAlign=middle;spacingLeft=3;spacingRight=3;strokeColor=none;rotatable=0;points=[[0,0.5],[1,0.5]];portConstraint=eastwest;html=1;" parent="8zY6w5nHYSyDwL4ewkXp-38" vertex="1">
          <mxGeometry x="3" y="4" width="85.5" height="31" as="geometry" />
        </mxCell>
        <mxCell id="8zY6w5nHYSyDwL4ewkXp-41" value="Чёрный" style="strokeWidth=2;html=1;shape=mxgraph.flowchart.merge_or_storage;whiteSpace=wrap;fillColor=#647687;fontColor=#ffffff;strokeColor=#314354;" parent="8zY6w5nHYSyDwL4ewkXp-35" vertex="1">
          <mxGeometry x="35" y="126" width="100" height="58" as="geometry" />
        </mxCell>
      </root>
    </mxGraphModel>
  </diagram>
  <diagram id="Ls13-mRauUfaOg5uhRN-" name="FriendOf">
    <mxGraphModel dx="3453" dy="1833" grid="0" gridSize="10" guides="1" tooltips="1" connect="1" arrows="1" fold="1" page="0" pageScale="1" pageWidth="827" pageHeight="1169" math="0" shadow="0">
      <root>
        <mxCell id="0" />
        <mxCell id="1" parent="0" />
        <mxCell id="NbB6sRpKAezUacNGk5aw-1" value="" style="group" vertex="1" connectable="0" parent="1">
          <mxGeometry x="-678" y="20" width="80" height="146" as="geometry" />
        </mxCell>
        <mxCell id="NbB6sRpKAezUacNGk5aw-2" value="&lt;div&gt;&lt;span style=&quot;text-align: left; text-wrap-mode: wrap;&quot;&gt;&lt;b&gt;Алексей&lt;/b&gt;&lt;/span&gt;&lt;/div&gt;" style="shape=umlActor;verticalLabelPosition=bottom;verticalAlign=top;html=1;fontSize=15;" vertex="1" parent="NbB6sRpKAezUacNGk5aw-1">
          <mxGeometry width="80" height="146" as="geometry" />
        </mxCell>
        <mxCell id="NbB6sRpKAezUacNGk5aw-3" value="1" style="text;html=1;align=center;verticalAlign=middle;whiteSpace=wrap;rounded=0;" vertex="1" parent="NbB6sRpKAezUacNGk5aw-1">
          <mxGeometry x="10" y="4" width="60" height="30" as="geometry" />
        </mxCell>
        <mxCell id="NbB6sRpKAezUacNGk5aw-4" value="" style="group" vertex="1" connectable="0" parent="1">
          <mxGeometry x="-252" y="-535" width="80" height="146" as="geometry" />
        </mxCell>
        <mxCell id="NbB6sRpKAezUacNGk5aw-5" value="&lt;p style=&quot;white-space: pre-wrap;&quot; dir=&quot;auto&quot;&gt;&lt;b&gt;Мария&lt;/b&gt;&lt;/p&gt;" style="shape=umlActor;verticalLabelPosition=bottom;verticalAlign=top;html=1;fontSize=15;" vertex="1" parent="NbB6sRpKAezUacNGk5aw-4">
          <mxGeometry width="80" height="146" as="geometry" />
        </mxCell>
        <mxCell id="NbB6sRpKAezUacNGk5aw-6" value="2&lt;span style=&quot;color: rgba(0, 0, 0, 0); font-family: monospace; font-size: 0px; text-align: start; text-wrap-mode: nowrap;&quot;&gt;%3CmxGraphModel%3E%3Croot%3E%3CmxCell%20id%3D%220%22%2F%3E%3CmxCell%20id%3D%221%22%20parent%3D%220%22%2F%3E%3CmxCell%20id%3D%222%22%20value%3D%221%22%20style%3D%22text%3Bhtml%3D1%3Balign%3Dcenter%3BverticalAlign%3Dmiddle%3BwhiteSpace%3Dwrap%3Brounded%3D0%3B%22%20vertex%3D%221%22%20parent%3D%221%22%3E%3CmxGeometry%20x%3D%22-265%22%20y%3D%22-197%22%20width%3D%2260%22%20height%3D%2230%22%20as%3D%22geometry%22%2F%3E%3C%2FmxCell%3E%3C%2Froot%3E%3C%2FmxGraphModel%3E&lt;/span&gt;" style="text;html=1;align=center;verticalAlign=middle;whiteSpace=wrap;rounded=0;" vertex="1" parent="NbB6sRpKAezUacNGk5aw-4">
          <mxGeometry x="10" y="4" width="60" height="30" as="geometry" />
        </mxCell>
        <mxCell id="NbB6sRpKAezUacNGk5aw-7" value="" style="group" vertex="1" connectable="0" parent="1">
          <mxGeometry x="292" y="-566" width="80" height="146" as="geometry" />
        </mxCell>
        <mxCell id="NbB6sRpKAezUacNGk5aw-8" value="&lt;div&gt;&lt;span style=&quot;text-wrap-mode: wrap;&quot;&gt;&lt;b&gt;Дмитрий&lt;/b&gt;&lt;/span&gt;&lt;/div&gt;" style="shape=umlActor;verticalLabelPosition=bottom;verticalAlign=top;html=1;fontSize=15;" vertex="1" parent="NbB6sRpKAezUacNGk5aw-7">
          <mxGeometry width="80" height="146" as="geometry" />
        </mxCell>
        <mxCell id="NbB6sRpKAezUacNGk5aw-9" value="3" style="text;html=1;align=center;verticalAlign=middle;whiteSpace=wrap;rounded=0;" vertex="1" parent="NbB6sRpKAezUacNGk5aw-7">
          <mxGeometry x="10" y="4" width="60" height="30" as="geometry" />
        </mxCell>
        <mxCell id="NbB6sRpKAezUacNGk5aw-10" value="" style="group" vertex="1" connectable="0" parent="1">
          <mxGeometry x="-80" y="-476" width="80" height="146" as="geometry" />
        </mxCell>
        <mxCell id="NbB6sRpKAezUacNGk5aw-11" value="&lt;div&gt;&lt;span style=&quot;text-wrap-mode: wrap;&quot;&gt;&lt;b&gt;Екатерина&lt;/b&gt;&lt;/span&gt;&lt;/div&gt;" style="shape=umlActor;verticalLabelPosition=bottom;verticalAlign=top;html=1;fontSize=15;" vertex="1" parent="NbB6sRpKAezUacNGk5aw-10">
          <mxGeometry width="80" height="146" as="geometry" />
        </mxCell>
        <mxCell id="NbB6sRpKAezUacNGk5aw-12" value="4" style="text;html=1;align=center;verticalAlign=middle;whiteSpace=wrap;rounded=0;" vertex="1" parent="NbB6sRpKAezUacNGk5aw-10">
          <mxGeometry x="10" y="4" width="60" height="30" as="geometry" />
        </mxCell>
        <mxCell id="NbB6sRpKAezUacNGk5aw-16" value="" style="group" vertex="1" connectable="0" parent="1">
          <mxGeometry x="301" y="-65" width="80" height="146" as="geometry" />
        </mxCell>
        <mxCell id="NbB6sRpKAezUacNGk5aw-17" value="&lt;span style=&quot;text-wrap-mode: wrap;&quot;&gt;&lt;b&gt;Анастасия&lt;/b&gt;&lt;/span&gt;" style="shape=umlActor;verticalLabelPosition=bottom;verticalAlign=top;html=1;fontSize=15;" vertex="1" parent="NbB6sRpKAezUacNGk5aw-16">
          <mxGeometry width="80" height="146" as="geometry" />
        </mxCell>
        <mxCell id="NbB6sRpKAezUacNGk5aw-18" value="6" style="text;html=1;align=center;verticalAlign=middle;whiteSpace=wrap;rounded=0;" vertex="1" parent="NbB6sRpKAezUacNGk5aw-16">
          <mxGeometry x="10" y="4" width="60" height="30" as="geometry" />
        </mxCell>
        <mxCell id="NbB6sRpKAezUacNGk5aw-19" value="" style="group" vertex="1" connectable="0" parent="1">
          <mxGeometry x="29" y="-347" width="80" height="146" as="geometry" />
        </mxCell>
        <mxCell id="NbB6sRpKAezUacNGk5aw-20" value="&lt;div&gt;&lt;span style=&quot;text-wrap-mode: wrap;&quot;&gt;&lt;b&gt;Игорь&lt;/b&gt;&lt;/span&gt;&lt;/div&gt;" style="shape=umlActor;verticalLabelPosition=bottom;verticalAlign=top;html=1;fontSize=15;" vertex="1" parent="NbB6sRpKAezUacNGk5aw-19">
          <mxGeometry width="80" height="146" as="geometry" />
        </mxCell>
        <mxCell id="NbB6sRpKAezUacNGk5aw-21" value="7" style="text;html=1;align=center;verticalAlign=middle;whiteSpace=wrap;rounded=0;" vertex="1" parent="NbB6sRpKAezUacNGk5aw-19">
          <mxGeometry x="10" y="4" width="60" height="30" as="geometry" />
        </mxCell>
        <mxCell id="NbB6sRpKAezUacNGk5aw-25" value="" style="group" vertex="1" connectable="0" parent="1">
          <mxGeometry x="-389" y="-168" width="72" height="146" as="geometry" />
        </mxCell>
        <mxCell id="NbB6sRpKAezUacNGk5aw-26" value="&lt;b&gt;Владимир&lt;/b&gt;" style="shape=umlActor;verticalLabelPosition=bottom;verticalAlign=top;html=1;fontSize=15;" vertex="1" parent="NbB6sRpKAezUacNGk5aw-25">
          <mxGeometry width="72" height="146" as="geometry" />
        </mxCell>
        <mxCell id="NbB6sRpKAezUacNGk5aw-27" value="9" style="text;html=1;align=center;verticalAlign=middle;whiteSpace=wrap;rounded=0;" vertex="1" parent="NbB6sRpKAezUacNGk5aw-25">
          <mxGeometry x="6" y="4" width="60" height="30" as="geometry" />
        </mxCell>
        <mxCell id="NbB6sRpKAezUacNGk5aw-28" value="" style="group" vertex="1" connectable="0" parent="1">
          <mxGeometry x="-228" y="-168" width="80" height="146" as="geometry" />
        </mxCell>
        <mxCell id="NbB6sRpKAezUacNGk5aw-29" value="&lt;div style=&quot;&quot;&gt;&lt;span style=&quot;text-wrap-mode: wrap;&quot;&gt;&lt;b&gt;Юлия&lt;/b&gt;&lt;/span&gt;&lt;/div&gt;" style="shape=umlActor;verticalLabelPosition=bottom;verticalAlign=top;html=1;fontSize=15;align=center;" vertex="1" parent="NbB6sRpKAezUacNGk5aw-28">
          <mxGeometry width="80" height="146" as="geometry" />
        </mxCell>
        <mxCell id="NbB6sRpKAezUacNGk5aw-30" value="10" style="text;html=1;align=center;verticalAlign=middle;whiteSpace=wrap;rounded=0;" vertex="1" parent="NbB6sRpKAezUacNGk5aw-28">
          <mxGeometry x="10" y="4" width="60" height="30" as="geometry" />
        </mxCell>
        <mxCell id="NbB6sRpKAezUacNGk5aw-35" style="edgeStyle=orthogonalEdgeStyle;rounded=0;orthogonalLoop=1;jettySize=auto;html=1;exitX=0;exitY=1;exitDx=0;exitDy=0;exitPerimeter=0;entryX=0;entryY=0.3333333333333333;entryDx=0;entryDy=0;entryPerimeter=0;" edge="1" parent="1" source="NbB6sRpKAezUacNGk5aw-2" target="NbB6sRpKAezUacNGk5aw-5">
          <mxGeometry relative="1" as="geometry">
            <Array as="points">
              <mxPoint x="-678" y="171" />
              <mxPoint x="-701" y="171" />
              <mxPoint x="-701" y="-486" />
            </Array>
          </mxGeometry>
        </mxCell>
        <mxCell id="NbB6sRpKAezUacNGk5aw-39" style="edgeStyle=orthogonalEdgeStyle;rounded=0;orthogonalLoop=1;jettySize=auto;html=1;exitX=0.5;exitY=0.5;exitDx=0;exitDy=0;exitPerimeter=0;entryX=0.5;entryY=0.5;entryDx=0;entryDy=0;entryPerimeter=0;" edge="1" parent="1" source="NbB6sRpKAezUacNGk5aw-2" target="NbB6sRpKAezUacNGk5aw-14">
          <mxGeometry relative="1" as="geometry">
            <Array as="points">
              <mxPoint x="-638" y="79" />
              <mxPoint x="-602" y="79" />
            </Array>
          </mxGeometry>
        </mxCell>
        <mxCell id="NbB6sRpKAezUacNGk5aw-40" style="edgeStyle=orthogonalEdgeStyle;rounded=0;orthogonalLoop=1;jettySize=auto;html=1;entryX=0;entryY=0.3333333333333333;entryDx=0;entryDy=0;entryPerimeter=0;exitX=1;exitY=0.3333333333333333;exitDx=0;exitDy=0;exitPerimeter=0;" edge="1" parent="1" source="NbB6sRpKAezUacNGk5aw-5" target="NbB6sRpKAezUacNGk5aw-8">
          <mxGeometry relative="1" as="geometry">
            <mxPoint x="-160" y="-487" as="sourcePoint" />
            <Array as="points">
              <mxPoint x="281" y="-486" />
              <mxPoint x="281" y="-517" />
            </Array>
          </mxGeometry>
        </mxCell>
        <mxCell id="NbB6sRpKAezUacNGk5aw-41" style="edgeStyle=orthogonalEdgeStyle;rounded=0;orthogonalLoop=1;jettySize=auto;html=1;entryX=1;entryY=1;entryDx=0;entryDy=0;entryPerimeter=0;exitX=1;exitY=0.3333333333333333;exitDx=0;exitDy=0;exitPerimeter=0;" edge="1" parent="1" source="NbB6sRpKAezUacNGk5aw-8" target="NbB6sRpKAezUacNGk5aw-2">
          <mxGeometry relative="1" as="geometry">
            <mxPoint x="898" y="-600" as="sourcePoint" />
            <Array as="points">
              <mxPoint x="523" y="-517" />
              <mxPoint x="523" y="190" />
              <mxPoint x="-598" y="190" />
            </Array>
          </mxGeometry>
        </mxCell>
        <mxCell id="NbB6sRpKAezUacNGk5aw-42" style="edgeStyle=orthogonalEdgeStyle;rounded=0;orthogonalLoop=1;jettySize=auto;html=1;exitX=0;exitY=1;exitDx=0;exitDy=0;exitPerimeter=0;entryX=0.5;entryY=0;entryDx=0;entryDy=0;" edge="1" parent="1" source="NbB6sRpKAezUacNGk5aw-8" target="NbB6sRpKAezUacNGk5aw-18">
          <mxGeometry relative="1" as="geometry">
            <Array as="points">
              <mxPoint x="292" y="-153" />
              <mxPoint x="341" y="-153" />
            </Array>
          </mxGeometry>
        </mxCell>
        <mxCell id="NbB6sRpKAezUacNGk5aw-43" style="edgeStyle=orthogonalEdgeStyle;rounded=0;orthogonalLoop=1;jettySize=auto;html=1;exitX=0.5;exitY=0.5;exitDx=0;exitDy=0;exitPerimeter=0;entryX=1;entryY=1;entryDx=0;entryDy=0;entryPerimeter=0;" edge="1" parent="1" source="NbB6sRpKAezUacNGk5aw-11" target="NbB6sRpKAezUacNGk5aw-5">
          <mxGeometry relative="1" as="geometry">
            <Array as="points">
              <mxPoint x="-172" y="-403" />
            </Array>
          </mxGeometry>
        </mxCell>
        <mxCell id="NbB6sRpKAezUacNGk5aw-44" style="edgeStyle=orthogonalEdgeStyle;rounded=0;orthogonalLoop=1;jettySize=auto;html=1;exitX=1;exitY=0.3333333333333333;exitDx=0;exitDy=0;exitPerimeter=0;entryX=1;entryY=1;entryDx=0;entryDy=0;entryPerimeter=0;" edge="1" parent="1" source="NbB6sRpKAezUacNGk5aw-14" target="NbB6sRpKAezUacNGk5aw-11">
          <mxGeometry relative="1" as="geometry">
            <Array as="points">
              <mxPoint x="-562" y="-264" />
              <mxPoint y="-264" />
            </Array>
          </mxGeometry>
        </mxCell>
        <mxCell id="NbB6sRpKAezUacNGk5aw-45" style="edgeStyle=orthogonalEdgeStyle;rounded=0;orthogonalLoop=1;jettySize=auto;html=1;exitX=0.5;exitY=0.5;exitDx=0;exitDy=0;exitPerimeter=0;entryX=1;entryY=1;entryDx=0;entryDy=0;entryPerimeter=0;" edge="1" parent="1" source="NbB6sRpKAezUacNGk5aw-17" target="NbB6sRpKAezUacNGk5aw-20">
          <mxGeometry relative="1" as="geometry" />
        </mxCell>
        <mxCell id="NbB6sRpKAezUacNGk5aw-47" style="edgeStyle=orthogonalEdgeStyle;rounded=0;orthogonalLoop=1;jettySize=auto;html=1;entryX=1;entryY=0.3333333333333333;entryDx=0;entryDy=0;entryPerimeter=0;exitX=0;exitY=1;exitDx=0;exitDy=0;exitPerimeter=0;" edge="1" parent="1" source="NbB6sRpKAezUacNGk5aw-17" target="NbB6sRpKAezUacNGk5aw-23">
          <mxGeometry relative="1" as="geometry">
            <mxPoint x="206" y="-25" as="sourcePoint" />
            <mxPoint x="-440" y="31" as="targetPoint" />
            <Array as="points">
              <mxPoint x="301" y="88" />
              <mxPoint x="-441" y="88" />
              <mxPoint x="-441" y="-56" />
            </Array>
          </mxGeometry>
        </mxCell>
        <mxCell id="NbB6sRpKAezUacNGk5aw-48" style="edgeStyle=orthogonalEdgeStyle;rounded=0;orthogonalLoop=1;jettySize=auto;html=1;exitX=0;exitY=1;exitDx=0;exitDy=0;exitPerimeter=0;entryX=0.5;entryY=0.5;entryDx=0;entryDy=0;entryPerimeter=0;" edge="1" parent="1" source="NbB6sRpKAezUacNGk5aw-23" target="NbB6sRpKAezUacNGk5aw-8">
          <mxGeometry relative="1" as="geometry">
            <mxPoint x="29" y="-394" as="targetPoint" />
            <Array as="points">
              <mxPoint x="-526" y="153" />
              <mxPoint x="496" y="153" />
              <mxPoint x="496" y="-493" />
            </Array>
          </mxGeometry>
        </mxCell>
        <mxCell id="NbB6sRpKAezUacNGk5aw-49" style="edgeStyle=orthogonalEdgeStyle;rounded=0;orthogonalLoop=1;jettySize=auto;html=1;exitX=0.5;exitY=0.5;exitDx=0;exitDy=0;exitPerimeter=0;entryX=0.5;entryY=0.5;entryDx=0;entryDy=0;entryPerimeter=0;" edge="1" parent="1" source="NbB6sRpKAezUacNGk5aw-26" target="NbB6sRpKAezUacNGk5aw-29">
          <mxGeometry relative="1" as="geometry">
            <Array as="points" />
          </mxGeometry>
        </mxCell>
        <mxCell id="NbB6sRpKAezUacNGk5aw-50" style="edgeStyle=orthogonalEdgeStyle;rounded=0;orthogonalLoop=1;jettySize=auto;html=1;exitX=0.75;exitY=0;exitDx=0;exitDy=0;entryX=0;entryY=1;entryDx=0;entryDy=0;entryPerimeter=0;" edge="1" parent="1" source="NbB6sRpKAezUacNGk5aw-30" target="NbB6sRpKAezUacNGk5aw-20">
          <mxGeometry relative="1" as="geometry">
            <Array as="points">
              <mxPoint x="-173" y="-167" />
              <mxPoint x="37" y="-167" />
              <mxPoint x="37" y="-201" />
            </Array>
          </mxGeometry>
        </mxCell>
        <mxCell id="NbB6sRpKAezUacNGk5aw-51" value="&lt;p dir=&quot;auto&quot; style=&quot;white-space: pre-wrap;&quot;&gt;&lt;font style=&quot;font-size: 48px;&quot;&gt;&lt;b&gt;FriendOf&lt;/b&gt;&lt;/font&gt;&lt;/p&gt;" style="text;whiteSpace=wrap;html=1;" vertex="1" parent="1">
          <mxGeometry x="-123.0000341796875" y="-622.9999951171875" width="75" height="60" as="geometry" />
        </mxCell>
        <mxCell id="NbB6sRpKAezUacNGk5aw-65" value="" style="group" vertex="1" connectable="0" parent="1">
          <mxGeometry x="-526" y="-105" width="80" height="146" as="geometry" />
        </mxCell>
        <mxCell id="NbB6sRpKAezUacNGk5aw-23" value="&lt;div&gt;&lt;span style=&quot;text-wrap-mode: wrap;&quot;&gt;&lt;b&gt;Ольга&lt;/b&gt;&lt;/span&gt;&lt;/div&gt;" style="shape=umlActor;verticalLabelPosition=bottom;verticalAlign=top;html=1;fontSize=15;" vertex="1" parent="NbB6sRpKAezUacNGk5aw-65">
          <mxGeometry width="80" height="146" as="geometry" />
        </mxCell>
        <mxCell id="NbB6sRpKAezUacNGk5aw-24" value="8" style="text;html=1;align=center;verticalAlign=middle;whiteSpace=wrap;rounded=0;" vertex="1" parent="NbB6sRpKAezUacNGk5aw-65">
          <mxGeometry x="10" width="60" height="30" as="geometry" />
        </mxCell>
        <mxCell id="NbB6sRpKAezUacNGk5aw-14" value="&lt;div&gt;&lt;span style=&quot;text-wrap-mode: wrap;&quot;&gt;&lt;b&gt;Сергей&lt;/b&gt;&lt;/span&gt;&lt;/div&gt;" style="shape=umlActor;verticalLabelPosition=bottom;verticalAlign=top;html=1;fontSize=15;" vertex="1" parent="1">
          <mxGeometry x="-642" y="-368" width="80" height="146" as="geometry" />
        </mxCell>
        <mxCell id="NbB6sRpKAezUacNGk5aw-15" value="5" style="text;html=1;align=center;verticalAlign=middle;whiteSpace=wrap;rounded=0;" vertex="1" parent="1">
          <mxGeometry x="-632" y="-362" width="60" height="30" as="geometry" />
        </mxCell>
      </root>
    </mxGraphModel>
  </diagram>
  <diagram id="m1fLbbRf11pYmJx1BVcO" name="LivesIn">
    <mxGraphModel dx="2484" dy="1433" grid="0" gridSize="10" guides="1" tooltips="1" connect="1" arrows="1" fold="1" page="0" pageScale="1" pageWidth="827" pageHeight="1169" math="0" shadow="0">
      <root>
        <mxCell id="0" />
        <mxCell id="1" parent="0" />
        <mxCell id="fr3Om99WPPqeKfT1G_qY-1" value="&lt;p dir=&quot;auto&quot; style=&quot;white-space: pre-wrap;&quot;&gt;&lt;font style=&quot;font-size: 48px;&quot;&gt;&lt;b&gt;LivesIn&lt;/b&gt;&lt;/font&gt;&lt;/p&gt;" style="text;whiteSpace=wrap;html=1;" vertex="1" parent="1">
          <mxGeometry x="-187.9999951028824" y="-390.0000048828125" width="66" height="60" as="geometry" />
        </mxCell>
        <mxCell id="O4cMRhhMM1LBw_Po3kbZ-1" value="" style="group" vertex="1" connectable="0" parent="1">
          <mxGeometry x="-810" y="238" width="80" height="146" as="geometry" />
        </mxCell>
        <mxCell id="O4cMRhhMM1LBw_Po3kbZ-2" value="&lt;div&gt;&lt;span style=&quot;text-align: left; text-wrap-mode: wrap;&quot;&gt;&lt;b&gt;Алексей&lt;/b&gt;&lt;/span&gt;&lt;/div&gt;" style="shape=umlActor;verticalLabelPosition=bottom;verticalAlign=top;html=1;fontSize=15;" vertex="1" parent="O4cMRhhMM1LBw_Po3kbZ-1">
          <mxGeometry width="80" height="146" as="geometry" />
        </mxCell>
        <mxCell id="O4cMRhhMM1LBw_Po3kbZ-3" value="1" style="text;html=1;align=center;verticalAlign=middle;whiteSpace=wrap;rounded=0;" vertex="1" parent="O4cMRhhMM1LBw_Po3kbZ-1">
          <mxGeometry x="10" y="4" width="60" height="30" as="geometry" />
        </mxCell>
        <mxCell id="O4cMRhhMM1LBw_Po3kbZ-4" value="" style="group" vertex="1" connectable="0" parent="1">
          <mxGeometry x="-174" y="-201" width="80" height="146" as="geometry" />
        </mxCell>
        <mxCell id="O4cMRhhMM1LBw_Po3kbZ-5" value="&lt;p style=&quot;white-space: pre-wrap;&quot; dir=&quot;auto&quot;&gt;&lt;b&gt;Мария&lt;/b&gt;&lt;/p&gt;" style="shape=umlActor;verticalLabelPosition=bottom;verticalAlign=top;html=1;fontSize=15;" vertex="1" parent="O4cMRhhMM1LBw_Po3kbZ-4">
          <mxGeometry width="80" height="146" as="geometry" />
        </mxCell>
        <mxCell id="O4cMRhhMM1LBw_Po3kbZ-6" value="2&lt;span style=&quot;color: rgba(0, 0, 0, 0); font-family: monospace; font-size: 0px; text-align: start; text-wrap-mode: nowrap;&quot;&gt;%3CmxGraphModel%3E%3Croot%3E%3CmxCell%20id%3D%220%22%2F%3E%3CmxCell%20id%3D%221%22%20parent%3D%220%22%2F%3E%3CmxCell%20id%3D%222%22%20value%3D%221%22%20style%3D%22text%3Bhtml%3D1%3Balign%3Dcenter%3BverticalAlign%3Dmiddle%3BwhiteSpace%3Dwrap%3Brounded%3D0%3B%22%20vertex%3D%221%22%20parent%3D%221%22%3E%3CmxGeometry%20x%3D%22-265%22%20y%3D%22-197%22%20width%3D%2260%22%20height%3D%2230%22%20as%3D%22geometry%22%2F%3E%3C%2FmxCell%3E%3C%2Froot%3E%3C%2FmxGraphModel%3E&lt;/span&gt;" style="text;html=1;align=center;verticalAlign=middle;whiteSpace=wrap;rounded=0;" vertex="1" parent="O4cMRhhMM1LBw_Po3kbZ-4">
          <mxGeometry x="10" y="4" width="60" height="30" as="geometry" />
        </mxCell>
        <mxCell id="O4cMRhhMM1LBw_Po3kbZ-7" value="" style="group" vertex="1" connectable="0" parent="1">
          <mxGeometry x="-333" y="273" width="80" height="146" as="geometry" />
        </mxCell>
        <mxCell id="QDpzkebW1qf2GLZ9lh2P-59" style="edgeStyle=orthogonalEdgeStyle;rounded=0;orthogonalLoop=1;jettySize=auto;html=1;exitX=0.5;exitY=0.5;exitDx=0;exitDy=0;exitPerimeter=0;" edge="1" parent="O4cMRhhMM1LBw_Po3kbZ-7" source="O4cMRhhMM1LBw_Po3kbZ-8">
          <mxGeometry relative="1" as="geometry">
            <mxPoint x="190.33331166373364" y="140.5777587890625" as="targetPoint" />
          </mxGeometry>
        </mxCell>
        <mxCell id="O4cMRhhMM1LBw_Po3kbZ-8" value="&lt;div&gt;&lt;span style=&quot;text-wrap-mode: wrap;&quot;&gt;&lt;b&gt;Дмитрий&lt;/b&gt;&lt;/span&gt;&lt;/div&gt;" style="shape=umlActor;verticalLabelPosition=bottom;verticalAlign=top;html=1;fontSize=15;" vertex="1" parent="O4cMRhhMM1LBw_Po3kbZ-7">
          <mxGeometry width="80" height="146" as="geometry" />
        </mxCell>
        <mxCell id="O4cMRhhMM1LBw_Po3kbZ-9" value="3" style="text;html=1;align=center;verticalAlign=middle;whiteSpace=wrap;rounded=0;" vertex="1" parent="O4cMRhhMM1LBw_Po3kbZ-7">
          <mxGeometry x="10" y="4" width="60" height="30" as="geometry" />
        </mxCell>
        <mxCell id="O4cMRhhMM1LBw_Po3kbZ-10" value="" style="group" vertex="1" connectable="0" parent="1">
          <mxGeometry x="-322" y="466" width="80" height="146" as="geometry" />
        </mxCell>
        <mxCell id="O4cMRhhMM1LBw_Po3kbZ-11" value="&lt;div&gt;&lt;span style=&quot;text-wrap-mode: wrap;&quot;&gt;&lt;b&gt;Екатерина&lt;/b&gt;&lt;/span&gt;&lt;/div&gt;" style="shape=umlActor;verticalLabelPosition=bottom;verticalAlign=top;html=1;fontSize=15;" vertex="1" parent="O4cMRhhMM1LBw_Po3kbZ-10">
          <mxGeometry width="80" height="146" as="geometry" />
        </mxCell>
        <mxCell id="O4cMRhhMM1LBw_Po3kbZ-12" value="4" style="text;html=1;align=center;verticalAlign=middle;whiteSpace=wrap;rounded=0;" vertex="1" parent="O4cMRhhMM1LBw_Po3kbZ-10">
          <mxGeometry x="10" y="4" width="60" height="30" as="geometry" />
        </mxCell>
        <mxCell id="O4cMRhhMM1LBw_Po3kbZ-13" value="" style="group" vertex="1" connectable="0" parent="1">
          <mxGeometry x="-656" y="437" width="80" height="146" as="geometry" />
        </mxCell>
        <mxCell id="O4cMRhhMM1LBw_Po3kbZ-14" value="&lt;div&gt;&lt;span style=&quot;text-wrap-mode: wrap;&quot;&gt;&lt;b&gt;Сергей&lt;/b&gt;&lt;/span&gt;&lt;/div&gt;" style="shape=umlActor;verticalLabelPosition=bottom;verticalAlign=top;html=1;fontSize=15;" vertex="1" parent="O4cMRhhMM1LBw_Po3kbZ-13">
          <mxGeometry width="80" height="146" as="geometry" />
        </mxCell>
        <mxCell id="O4cMRhhMM1LBw_Po3kbZ-15" value="5" style="text;html=1;align=center;verticalAlign=middle;whiteSpace=wrap;rounded=0;" vertex="1" parent="O4cMRhhMM1LBw_Po3kbZ-13">
          <mxGeometry x="10" y="4" width="60" height="30" as="geometry" />
        </mxCell>
        <mxCell id="O4cMRhhMM1LBw_Po3kbZ-19" value="" style="group" vertex="1" connectable="0" parent="1">
          <mxGeometry x="-915" y="-6" width="80" height="146" as="geometry" />
        </mxCell>
        <mxCell id="O4cMRhhMM1LBw_Po3kbZ-20" value="&lt;div&gt;&lt;span style=&quot;text-wrap-mode: wrap;&quot;&gt;&lt;b&gt;Игорь&lt;/b&gt;&lt;/span&gt;&lt;/div&gt;" style="shape=umlActor;verticalLabelPosition=bottom;verticalAlign=top;html=1;fontSize=15;" vertex="1" parent="O4cMRhhMM1LBw_Po3kbZ-19">
          <mxGeometry width="80" height="146" as="geometry" />
        </mxCell>
        <mxCell id="O4cMRhhMM1LBw_Po3kbZ-21" value="7" style="text;html=1;align=center;verticalAlign=middle;whiteSpace=wrap;rounded=0;" vertex="1" parent="O4cMRhhMM1LBw_Po3kbZ-19">
          <mxGeometry x="10" y="4" width="60" height="30" as="geometry" />
        </mxCell>
        <mxCell id="O4cMRhhMM1LBw_Po3kbZ-22" value="" style="group" vertex="1" connectable="0" parent="1">
          <mxGeometry x="-485" y="530" width="80" height="146" as="geometry" />
        </mxCell>
        <mxCell id="O4cMRhhMM1LBw_Po3kbZ-23" value="&lt;div&gt;&lt;span style=&quot;text-wrap-mode: wrap;&quot;&gt;&lt;b&gt;Ольга&lt;/b&gt;&lt;/span&gt;&lt;/div&gt;" style="shape=umlActor;verticalLabelPosition=bottom;verticalAlign=top;html=1;fontSize=15;" vertex="1" parent="O4cMRhhMM1LBw_Po3kbZ-22">
          <mxGeometry width="80" height="146" as="geometry" />
        </mxCell>
        <mxCell id="O4cMRhhMM1LBw_Po3kbZ-24" value="8" style="text;html=1;align=center;verticalAlign=middle;whiteSpace=wrap;rounded=0;" vertex="1" parent="O4cMRhhMM1LBw_Po3kbZ-22">
          <mxGeometry x="10" y="4" width="60" height="30" as="geometry" />
        </mxCell>
        <mxCell id="O4cMRhhMM1LBw_Po3kbZ-25" value="" style="group" vertex="1" connectable="0" parent="1">
          <mxGeometry x="7" y="51" width="72" height="146" as="geometry" />
        </mxCell>
        <mxCell id="O4cMRhhMM1LBw_Po3kbZ-26" value="&lt;b&gt;Владимир&lt;/b&gt;" style="shape=umlActor;verticalLabelPosition=bottom;verticalAlign=top;html=1;fontSize=15;" vertex="1" parent="O4cMRhhMM1LBw_Po3kbZ-25">
          <mxGeometry width="72" height="146" as="geometry" />
        </mxCell>
        <mxCell id="O4cMRhhMM1LBw_Po3kbZ-27" value="9" style="text;html=1;align=center;verticalAlign=middle;whiteSpace=wrap;rounded=0;" vertex="1" parent="O4cMRhhMM1LBw_Po3kbZ-25">
          <mxGeometry x="6" y="4" width="60" height="30" as="geometry" />
        </mxCell>
        <mxCell id="O4cMRhhMM1LBw_Po3kbZ-28" value="" style="group" vertex="1" connectable="0" parent="1">
          <mxGeometry x="-563" y="-150" width="80" height="146" as="geometry" />
        </mxCell>
        <mxCell id="O4cMRhhMM1LBw_Po3kbZ-29" value="&lt;div style=&quot;&quot;&gt;&lt;span style=&quot;text-wrap-mode: wrap;&quot;&gt;&lt;b&gt;Юлия&lt;/b&gt;&lt;/span&gt;&lt;/div&gt;" style="shape=umlActor;verticalLabelPosition=bottom;verticalAlign=top;html=1;fontSize=15;align=center;" vertex="1" parent="O4cMRhhMM1LBw_Po3kbZ-28">
          <mxGeometry width="80" height="146" as="geometry" />
        </mxCell>
        <mxCell id="O4cMRhhMM1LBw_Po3kbZ-30" value="10" style="text;html=1;align=center;verticalAlign=middle;whiteSpace=wrap;rounded=0;" vertex="1" parent="O4cMRhhMM1LBw_Po3kbZ-28">
          <mxGeometry x="10" y="4" width="60" height="30" as="geometry" />
        </mxCell>
        <mxCell id="QDpzkebW1qf2GLZ9lh2P-1" value="" style="group;fontSize=15;" vertex="1" connectable="0" parent="1">
          <mxGeometry x="-560" y="270" width="100" height="102" as="geometry" />
        </mxCell>
        <mxCell id="QDpzkebW1qf2GLZ9lh2P-2" value="" style="verticalLabelPosition=bottom;verticalAlign=top;html=1;shape=mxgraph.flowchart.on-page_reference;fontSize=15;" vertex="1" parent="QDpzkebW1qf2GLZ9lh2P-1">
          <mxGeometry width="100" height="100" as="geometry" />
        </mxCell>
        <mxCell id="QDpzkebW1qf2GLZ9lh2P-3" value="&lt;div&gt;&lt;span style=&quot;text-align: left; text-wrap-mode: wrap;&quot;&gt;Китай&lt;/span&gt;&lt;/div&gt;" style="text;align=center;fontStyle=1;verticalAlign=middle;spacingLeft=3;spacingRight=3;strokeColor=none;rotatable=0;points=[[0,0.5],[1,0.5]];portConstraint=eastwest;html=1;fontSize=15;" vertex="1" parent="QDpzkebW1qf2GLZ9lh2P-1">
          <mxGeometry x="10" y="18" width="80" height="47" as="geometry" />
        </mxCell>
        <mxCell id="QDpzkebW1qf2GLZ9lh2P-4" value="&lt;span style=&quot;font-size: 15px; text-align: left;&quot;&gt;Азия&lt;/span&gt;" style="strokeWidth=2;html=1;shape=mxgraph.flowchart.start_2;whiteSpace=wrap;" vertex="1" parent="QDpzkebW1qf2GLZ9lh2P-1">
          <mxGeometry x="26" y="52" width="48" height="48" as="geometry" />
        </mxCell>
        <mxCell id="QDpzkebW1qf2GLZ9lh2P-5" value="1" style="ellipse;whiteSpace=wrap;html=1;aspect=fixed;" vertex="1" parent="QDpzkebW1qf2GLZ9lh2P-1">
          <mxGeometry x="36" width="28" height="28" as="geometry" />
        </mxCell>
        <mxCell id="QDpzkebW1qf2GLZ9lh2P-6" value="" style="group;fontSize=15;" vertex="1" connectable="0" parent="1">
          <mxGeometry x="-422" y="-284" width="100" height="102" as="geometry" />
        </mxCell>
        <mxCell id="QDpzkebW1qf2GLZ9lh2P-7" value="" style="verticalLabelPosition=bottom;verticalAlign=top;html=1;shape=mxgraph.flowchart.on-page_reference;fontSize=15;" vertex="1" parent="QDpzkebW1qf2GLZ9lh2P-6">
          <mxGeometry width="100" height="100" as="geometry" />
        </mxCell>
        <mxCell id="QDpzkebW1qf2GLZ9lh2P-8" value="&lt;div&gt;&lt;span style=&quot;text-align: left; text-wrap-mode: wrap;&quot;&gt;Индия&lt;/span&gt;&lt;/div&gt;" style="text;align=center;fontStyle=1;verticalAlign=middle;spacingLeft=3;spacingRight=3;strokeColor=none;rotatable=0;points=[[0,0.5],[1,0.5]];portConstraint=eastwest;html=1;fontSize=15;" vertex="1" parent="QDpzkebW1qf2GLZ9lh2P-6">
          <mxGeometry x="10" y="18" width="80" height="47" as="geometry" />
        </mxCell>
        <mxCell id="QDpzkebW1qf2GLZ9lh2P-9" value="&lt;span style=&quot;font-size: 15px; text-align: left;&quot;&gt;Азия&lt;/span&gt;" style="strokeWidth=2;html=1;shape=mxgraph.flowchart.start_2;whiteSpace=wrap;" vertex="1" parent="QDpzkebW1qf2GLZ9lh2P-6">
          <mxGeometry x="26" y="52" width="48" height="48" as="geometry" />
        </mxCell>
        <mxCell id="QDpzkebW1qf2GLZ9lh2P-10" value="2" style="ellipse;whiteSpace=wrap;html=1;aspect=fixed;" vertex="1" parent="QDpzkebW1qf2GLZ9lh2P-6">
          <mxGeometry x="36" width="28" height="28" as="geometry" />
        </mxCell>
        <mxCell id="QDpzkebW1qf2GLZ9lh2P-11" value="" style="group;fontSize=15;" vertex="1" connectable="0" parent="1">
          <mxGeometry x="-140" y="364" width="112" height="102" as="geometry" />
        </mxCell>
        <mxCell id="QDpzkebW1qf2GLZ9lh2P-12" value="3" style="ellipse;whiteSpace=wrap;html=1;aspect=fixed;" vertex="1" parent="QDpzkebW1qf2GLZ9lh2P-11">
          <mxGeometry x="36" width="28" height="28" as="geometry" />
        </mxCell>
        <mxCell id="QDpzkebW1qf2GLZ9lh2P-13" value="" style="group" vertex="1" connectable="0" parent="QDpzkebW1qf2GLZ9lh2P-11">
          <mxGeometry x="-9" width="121" height="100" as="geometry" />
        </mxCell>
        <mxCell id="QDpzkebW1qf2GLZ9lh2P-14" value="" style="group" vertex="1" connectable="0" parent="QDpzkebW1qf2GLZ9lh2P-13">
          <mxGeometry width="121" height="100" as="geometry" />
        </mxCell>
        <mxCell id="QDpzkebW1qf2GLZ9lh2P-15" value="" style="verticalLabelPosition=bottom;verticalAlign=top;html=1;shape=mxgraph.flowchart.on-page_reference;fontSize=15;" vertex="1" parent="QDpzkebW1qf2GLZ9lh2P-14">
          <mxGeometry x="9" width="100" height="100" as="geometry" />
        </mxCell>
        <mxCell id="QDpzkebW1qf2GLZ9lh2P-16" value="&lt;span style=&quot;font-size: 15px; text-align: left;&quot;&gt;Азия&lt;/span&gt;" style="strokeWidth=2;html=1;shape=mxgraph.flowchart.start_2;whiteSpace=wrap;" vertex="1" parent="QDpzkebW1qf2GLZ9lh2P-14">
          <mxGeometry x="35" y="52" width="48" height="48" as="geometry" />
        </mxCell>
        <mxCell id="QDpzkebW1qf2GLZ9lh2P-17" value="&lt;font style=&quot;font-size: 14px;&quot;&gt;&lt;b&gt;Шри-Ланка&lt;/b&gt;&lt;/font&gt;" style="text;html=1;align=center;verticalAlign=middle;whiteSpace=wrap;rounded=0;" vertex="1" parent="QDpzkebW1qf2GLZ9lh2P-14">
          <mxGeometry y="28" width="121" height="30" as="geometry" />
        </mxCell>
        <mxCell id="QDpzkebW1qf2GLZ9lh2P-18" value="3" style="ellipse;whiteSpace=wrap;html=1;aspect=fixed;" vertex="1" parent="QDpzkebW1qf2GLZ9lh2P-14">
          <mxGeometry x="45" width="28" height="28" as="geometry" />
        </mxCell>
        <mxCell id="QDpzkebW1qf2GLZ9lh2P-19" value="" style="group;fontSize=15;" vertex="1" connectable="0" parent="1">
          <mxGeometry x="-598" y="-293" width="100" height="102" as="geometry" />
        </mxCell>
        <mxCell id="QDpzkebW1qf2GLZ9lh2P-20" value="" style="verticalLabelPosition=bottom;verticalAlign=top;html=1;shape=mxgraph.flowchart.on-page_reference;fontSize=15;" vertex="1" parent="QDpzkebW1qf2GLZ9lh2P-19">
          <mxGeometry width="100" height="100" as="geometry" />
        </mxCell>
        <mxCell id="QDpzkebW1qf2GLZ9lh2P-21" value="&lt;div&gt;&lt;span style=&quot;text-align: left; text-wrap-mode: wrap;&quot;&gt;Япония&lt;/span&gt;&lt;/div&gt;" style="text;align=center;fontStyle=1;verticalAlign=middle;spacingLeft=3;spacingRight=3;strokeColor=none;rotatable=0;points=[[0,0.5],[1,0.5]];portConstraint=eastwest;html=1;fontSize=15;" vertex="1" parent="QDpzkebW1qf2GLZ9lh2P-19">
          <mxGeometry x="10" y="18" width="80" height="47" as="geometry" />
        </mxCell>
        <mxCell id="QDpzkebW1qf2GLZ9lh2P-22" value="&lt;span style=&quot;font-size: 15px; text-align: left;&quot;&gt;Азия&lt;/span&gt;" style="strokeWidth=2;html=1;shape=mxgraph.flowchart.start_2;whiteSpace=wrap;" vertex="1" parent="QDpzkebW1qf2GLZ9lh2P-19">
          <mxGeometry x="26" y="52" width="48" height="48" as="geometry" />
        </mxCell>
        <mxCell id="QDpzkebW1qf2GLZ9lh2P-23" value="4" style="ellipse;whiteSpace=wrap;html=1;aspect=fixed;" vertex="1" parent="QDpzkebW1qf2GLZ9lh2P-19">
          <mxGeometry x="36" width="28" height="28" as="geometry" />
        </mxCell>
        <mxCell id="QDpzkebW1qf2GLZ9lh2P-24" value="" style="group;fontSize=15;" vertex="1" connectable="0" parent="1">
          <mxGeometry x="-217" y="83" width="100" height="102" as="geometry" />
        </mxCell>
        <mxCell id="QDpzkebW1qf2GLZ9lh2P-25" value="" style="verticalLabelPosition=bottom;verticalAlign=top;html=1;shape=mxgraph.flowchart.on-page_reference;fontSize=15;" vertex="1" parent="QDpzkebW1qf2GLZ9lh2P-24">
          <mxGeometry width="100" height="100" as="geometry" />
        </mxCell>
        <mxCell id="QDpzkebW1qf2GLZ9lh2P-26" value="&lt;div&gt;&lt;span style=&quot;text-align: left; text-wrap-mode: wrap;&quot;&gt;Кения&lt;/span&gt;&lt;/div&gt;" style="text;align=center;fontStyle=1;verticalAlign=middle;spacingLeft=3;spacingRight=3;strokeColor=none;rotatable=0;points=[[0,0.5],[1,0.5]];portConstraint=eastwest;html=1;fontSize=15;" vertex="1" parent="QDpzkebW1qf2GLZ9lh2P-24">
          <mxGeometry x="10" y="18" width="80" height="47" as="geometry" />
        </mxCell>
        <mxCell id="QDpzkebW1qf2GLZ9lh2P-27" value="&lt;span style=&quot;text-align: left;&quot;&gt;&lt;font style=&quot;font-size: 12px;&quot;&gt;Африка&lt;/font&gt;&lt;/span&gt;" style="strokeWidth=2;html=1;shape=mxgraph.flowchart.start_2;whiteSpace=wrap;" vertex="1" parent="QDpzkebW1qf2GLZ9lh2P-24">
          <mxGeometry x="26" y="52" width="48" height="48" as="geometry" />
        </mxCell>
        <mxCell id="QDpzkebW1qf2GLZ9lh2P-28" value="5" style="ellipse;whiteSpace=wrap;html=1;aspect=fixed;" vertex="1" parent="QDpzkebW1qf2GLZ9lh2P-24">
          <mxGeometry x="36" width="28" height="28" as="geometry" />
        </mxCell>
        <mxCell id="QDpzkebW1qf2GLZ9lh2P-29" value="" style="group;fontSize=15;" vertex="1" connectable="0" parent="1">
          <mxGeometry x="-372" y="-120" width="100" height="102" as="geometry" />
        </mxCell>
        <mxCell id="QDpzkebW1qf2GLZ9lh2P-30" value="" style="verticalLabelPosition=bottom;verticalAlign=top;html=1;shape=mxgraph.flowchart.on-page_reference;fontSize=15;" vertex="1" parent="QDpzkebW1qf2GLZ9lh2P-29">
          <mxGeometry width="100" height="100" as="geometry" />
        </mxCell>
        <mxCell id="QDpzkebW1qf2GLZ9lh2P-31" value="&lt;div&gt;&lt;span style=&quot;text-align: left; text-wrap-mode: wrap;&quot;&gt;Турция&lt;/span&gt;&lt;/div&gt;" style="text;align=center;fontStyle=1;verticalAlign=middle;spacingLeft=3;spacingRight=3;strokeColor=none;rotatable=0;points=[[0,0.5],[1,0.5]];portConstraint=eastwest;html=1;fontSize=15;" vertex="1" parent="QDpzkebW1qf2GLZ9lh2P-29">
          <mxGeometry x="10" y="18" width="80" height="47" as="geometry" />
        </mxCell>
        <mxCell id="QDpzkebW1qf2GLZ9lh2P-32" value="&lt;span style=&quot;font-size: 15px; text-align: left;&quot;&gt;Азия&lt;/span&gt;" style="strokeWidth=2;html=1;shape=mxgraph.flowchart.start_2;whiteSpace=wrap;" vertex="1" parent="QDpzkebW1qf2GLZ9lh2P-29">
          <mxGeometry x="26" y="52" width="48" height="48" as="geometry" />
        </mxCell>
        <mxCell id="QDpzkebW1qf2GLZ9lh2P-33" value="6" style="ellipse;whiteSpace=wrap;html=1;aspect=fixed;" vertex="1" parent="QDpzkebW1qf2GLZ9lh2P-29">
          <mxGeometry x="36" width="28" height="28" as="geometry" />
        </mxCell>
        <mxCell id="QDpzkebW1qf2GLZ9lh2P-34" value="" style="group;fontSize=15;" vertex="1" connectable="0" parent="1">
          <mxGeometry x="-546" y="31" width="100" height="102" as="geometry" />
        </mxCell>
        <mxCell id="QDpzkebW1qf2GLZ9lh2P-35" value="" style="verticalLabelPosition=bottom;verticalAlign=top;html=1;shape=mxgraph.flowchart.on-page_reference;fontSize=15;" vertex="1" parent="QDpzkebW1qf2GLZ9lh2P-34">
          <mxGeometry width="100" height="100" as="geometry" />
        </mxCell>
        <mxCell id="QDpzkebW1qf2GLZ9lh2P-36" value="&lt;div&gt;&lt;span style=&quot;text-align: left; text-wrap-mode: wrap;&quot;&gt;Вьетнам&lt;/span&gt;&lt;/div&gt;" style="text;align=center;fontStyle=1;verticalAlign=middle;spacingLeft=3;spacingRight=3;strokeColor=none;rotatable=0;points=[[0,0.5],[1,0.5]];portConstraint=eastwest;html=1;fontSize=15;" vertex="1" parent="QDpzkebW1qf2GLZ9lh2P-34">
          <mxGeometry x="10" y="18" width="80" height="47" as="geometry" />
        </mxCell>
        <mxCell id="QDpzkebW1qf2GLZ9lh2P-37" value="&lt;span style=&quot;font-size: 15px; text-align: left;&quot;&gt;Азия&lt;/span&gt;" style="strokeWidth=2;html=1;shape=mxgraph.flowchart.start_2;whiteSpace=wrap;" vertex="1" parent="QDpzkebW1qf2GLZ9lh2P-34">
          <mxGeometry x="26" y="52" width="48" height="48" as="geometry" />
        </mxCell>
        <mxCell id="QDpzkebW1qf2GLZ9lh2P-38" value="7" style="ellipse;whiteSpace=wrap;html=1;aspect=fixed;" vertex="1" parent="QDpzkebW1qf2GLZ9lh2P-34">
          <mxGeometry x="36" width="28" height="28" as="geometry" />
        </mxCell>
        <mxCell id="QDpzkebW1qf2GLZ9lh2P-39" value="" style="group;fontSize=15;" vertex="1" connectable="0" parent="1">
          <mxGeometry x="-422" y="25" width="100" height="102" as="geometry" />
        </mxCell>
        <mxCell id="QDpzkebW1qf2GLZ9lh2P-40" value="" style="verticalLabelPosition=bottom;verticalAlign=top;html=1;shape=mxgraph.flowchart.on-page_reference;fontSize=15;" vertex="1" parent="QDpzkebW1qf2GLZ9lh2P-39">
          <mxGeometry width="100" height="100" as="geometry" />
        </mxCell>
        <mxCell id="QDpzkebW1qf2GLZ9lh2P-41" value="&lt;div&gt;&lt;span style=&quot;text-align: left; text-wrap-mode: wrap;&quot;&gt;Аргентина&lt;/span&gt;&lt;/div&gt;" style="text;align=center;fontStyle=1;verticalAlign=middle;spacingLeft=3;spacingRight=3;strokeColor=none;rotatable=0;points=[[0,0.5],[1,0.5]];portConstraint=eastwest;html=1;fontSize=15;" vertex="1" parent="QDpzkebW1qf2GLZ9lh2P-39">
          <mxGeometry x="10" y="18" width="80" height="47" as="geometry" />
        </mxCell>
        <mxCell id="QDpzkebW1qf2GLZ9lh2P-42" value="&lt;span style=&quot;font-size: 15px; text-align: left;&quot;&gt;Юж. Ам.&lt;/span&gt;" style="strokeWidth=2;html=1;shape=mxgraph.flowchart.start_2;whiteSpace=wrap;" vertex="1" parent="QDpzkebW1qf2GLZ9lh2P-39">
          <mxGeometry x="26" y="52" width="48" height="48" as="geometry" />
        </mxCell>
        <mxCell id="QDpzkebW1qf2GLZ9lh2P-43" value="8" style="ellipse;whiteSpace=wrap;html=1;aspect=fixed;" vertex="1" parent="QDpzkebW1qf2GLZ9lh2P-39">
          <mxGeometry x="36" width="28" height="28" as="geometry" />
        </mxCell>
        <mxCell id="QDpzkebW1qf2GLZ9lh2P-44" value="" style="group;fontSize=15;" vertex="1" connectable="0" parent="1">
          <mxGeometry x="-546" y="136" width="100" height="102" as="geometry" />
        </mxCell>
        <mxCell id="QDpzkebW1qf2GLZ9lh2P-45" value="" style="verticalLabelPosition=bottom;verticalAlign=top;html=1;shape=mxgraph.flowchart.on-page_reference;fontSize=15;" vertex="1" parent="QDpzkebW1qf2GLZ9lh2P-44">
          <mxGeometry width="100" height="100" as="geometry" />
        </mxCell>
        <mxCell id="QDpzkebW1qf2GLZ9lh2P-46" value="&lt;div&gt;&lt;span style=&quot;text-align: left; text-wrap-mode: wrap;&quot;&gt;Юж.Африка&lt;/span&gt;&lt;/div&gt;" style="text;align=center;fontStyle=1;verticalAlign=middle;spacingLeft=3;spacingRight=3;strokeColor=none;rotatable=0;points=[[0,0.5],[1,0.5]];portConstraint=eastwest;html=1;fontSize=15;" vertex="1" parent="QDpzkebW1qf2GLZ9lh2P-44">
          <mxGeometry x="10" y="18" width="80" height="47" as="geometry" />
        </mxCell>
        <mxCell id="QDpzkebW1qf2GLZ9lh2P-47" value="&lt;span style=&quot;text-align: left;&quot;&gt;&lt;font style=&quot;font-size: 12px;&quot;&gt;Африка&lt;/font&gt;&lt;/span&gt;" style="strokeWidth=2;html=1;shape=mxgraph.flowchart.start_2;whiteSpace=wrap;" vertex="1" parent="QDpzkebW1qf2GLZ9lh2P-44">
          <mxGeometry x="26" y="52" width="48" height="48" as="geometry" />
        </mxCell>
        <mxCell id="QDpzkebW1qf2GLZ9lh2P-48" value="9" style="ellipse;whiteSpace=wrap;html=1;aspect=fixed;" vertex="1" parent="QDpzkebW1qf2GLZ9lh2P-44">
          <mxGeometry x="36" width="28" height="28" as="geometry" />
        </mxCell>
        <mxCell id="QDpzkebW1qf2GLZ9lh2P-49" value="" style="group;fontSize=15;" vertex="1" connectable="0" parent="1">
          <mxGeometry x="-422" y="127" width="100" height="102" as="geometry" />
        </mxCell>
        <mxCell id="QDpzkebW1qf2GLZ9lh2P-50" value="" style="verticalLabelPosition=bottom;verticalAlign=top;html=1;shape=mxgraph.flowchart.on-page_reference;fontSize=15;" vertex="1" parent="QDpzkebW1qf2GLZ9lh2P-49">
          <mxGeometry width="100" height="100" as="geometry" />
        </mxCell>
        <mxCell id="QDpzkebW1qf2GLZ9lh2P-51" value="&lt;div&gt;&lt;span style=&quot;text-align: left; text-wrap-mode: wrap;&quot;&gt;Иран&lt;/span&gt;&lt;/div&gt;" style="text;align=center;fontStyle=1;verticalAlign=middle;spacingLeft=3;spacingRight=3;strokeColor=none;rotatable=0;points=[[0,0.5],[1,0.5]];portConstraint=eastwest;html=1;fontSize=15;" vertex="1" parent="QDpzkebW1qf2GLZ9lh2P-49">
          <mxGeometry x="10" y="18" width="80" height="47" as="geometry" />
        </mxCell>
        <mxCell id="QDpzkebW1qf2GLZ9lh2P-52" value="&lt;span style=&quot;font-size: 15px; text-align: left;&quot;&gt;Азия&lt;/span&gt;" style="strokeWidth=2;html=1;shape=mxgraph.flowchart.start_2;whiteSpace=wrap;" vertex="1" parent="QDpzkebW1qf2GLZ9lh2P-49">
          <mxGeometry x="26" y="52" width="48" height="48" as="geometry" />
        </mxCell>
        <mxCell id="QDpzkebW1qf2GLZ9lh2P-53" value="10" style="ellipse;whiteSpace=wrap;html=1;aspect=fixed;" vertex="1" parent="QDpzkebW1qf2GLZ9lh2P-49">
          <mxGeometry x="36" width="28" height="28" as="geometry" />
        </mxCell>
        <mxCell id="QDpzkebW1qf2GLZ9lh2P-56" style="edgeStyle=orthogonalEdgeStyle;rounded=0;orthogonalLoop=1;jettySize=auto;html=1;exitX=0.5;exitY=0.5;exitDx=0;exitDy=0;exitPerimeter=0;entryX=1;entryY=0.5;entryDx=0;entryDy=0;" edge="1" parent="1" source="O4cMRhhMM1LBw_Po3kbZ-5" target="QDpzkebW1qf2GLZ9lh2P-8">
          <mxGeometry relative="1" as="geometry" />
        </mxCell>
        <mxCell id="QDpzkebW1qf2GLZ9lh2P-57" style="edgeStyle=orthogonalEdgeStyle;rounded=0;orthogonalLoop=1;jettySize=auto;html=1;exitX=0.5;exitY=0.5;exitDx=0;exitDy=0;exitPerimeter=0;entryX=0;entryY=0.5;entryDx=0;entryDy=0;" edge="1" parent="1" source="O4cMRhhMM1LBw_Po3kbZ-2" target="QDpzkebW1qf2GLZ9lh2P-3">
          <mxGeometry relative="1" as="geometry" />
        </mxCell>
        <mxCell id="QDpzkebW1qf2GLZ9lh2P-60" style="edgeStyle=orthogonalEdgeStyle;rounded=0;orthogonalLoop=1;jettySize=auto;html=1;exitX=0.5;exitY=0.5;exitDx=0;exitDy=0;exitPerimeter=0;entryX=0.5;entryY=1;entryDx=0;entryDy=0;entryPerimeter=0;" edge="1" parent="1" source="O4cMRhhMM1LBw_Po3kbZ-11" target="QDpzkebW1qf2GLZ9lh2P-15">
          <mxGeometry relative="1" as="geometry" />
        </mxCell>
        <mxCell id="QDpzkebW1qf2GLZ9lh2P-61" style="edgeStyle=orthogonalEdgeStyle;rounded=0;orthogonalLoop=1;jettySize=auto;html=1;exitX=0.5;exitY=0.5;exitDx=0;exitDy=0;entryX=0.5;entryY=1;entryDx=0;entryDy=0;entryPerimeter=0;exitPerimeter=0;" edge="1" parent="1" source="O4cMRhhMM1LBw_Po3kbZ-14" target="QDpzkebW1qf2GLZ9lh2P-4">
          <mxGeometry relative="1" as="geometry" />
        </mxCell>
        <mxCell id="QDpzkebW1qf2GLZ9lh2P-66" value="" style="group" vertex="1" connectable="0" parent="1">
          <mxGeometry x="-840" y="-237" width="80" height="146" as="geometry" />
        </mxCell>
        <mxCell id="O4cMRhhMM1LBw_Po3kbZ-17" value="&lt;span style=&quot;text-wrap-mode: wrap;&quot;&gt;&lt;b&gt;Анастасия&lt;/b&gt;&lt;/span&gt;" style="shape=umlActor;verticalLabelPosition=bottom;verticalAlign=top;html=1;fontSize=15;" vertex="1" parent="QDpzkebW1qf2GLZ9lh2P-66">
          <mxGeometry width="80" height="146" as="geometry" />
        </mxCell>
        <mxCell id="O4cMRhhMM1LBw_Po3kbZ-18" value="6" style="text;html=1;align=center;verticalAlign=middle;whiteSpace=wrap;rounded=0;" vertex="1" parent="QDpzkebW1qf2GLZ9lh2P-66">
          <mxGeometry x="10" width="60" height="30" as="geometry" />
        </mxCell>
        <mxCell id="QDpzkebW1qf2GLZ9lh2P-70" style="edgeStyle=orthogonalEdgeStyle;rounded=0;orthogonalLoop=1;jettySize=auto;html=1;exitX=0.5;exitY=0.5;exitDx=0;exitDy=0;exitPerimeter=0;entryX=-0.031;entryY=0.185;entryDx=0;entryDy=0;entryPerimeter=0;" edge="1" parent="1" source="O4cMRhhMM1LBw_Po3kbZ-17" target="QDpzkebW1qf2GLZ9lh2P-21">
          <mxGeometry relative="1" as="geometry" />
        </mxCell>
        <mxCell id="QDpzkebW1qf2GLZ9lh2P-71" style="edgeStyle=orthogonalEdgeStyle;rounded=0;orthogonalLoop=1;jettySize=auto;html=1;exitX=0.5;exitY=0.5;exitDx=0;exitDy=0;exitPerimeter=0;entryX=0;entryY=0.5;entryDx=0;entryDy=0;entryPerimeter=0;" edge="1" parent="1" source="O4cMRhhMM1LBw_Po3kbZ-20" target="QDpzkebW1qf2GLZ9lh2P-20">
          <mxGeometry relative="1" as="geometry">
            <Array as="points">
              <mxPoint x="-598" y="67" />
            </Array>
          </mxGeometry>
        </mxCell>
        <mxCell id="QDpzkebW1qf2GLZ9lh2P-72" style="edgeStyle=orthogonalEdgeStyle;rounded=0;orthogonalLoop=1;jettySize=auto;html=1;exitX=0.5;exitY=0.5;exitDx=0;exitDy=0;exitPerimeter=0;entryX=1;entryY=0.5;entryDx=0;entryDy=0;" edge="1" parent="1" source="O4cMRhhMM1LBw_Po3kbZ-23" target="QDpzkebW1qf2GLZ9lh2P-3">
          <mxGeometry relative="1" as="geometry" />
        </mxCell>
        <mxCell id="QDpzkebW1qf2GLZ9lh2P-73" style="edgeStyle=orthogonalEdgeStyle;rounded=0;orthogonalLoop=1;jettySize=auto;html=1;exitX=0.5;exitY=0.5;exitDx=0;exitDy=0;exitPerimeter=0;entryX=1;entryY=0.5;entryDx=0;entryDy=0;" edge="1" parent="1" source="O4cMRhhMM1LBw_Po3kbZ-26" target="QDpzkebW1qf2GLZ9lh2P-26">
          <mxGeometry relative="1" as="geometry" />
        </mxCell>
        <mxCell id="QDpzkebW1qf2GLZ9lh2P-74" style="edgeStyle=orthogonalEdgeStyle;rounded=0;orthogonalLoop=1;jettySize=auto;html=1;exitX=0.5;exitY=0.5;exitDx=0;exitDy=0;entryX=0;entryY=0.5;entryDx=0;entryDy=0;exitPerimeter=0;" edge="1" parent="1" source="O4cMRhhMM1LBw_Po3kbZ-29" target="QDpzkebW1qf2GLZ9lh2P-31">
          <mxGeometry relative="1" as="geometry" />
        </mxCell>
      </root>
    </mxGraphModel>
  </diagram>
  <diagram id="GqygdKnYzleT4OLySiOS" name="ProducedIn">
    <mxGraphModel dx="1851" dy="1645" grid="0" gridSize="10" guides="1" tooltips="1" connect="1" arrows="1" fold="1" page="0" pageScale="1" pageWidth="827" pageHeight="1169" math="0" shadow="0">
      <root>
        <mxCell id="0" />
        <mxCell id="1" parent="0" />
        <mxCell id="IU2A6C5jyMHb82kqLgho-2" value="&lt;p dir=&quot;auto&quot; style=&quot;white-space: pre-wrap;&quot;&gt;&lt;font style=&quot;font-size: 48px;&quot;&gt;&lt;b&gt;ProducedIn&lt;/b&gt;&lt;/font&gt;&lt;/p&gt;" style="text;whiteSpace=wrap;html=1;" vertex="1" parent="1">
          <mxGeometry x="-69.9999999856949" y="-704.0000003051757" width="89" height="60" as="geometry" />
        </mxCell>
        <mxCell id="AainXPFVG76OlM5r3rVR-1" value="" style="group;fontSize=15;" vertex="1" connectable="0" parent="1">
          <mxGeometry x="-345" y="-383" width="100" height="102" as="geometry" />
        </mxCell>
        <mxCell id="AainXPFVG76OlM5r3rVR-2" value="" style="verticalLabelPosition=bottom;verticalAlign=top;html=1;shape=mxgraph.flowchart.on-page_reference;fontSize=15;" vertex="1" parent="AainXPFVG76OlM5r3rVR-1">
          <mxGeometry width="100" height="100" as="geometry" />
        </mxCell>
        <mxCell id="AainXPFVG76OlM5r3rVR-3" value="&lt;div&gt;&lt;span style=&quot;text-align: left; text-wrap-mode: wrap;&quot;&gt;Китай&lt;/span&gt;&lt;/div&gt;" style="text;align=center;fontStyle=1;verticalAlign=middle;spacingLeft=3;spacingRight=3;strokeColor=none;rotatable=0;points=[[0,0.5],[1,0.5]];portConstraint=eastwest;html=1;fontSize=15;" vertex="1" parent="AainXPFVG76OlM5r3rVR-1">
          <mxGeometry x="10" y="18" width="80" height="47" as="geometry" />
        </mxCell>
        <mxCell id="AainXPFVG76OlM5r3rVR-4" value="&lt;span style=&quot;font-size: 15px; text-align: left;&quot;&gt;Азия&lt;/span&gt;" style="strokeWidth=2;html=1;shape=mxgraph.flowchart.start_2;whiteSpace=wrap;" vertex="1" parent="AainXPFVG76OlM5r3rVR-1">
          <mxGeometry x="26" y="52" width="48" height="48" as="geometry" />
        </mxCell>
        <mxCell id="AainXPFVG76OlM5r3rVR-5" value="1" style="ellipse;whiteSpace=wrap;html=1;aspect=fixed;" vertex="1" parent="AainXPFVG76OlM5r3rVR-1">
          <mxGeometry x="36" width="28" height="28" as="geometry" />
        </mxCell>
        <mxCell id="AainXPFVG76OlM5r3rVR-6" value="" style="group;fontSize=15;" vertex="1" connectable="0" parent="1">
          <mxGeometry x="-721" y="-116" width="100" height="102" as="geometry" />
        </mxCell>
        <mxCell id="AainXPFVG76OlM5r3rVR-7" value="" style="verticalLabelPosition=bottom;verticalAlign=top;html=1;shape=mxgraph.flowchart.on-page_reference;fontSize=15;" vertex="1" parent="AainXPFVG76OlM5r3rVR-6">
          <mxGeometry width="100" height="100" as="geometry" />
        </mxCell>
        <mxCell id="AainXPFVG76OlM5r3rVR-8" value="&lt;div&gt;&lt;span style=&quot;text-align: left; text-wrap-mode: wrap;&quot;&gt;Индия&lt;/span&gt;&lt;/div&gt;" style="text;align=center;fontStyle=1;verticalAlign=middle;spacingLeft=3;spacingRight=3;strokeColor=none;rotatable=0;points=[[0,0.5],[1,0.5]];portConstraint=eastwest;html=1;fontSize=15;" vertex="1" parent="AainXPFVG76OlM5r3rVR-6">
          <mxGeometry x="10" y="18" width="80" height="47" as="geometry" />
        </mxCell>
        <mxCell id="AainXPFVG76OlM5r3rVR-9" value="&lt;span style=&quot;font-size: 15px; text-align: left;&quot;&gt;Азия&lt;/span&gt;" style="strokeWidth=2;html=1;shape=mxgraph.flowchart.start_2;whiteSpace=wrap;" vertex="1" parent="AainXPFVG76OlM5r3rVR-6">
          <mxGeometry x="26" y="52" width="48" height="48" as="geometry" />
        </mxCell>
        <mxCell id="AainXPFVG76OlM5r3rVR-10" value="2" style="ellipse;whiteSpace=wrap;html=1;aspect=fixed;" vertex="1" parent="AainXPFVG76OlM5r3rVR-6">
          <mxGeometry x="36" width="28" height="28" as="geometry" />
        </mxCell>
        <mxCell id="AainXPFVG76OlM5r3rVR-11" value="" style="group;fontSize=15;" vertex="1" connectable="0" parent="1">
          <mxGeometry x="-44" y="99" width="112" height="102" as="geometry" />
        </mxCell>
        <mxCell id="AainXPFVG76OlM5r3rVR-12" value="3" style="ellipse;whiteSpace=wrap;html=1;aspect=fixed;" vertex="1" parent="AainXPFVG76OlM5r3rVR-11">
          <mxGeometry x="36" width="28" height="28" as="geometry" />
        </mxCell>
        <mxCell id="AainXPFVG76OlM5r3rVR-13" value="" style="group" vertex="1" connectable="0" parent="AainXPFVG76OlM5r3rVR-11">
          <mxGeometry x="-9" width="121" height="100" as="geometry" />
        </mxCell>
        <mxCell id="AainXPFVG76OlM5r3rVR-14" value="" style="group" vertex="1" connectable="0" parent="AainXPFVG76OlM5r3rVR-13">
          <mxGeometry width="121" height="100" as="geometry" />
        </mxCell>
        <mxCell id="AainXPFVG76OlM5r3rVR-15" value="" style="verticalLabelPosition=bottom;verticalAlign=top;html=1;shape=mxgraph.flowchart.on-page_reference;fontSize=15;" vertex="1" parent="AainXPFVG76OlM5r3rVR-14">
          <mxGeometry x="9" width="100" height="100" as="geometry" />
        </mxCell>
        <mxCell id="AainXPFVG76OlM5r3rVR-16" value="&lt;span style=&quot;font-size: 15px; text-align: left;&quot;&gt;Азия&lt;/span&gt;" style="strokeWidth=2;html=1;shape=mxgraph.flowchart.start_2;whiteSpace=wrap;" vertex="1" parent="AainXPFVG76OlM5r3rVR-14">
          <mxGeometry x="35" y="52" width="48" height="48" as="geometry" />
        </mxCell>
        <mxCell id="AainXPFVG76OlM5r3rVR-17" value="&lt;font style=&quot;font-size: 14px;&quot;&gt;&lt;b&gt;Шри-Ланка&lt;/b&gt;&lt;/font&gt;" style="text;html=1;align=center;verticalAlign=middle;whiteSpace=wrap;rounded=0;" vertex="1" parent="AainXPFVG76OlM5r3rVR-14">
          <mxGeometry y="28" width="121" height="30" as="geometry" />
        </mxCell>
        <mxCell id="AainXPFVG76OlM5r3rVR-18" value="3" style="ellipse;whiteSpace=wrap;html=1;aspect=fixed;" vertex="1" parent="AainXPFVG76OlM5r3rVR-14">
          <mxGeometry x="45" width="28" height="28" as="geometry" />
        </mxCell>
        <mxCell id="AainXPFVG76OlM5r3rVR-19" value="" style="group;fontSize=15;" vertex="1" connectable="0" parent="1">
          <mxGeometry x="-525" y="127" width="100" height="102" as="geometry" />
        </mxCell>
        <mxCell id="AainXPFVG76OlM5r3rVR-20" value="" style="verticalLabelPosition=bottom;verticalAlign=top;html=1;shape=mxgraph.flowchart.on-page_reference;fontSize=15;" vertex="1" parent="AainXPFVG76OlM5r3rVR-19">
          <mxGeometry width="100" height="100" as="geometry" />
        </mxCell>
        <mxCell id="AainXPFVG76OlM5r3rVR-21" value="&lt;div&gt;&lt;span style=&quot;text-align: left; text-wrap-mode: wrap;&quot;&gt;Япония&lt;/span&gt;&lt;/div&gt;" style="text;align=center;fontStyle=1;verticalAlign=middle;spacingLeft=3;spacingRight=3;strokeColor=none;rotatable=0;points=[[0,0.5],[1,0.5]];portConstraint=eastwest;html=1;fontSize=15;" vertex="1" parent="AainXPFVG76OlM5r3rVR-19">
          <mxGeometry x="10" y="18" width="80" height="47" as="geometry" />
        </mxCell>
        <mxCell id="AainXPFVG76OlM5r3rVR-22" value="&lt;span style=&quot;font-size: 15px; text-align: left;&quot;&gt;Азия&lt;/span&gt;" style="strokeWidth=2;html=1;shape=mxgraph.flowchart.start_2;whiteSpace=wrap;" vertex="1" parent="AainXPFVG76OlM5r3rVR-19">
          <mxGeometry x="26" y="52" width="48" height="48" as="geometry" />
        </mxCell>
        <mxCell id="AainXPFVG76OlM5r3rVR-23" value="4" style="ellipse;whiteSpace=wrap;html=1;aspect=fixed;" vertex="1" parent="AainXPFVG76OlM5r3rVR-19">
          <mxGeometry x="36" width="28" height="28" as="geometry" />
        </mxCell>
        <mxCell id="AainXPFVG76OlM5r3rVR-24" value="" style="group;fontSize=15;" vertex="1" connectable="0" parent="1">
          <mxGeometry x="-394" y="-71" width="100" height="102" as="geometry" />
        </mxCell>
        <mxCell id="AainXPFVG76OlM5r3rVR-25" value="" style="verticalLabelPosition=bottom;verticalAlign=top;html=1;shape=mxgraph.flowchart.on-page_reference;fontSize=15;" vertex="1" parent="AainXPFVG76OlM5r3rVR-24">
          <mxGeometry width="100" height="100" as="geometry" />
        </mxCell>
        <mxCell id="AainXPFVG76OlM5r3rVR-26" value="&lt;div&gt;&lt;span style=&quot;text-align: left; text-wrap-mode: wrap;&quot;&gt;Кения&lt;/span&gt;&lt;/div&gt;" style="text;align=center;fontStyle=1;verticalAlign=middle;spacingLeft=3;spacingRight=3;strokeColor=none;rotatable=0;points=[[0,0.5],[1,0.5]];portConstraint=eastwest;html=1;fontSize=15;" vertex="1" parent="AainXPFVG76OlM5r3rVR-24">
          <mxGeometry x="10" y="18" width="80" height="47" as="geometry" />
        </mxCell>
        <mxCell id="AainXPFVG76OlM5r3rVR-27" value="&lt;span style=&quot;text-align: left;&quot;&gt;&lt;font style=&quot;font-size: 12px;&quot;&gt;Африка&lt;/font&gt;&lt;/span&gt;" style="strokeWidth=2;html=1;shape=mxgraph.flowchart.start_2;whiteSpace=wrap;" vertex="1" parent="AainXPFVG76OlM5r3rVR-24">
          <mxGeometry x="26" y="52" width="48" height="48" as="geometry" />
        </mxCell>
        <mxCell id="AainXPFVG76OlM5r3rVR-28" value="5" style="ellipse;whiteSpace=wrap;html=1;aspect=fixed;" vertex="1" parent="AainXPFVG76OlM5r3rVR-24">
          <mxGeometry x="36" width="28" height="28" as="geometry" />
        </mxCell>
        <mxCell id="AainXPFVG76OlM5r3rVR-29" value="" style="group;fontSize=15;" vertex="1" connectable="0" parent="1">
          <mxGeometry x="-270" y="-77" width="100" height="102" as="geometry" />
        </mxCell>
        <mxCell id="AainXPFVG76OlM5r3rVR-30" value="" style="verticalLabelPosition=bottom;verticalAlign=top;html=1;shape=mxgraph.flowchart.on-page_reference;fontSize=15;" vertex="1" parent="AainXPFVG76OlM5r3rVR-29">
          <mxGeometry width="100" height="100" as="geometry" />
        </mxCell>
        <mxCell id="AainXPFVG76OlM5r3rVR-31" value="&lt;div&gt;&lt;span style=&quot;text-align: left; text-wrap-mode: wrap;&quot;&gt;Турция&lt;/span&gt;&lt;/div&gt;" style="text;align=center;fontStyle=1;verticalAlign=middle;spacingLeft=3;spacingRight=3;strokeColor=none;rotatable=0;points=[[0,0.5],[1,0.5]];portConstraint=eastwest;html=1;fontSize=15;" vertex="1" parent="AainXPFVG76OlM5r3rVR-29">
          <mxGeometry x="10" y="18" width="80" height="47" as="geometry" />
        </mxCell>
        <mxCell id="AainXPFVG76OlM5r3rVR-32" value="&lt;span style=&quot;font-size: 15px; text-align: left;&quot;&gt;Азия&lt;/span&gt;" style="strokeWidth=2;html=1;shape=mxgraph.flowchart.start_2;whiteSpace=wrap;" vertex="1" parent="AainXPFVG76OlM5r3rVR-29">
          <mxGeometry x="26" y="52" width="48" height="48" as="geometry" />
        </mxCell>
        <mxCell id="AainXPFVG76OlM5r3rVR-33" value="6" style="ellipse;whiteSpace=wrap;html=1;aspect=fixed;" vertex="1" parent="AainXPFVG76OlM5r3rVR-29">
          <mxGeometry x="36" width="28" height="28" as="geometry" />
        </mxCell>
        <mxCell id="AainXPFVG76OlM5r3rVR-34" value="" style="group;fontSize=15;" vertex="1" connectable="0" parent="1">
          <mxGeometry x="-394" y="31" width="100" height="102" as="geometry" />
        </mxCell>
        <mxCell id="AainXPFVG76OlM5r3rVR-35" value="" style="verticalLabelPosition=bottom;verticalAlign=top;html=1;shape=mxgraph.flowchart.on-page_reference;fontSize=15;" vertex="1" parent="AainXPFVG76OlM5r3rVR-34">
          <mxGeometry width="100" height="100" as="geometry" />
        </mxCell>
        <mxCell id="AainXPFVG76OlM5r3rVR-36" value="&lt;div&gt;&lt;span style=&quot;text-align: left; text-wrap-mode: wrap;&quot;&gt;Вьетнам&lt;/span&gt;&lt;/div&gt;" style="text;align=center;fontStyle=1;verticalAlign=middle;spacingLeft=3;spacingRight=3;strokeColor=none;rotatable=0;points=[[0,0.5],[1,0.5]];portConstraint=eastwest;html=1;fontSize=15;" vertex="1" parent="AainXPFVG76OlM5r3rVR-34">
          <mxGeometry x="10" y="18" width="80" height="47" as="geometry" />
        </mxCell>
        <mxCell id="AainXPFVG76OlM5r3rVR-37" value="&lt;span style=&quot;font-size: 15px; text-align: left;&quot;&gt;Азия&lt;/span&gt;" style="strokeWidth=2;html=1;shape=mxgraph.flowchart.start_2;whiteSpace=wrap;" vertex="1" parent="AainXPFVG76OlM5r3rVR-34">
          <mxGeometry x="26" y="52" width="48" height="48" as="geometry" />
        </mxCell>
        <mxCell id="AainXPFVG76OlM5r3rVR-38" value="7" style="ellipse;whiteSpace=wrap;html=1;aspect=fixed;" vertex="1" parent="AainXPFVG76OlM5r3rVR-34">
          <mxGeometry x="36" width="28" height="28" as="geometry" />
        </mxCell>
        <mxCell id="AainXPFVG76OlM5r3rVR-39" value="" style="group;fontSize=15;" vertex="1" connectable="0" parent="1">
          <mxGeometry x="-270" y="25" width="100" height="102" as="geometry" />
        </mxCell>
        <mxCell id="AainXPFVG76OlM5r3rVR-40" value="" style="verticalLabelPosition=bottom;verticalAlign=top;html=1;shape=mxgraph.flowchart.on-page_reference;fontSize=15;" vertex="1" parent="AainXPFVG76OlM5r3rVR-39">
          <mxGeometry width="100" height="100" as="geometry" />
        </mxCell>
        <mxCell id="AainXPFVG76OlM5r3rVR-41" value="&lt;div&gt;&lt;span style=&quot;text-align: left; text-wrap-mode: wrap;&quot;&gt;Аргентина&lt;/span&gt;&lt;/div&gt;" style="text;align=center;fontStyle=1;verticalAlign=middle;spacingLeft=3;spacingRight=3;strokeColor=none;rotatable=0;points=[[0,0.5],[1,0.5]];portConstraint=eastwest;html=1;fontSize=15;" vertex="1" parent="AainXPFVG76OlM5r3rVR-39">
          <mxGeometry x="10" y="18" width="80" height="47" as="geometry" />
        </mxCell>
        <mxCell id="AainXPFVG76OlM5r3rVR-42" value="&lt;span style=&quot;font-size: 15px; text-align: left;&quot;&gt;Юж. Ам.&lt;/span&gt;" style="strokeWidth=2;html=1;shape=mxgraph.flowchart.start_2;whiteSpace=wrap;" vertex="1" parent="AainXPFVG76OlM5r3rVR-39">
          <mxGeometry x="26" y="52" width="48" height="48" as="geometry" />
        </mxCell>
        <mxCell id="AainXPFVG76OlM5r3rVR-43" value="8" style="ellipse;whiteSpace=wrap;html=1;aspect=fixed;" vertex="1" parent="AainXPFVG76OlM5r3rVR-39">
          <mxGeometry x="36" width="28" height="28" as="geometry" />
        </mxCell>
        <mxCell id="AainXPFVG76OlM5r3rVR-44" value="" style="group;fontSize=15;" vertex="1" connectable="0" parent="1">
          <mxGeometry x="-394" y="136" width="100" height="102" as="geometry" />
        </mxCell>
        <mxCell id="AainXPFVG76OlM5r3rVR-45" value="" style="verticalLabelPosition=bottom;verticalAlign=top;html=1;shape=mxgraph.flowchart.on-page_reference;fontSize=15;" vertex="1" parent="AainXPFVG76OlM5r3rVR-44">
          <mxGeometry width="100" height="100" as="geometry" />
        </mxCell>
        <mxCell id="AainXPFVG76OlM5r3rVR-46" value="&lt;div&gt;&lt;span style=&quot;text-align: left; text-wrap-mode: wrap;&quot;&gt;Юж.Африка&lt;/span&gt;&lt;/div&gt;" style="text;align=center;fontStyle=1;verticalAlign=middle;spacingLeft=3;spacingRight=3;strokeColor=none;rotatable=0;points=[[0,0.5],[1,0.5]];portConstraint=eastwest;html=1;fontSize=15;" vertex="1" parent="AainXPFVG76OlM5r3rVR-44">
          <mxGeometry x="10" y="18" width="80" height="47" as="geometry" />
        </mxCell>
        <mxCell id="AainXPFVG76OlM5r3rVR-47" value="&lt;span style=&quot;text-align: left;&quot;&gt;&lt;font style=&quot;font-size: 12px;&quot;&gt;Африка&lt;/font&gt;&lt;/span&gt;" style="strokeWidth=2;html=1;shape=mxgraph.flowchart.start_2;whiteSpace=wrap;" vertex="1" parent="AainXPFVG76OlM5r3rVR-44">
          <mxGeometry x="26" y="52" width="48" height="48" as="geometry" />
        </mxCell>
        <mxCell id="AainXPFVG76OlM5r3rVR-48" value="9" style="ellipse;whiteSpace=wrap;html=1;aspect=fixed;" vertex="1" parent="AainXPFVG76OlM5r3rVR-44">
          <mxGeometry x="36" width="28" height="28" as="geometry" />
        </mxCell>
        <mxCell id="AainXPFVG76OlM5r3rVR-49" value="" style="group;fontSize=15;" vertex="1" connectable="0" parent="1">
          <mxGeometry x="-270" y="127" width="100" height="102" as="geometry" />
        </mxCell>
        <mxCell id="AainXPFVG76OlM5r3rVR-50" value="" style="verticalLabelPosition=bottom;verticalAlign=top;html=1;shape=mxgraph.flowchart.on-page_reference;fontSize=15;" vertex="1" parent="AainXPFVG76OlM5r3rVR-49">
          <mxGeometry width="100" height="100" as="geometry" />
        </mxCell>
        <mxCell id="AainXPFVG76OlM5r3rVR-51" value="&lt;div&gt;&lt;span style=&quot;text-align: left; text-wrap-mode: wrap;&quot;&gt;Иран&lt;/span&gt;&lt;/div&gt;" style="text;align=center;fontStyle=1;verticalAlign=middle;spacingLeft=3;spacingRight=3;strokeColor=none;rotatable=0;points=[[0,0.5],[1,0.5]];portConstraint=eastwest;html=1;fontSize=15;" vertex="1" parent="AainXPFVG76OlM5r3rVR-49">
          <mxGeometry x="10" y="18" width="80" height="47" as="geometry" />
        </mxCell>
        <mxCell id="AainXPFVG76OlM5r3rVR-52" value="&lt;span style=&quot;font-size: 15px; text-align: left;&quot;&gt;Азия&lt;/span&gt;" style="strokeWidth=2;html=1;shape=mxgraph.flowchart.start_2;whiteSpace=wrap;" vertex="1" parent="AainXPFVG76OlM5r3rVR-49">
          <mxGeometry x="26" y="52" width="48" height="48" as="geometry" />
        </mxCell>
        <mxCell id="AainXPFVG76OlM5r3rVR-53" value="10" style="ellipse;whiteSpace=wrap;html=1;aspect=fixed;" vertex="1" parent="AainXPFVG76OlM5r3rVR-49">
          <mxGeometry x="36" width="28" height="28" as="geometry" />
        </mxCell>
        <mxCell id="OvB7LMG8N5DPpHJsQwpN-75" value="" style="group" vertex="1" connectable="0" parent="1">
          <mxGeometry x="-721" y="174" width="182" height="190.5" as="geometry" />
        </mxCell>
        <mxCell id="OvB7LMG8N5DPpHJsQwpN-76" value="&lt;font style=&quot;font-size: 18px;&quot;&gt;Ассам&lt;/font&gt;" style="strokeWidth=2;html=1;shape=mxgraph.flowchart.database;whiteSpace=wrap;" vertex="1" parent="OvB7LMG8N5DPpHJsQwpN-75">
          <mxGeometry width="137.69736842105266" height="190.5" as="geometry" />
        </mxCell>
        <mxCell id="OvB7LMG8N5DPpHJsQwpN-77" value="" style="shape=requiredInterface;html=1;verticalLabelPosition=bottom;sketch=0;" vertex="1" parent="OvB7LMG8N5DPpHJsQwpN-75">
          <mxGeometry x="136.68073485600794" y="51.35217391304347" width="47.89473684210527" height="102.70434782608694" as="geometry" />
        </mxCell>
        <mxCell id="OvB7LMG8N5DPpHJsQwpN-78" value="" style="group;fillColor=#e3c800;fontColor=#000000;strokeColor=#B09500;" vertex="1" connectable="0" parent="OvB7LMG8N5DPpHJsQwpN-75">
          <mxGeometry x="25.926415094339614" y="14.587837837837837" width="78.55188679245283" height="33.46621621621622" as="geometry" />
        </mxCell>
        <mxCell id="OvB7LMG8N5DPpHJsQwpN-79" value="" style="verticalLabelPosition=bottom;verticalAlign=top;html=1;shape=mxgraph.basic.rect;fillColor2=none;strokeWidth=1;size=20;indent=5;" vertex="1" parent="OvB7LMG8N5DPpHJsQwpN-78">
          <mxGeometry width="78.55188679245283" height="33.46621621621622" as="geometry" />
        </mxCell>
        <mxCell id="OvB7LMG8N5DPpHJsQwpN-80" value="5" style="text;align=center;fontStyle=1;verticalAlign=middle;spacingLeft=3;spacingRight=3;strokeColor=none;rotatable=0;points=[[0,0.5],[1,0.5]];portConstraint=eastwest;html=1;" vertex="1" parent="OvB7LMG8N5DPpHJsQwpN-78">
          <mxGeometry x="2.5754716981132075" y="3.4324324324324325" width="73.40094339622642" height="26.60135135135135" as="geometry" />
        </mxCell>
        <mxCell id="OvB7LMG8N5DPpHJsQwpN-81" value="Чёрный" style="strokeWidth=2;html=1;shape=mxgraph.flowchart.merge_or_storage;whiteSpace=wrap;fillColor=#647687;fontColor=#ffffff;strokeColor=#314354;" vertex="1" parent="OvB7LMG8N5DPpHJsQwpN-75">
          <mxGeometry x="30.047169811320757" y="108.12162162162161" width="85.84905660377359" height="49.77027027027027" as="geometry" />
        </mxCell>
        <mxCell id="OvB7LMG8N5DPpHJsQwpN-82" value="" style="group" vertex="1" connectable="0" parent="1">
          <mxGeometry x="-93" y="-359" width="182" height="175" as="geometry" />
        </mxCell>
        <mxCell id="OvB7LMG8N5DPpHJsQwpN-83" value="&lt;font style=&quot;font-size: 18px;&quot;&gt;Пуэр&lt;/font&gt;" style="strokeWidth=2;html=1;shape=mxgraph.flowchart.database;whiteSpace=wrap;" vertex="1" parent="OvB7LMG8N5DPpHJsQwpN-82">
          <mxGeometry width="137.69736842105266" height="175" as="geometry" />
        </mxCell>
        <mxCell id="OvB7LMG8N5DPpHJsQwpN-84" value="" style="shape=requiredInterface;html=1;verticalLabelPosition=bottom;sketch=0;" vertex="1" parent="OvB7LMG8N5DPpHJsQwpN-82">
          <mxGeometry x="135.8222442899702" y="47.17391304347826" width="47.89473684210526" height="94.34782608695652" as="geometry" />
        </mxCell>
        <mxCell id="OvB7LMG8N5DPpHJsQwpN-85" value="" style="group;fillColor=#e3c800;fontColor=#000000;strokeColor=#B09500;" vertex="1" connectable="0" parent="OvB7LMG8N5DPpHJsQwpN-82">
          <mxGeometry x="25.926415094339614" y="13.400900900900902" width="78.55188679245283" height="30.743243243243242" as="geometry" />
        </mxCell>
        <mxCell id="OvB7LMG8N5DPpHJsQwpN-86" value="" style="verticalLabelPosition=bottom;verticalAlign=top;html=1;shape=mxgraph.basic.rect;fillColor2=none;strokeWidth=1;size=20;indent=5;" vertex="1" parent="OvB7LMG8N5DPpHJsQwpN-85">
          <mxGeometry width="78.55188679245283" height="30.743243243243242" as="geometry" />
        </mxCell>
        <mxCell id="OvB7LMG8N5DPpHJsQwpN-87" value="3" style="text;align=center;fontStyle=1;verticalAlign=middle;spacingLeft=3;spacingRight=3;strokeColor=none;rotatable=0;points=[[0,0.5],[1,0.5]];portConstraint=eastwest;html=1;" vertex="1" parent="OvB7LMG8N5DPpHJsQwpN-85">
          <mxGeometry x="2.5754716981132075" y="3.1531531531531525" width="73.4009433962264" height="24.436936936936934" as="geometry" />
        </mxCell>
        <mxCell id="OvB7LMG8N5DPpHJsQwpN-88" value="" style="strokeWidth=2;html=1;shape=mxgraph.flowchart.merge_or_storage;whiteSpace=wrap;fillColor=#FFBAD8;strokeColor=#36393d;" vertex="1" parent="OvB7LMG8N5DPpHJsQwpN-82">
          <mxGeometry x="16.31132075471698" y="105.63063063063063" width="99.58490566037734" height="47.2972972972973" as="geometry" />
        </mxCell>
        <mxCell id="OvB7LMG8N5DPpHJsQwpN-89" value="&lt;font style=&quot;color: rgb(255, 255, 255); font-weight: 400; text-wrap-mode: wrap; font-size: 10px;&quot;&gt;Фермен-&lt;/font&gt;&lt;div style=&quot;color: rgb(255, 255, 255); font-weight: 400; text-wrap-mode: wrap;&quot;&gt;&lt;font style=&quot;font-size: 10px;&quot;&gt;тированный&lt;/font&gt;&lt;/div&gt;" style="text;align=center;fontStyle=1;verticalAlign=middle;spacingLeft=3;spacingRight=3;strokeColor=none;rotatable=0;points=[[0,0.5],[1,0.5]];portConstraint=eastwest;html=1;" vertex="1" parent="OvB7LMG8N5DPpHJsQwpN-82">
          <mxGeometry x="29.188679245283026" y="107.9954954954955" width="70.35330188679247" height="22.072072072072075" as="geometry" />
        </mxCell>
        <mxCell id="OvB7LMG8N5DPpHJsQwpN-90" value="" style="group" vertex="1" connectable="0" parent="1">
          <mxGeometry x="-558" y="-219" width="181" height="201" as="geometry" />
        </mxCell>
        <mxCell id="OvB7LMG8N5DPpHJsQwpN-91" value="" style="group" vertex="1" connectable="0" parent="OvB7LMG8N5DPpHJsQwpN-90">
          <mxGeometry x="-2.561320754716981" y="0.9054054054054055" width="182.7075471698113" height="201" as="geometry" />
        </mxCell>
        <mxCell id="OvB7LMG8N5DPpHJsQwpN-92" value="&lt;font style=&quot;font-size: 18px;&quot;&gt;Матча&lt;/font&gt;" style="strokeWidth=2;html=1;shape=mxgraph.flowchart.database;whiteSpace=wrap;" vertex="1" parent="OvB7LMG8N5DPpHJsQwpN-91">
          <mxGeometry width="136.94078947368422" height="201" as="geometry" />
        </mxCell>
        <mxCell id="OvB7LMG8N5DPpHJsQwpN-93" value="" style="shape=requiredInterface;html=1;verticalLabelPosition=bottom;sketch=0;" vertex="1" parent="OvB7LMG8N5DPpHJsQwpN-91">
          <mxGeometry x="135.0759682224429" y="54.18260869565218" width="47.63157894736842" height="108.36521739130436" as="geometry" />
        </mxCell>
        <mxCell id="OvB7LMG8N5DPpHJsQwpN-94" value="" style="group;fillColor=#e3c800;fontColor=#000000;strokeColor=#B09500;" vertex="1" connectable="0" parent="OvB7LMG8N5DPpHJsQwpN-91">
          <mxGeometry x="25.783962264150933" y="15.391891891891893" width="78.12028301886792" height="35.31081081081081" as="geometry" />
        </mxCell>
        <mxCell id="OvB7LMG8N5DPpHJsQwpN-95" value="" style="verticalLabelPosition=bottom;verticalAlign=top;html=1;shape=mxgraph.basic.rect;fillColor2=none;strokeWidth=1;size=20;indent=5;" vertex="1" parent="OvB7LMG8N5DPpHJsQwpN-94">
          <mxGeometry width="78.12028301886792" height="35.31081081081081" as="geometry" />
        </mxCell>
        <mxCell id="OvB7LMG8N5DPpHJsQwpN-96" value="2" style="text;align=center;fontStyle=1;verticalAlign=middle;spacingLeft=3;spacingRight=3;strokeColor=none;rotatable=0;points=[[0,0.5],[1,0.5]];portConstraint=eastwest;html=1;" vertex="1" parent="OvB7LMG8N5DPpHJsQwpN-94">
          <mxGeometry x="2.561320754716981" y="3.621621621621621" width="72.99764150943396" height="28.06756756756756" as="geometry" />
        </mxCell>
        <mxCell id="OvB7LMG8N5DPpHJsQwpN-97" value="Зелёный" style="strokeWidth=2;html=1;shape=mxgraph.flowchart.merge_or_storage;whiteSpace=wrap;fillColor=#6d8764;fontColor=#ffffff;strokeColor=#3A5431;" vertex="1" parent="OvB7LMG8N5DPpHJsQwpN-91">
          <mxGeometry x="29.882075471698112" y="114.08108108108108" width="85.37735849056604" height="52.513513513513516" as="geometry" />
        </mxCell>
        <mxCell id="OvB7LMG8N5DPpHJsQwpN-98" value="" style="group" vertex="1" connectable="0" parent="1">
          <mxGeometry x="-539" y="310" width="167" height="170.5" as="geometry" />
        </mxCell>
        <mxCell id="OvB7LMG8N5DPpHJsQwpN-99" value="&lt;font style=&quot;font-size: 18px;&quot;&gt;Сенча&lt;/font&gt;" style="strokeWidth=2;html=1;shape=mxgraph.flowchart.database;whiteSpace=wrap;" vertex="1" parent="OvB7LMG8N5DPpHJsQwpN-98">
          <mxGeometry width="126.34868421052633" height="170.5" as="geometry" />
        </mxCell>
        <mxCell id="OvB7LMG8N5DPpHJsQwpN-100" value="" style="shape=requiredInterface;html=1;verticalLabelPosition=bottom;sketch=0;" vertex="1" parent="OvB7LMG8N5DPpHJsQwpN-98">
          <mxGeometry x="124.62810327706059" y="45.96086956521739" width="43.94736842105263" height="91.92173913043479" as="geometry" />
        </mxCell>
        <mxCell id="OvB7LMG8N5DPpHJsQwpN-101" value="" style="group;fillColor=#e3c800;fontColor=#000000;strokeColor=#B09500;" vertex="1" connectable="0" parent="OvB7LMG8N5DPpHJsQwpN-98">
          <mxGeometry x="23.789622641509425" y="13.056306306306308" width="72.07783018867924" height="29.952702702702705" as="geometry" />
        </mxCell>
        <mxCell id="OvB7LMG8N5DPpHJsQwpN-102" value="" style="verticalLabelPosition=bottom;verticalAlign=top;html=1;shape=mxgraph.basic.rect;fillColor2=none;strokeWidth=1;size=20;indent=5;" vertex="1" parent="OvB7LMG8N5DPpHJsQwpN-101">
          <mxGeometry width="72.07783018867924" height="29.952702702702705" as="geometry" />
        </mxCell>
        <mxCell id="OvB7LMG8N5DPpHJsQwpN-103" value="6" style="text;align=center;fontStyle=1;verticalAlign=middle;spacingLeft=3;spacingRight=3;strokeColor=none;rotatable=0;points=[[0,0.5],[1,0.5]];portConstraint=eastwest;html=1;" vertex="1" parent="OvB7LMG8N5DPpHJsQwpN-101">
          <mxGeometry x="2.3632075471698113" y="3.0720720720720722" width="67.35141509433961" height="23.80855855855856" as="geometry" />
        </mxCell>
        <mxCell id="OvB7LMG8N5DPpHJsQwpN-104" value="Зелёный" style="strokeWidth=2;html=1;shape=mxgraph.flowchart.merge_or_storage;whiteSpace=wrap;fillColor=#6d8764;fontColor=#ffffff;strokeColor=#3A5431;" vertex="1" parent="OvB7LMG8N5DPpHJsQwpN-98">
          <mxGeometry x="27.57075471698113" y="96.77027027027027" width="78.77358490566037" height="44.54504504504505" as="geometry" />
        </mxCell>
        <mxCell id="OvB7LMG8N5DPpHJsQwpN-105" value="" style="group" vertex="1" connectable="0" parent="1">
          <mxGeometry x="-78" y="-129" width="183" height="180" as="geometry" />
        </mxCell>
        <mxCell id="OvB7LMG8N5DPpHJsQwpN-106" value="&lt;font style=&quot;font-size: 17px;&quot;&gt;Цейлон&lt;/font&gt;" style="strokeWidth=2;html=1;shape=mxgraph.flowchart.database;whiteSpace=wrap;" vertex="1" parent="OvB7LMG8N5DPpHJsQwpN-105">
          <mxGeometry width="136.52203182374544" height="180" as="geometry" />
        </mxCell>
        <mxCell id="OvB7LMG8N5DPpHJsQwpN-107" value="" style="shape=requiredInterface;html=1;verticalLabelPosition=bottom;sketch=0;" vertex="1" parent="OvB7LMG8N5DPpHJsQwpN-105">
          <mxGeometry x="135.51362790697675" y="47.83783783783784" width="47.486372093023256" height="97.72702702702703" as="geometry" />
        </mxCell>
        <mxCell id="OvB7LMG8N5DPpHJsQwpN-108" value="" style="group;fillColor=#e3c800;fontColor=#000000;strokeColor=#B09500;" vertex="1" connectable="0" parent="OvB7LMG8N5DPpHJsQwpN-105">
          <mxGeometry x="25.70511627906976" y="13.783783783783784" width="77.88139534883722" height="31.621621621621625" as="geometry" />
        </mxCell>
        <mxCell id="OvB7LMG8N5DPpHJsQwpN-109" value="" style="verticalLabelPosition=bottom;verticalAlign=top;html=1;shape=mxgraph.basic.rect;fillColor2=none;strokeWidth=1;size=20;indent=5;" vertex="1" parent="OvB7LMG8N5DPpHJsQwpN-108">
          <mxGeometry width="77.88139534883722" height="31.621621621621625" as="geometry" />
        </mxCell>
        <mxCell id="OvB7LMG8N5DPpHJsQwpN-110" value="4" style="text;align=center;fontStyle=1;verticalAlign=middle;spacingLeft=3;spacingRight=3;strokeColor=none;rotatable=0;points=[[0,0.5],[1,0.5]];portConstraint=eastwest;html=1;" vertex="1" parent="OvB7LMG8N5DPpHJsQwpN-108">
          <mxGeometry x="2.5534883720930237" y="3.2432432432432434" width="72.77441860465117" height="25.135135135135137" as="geometry" />
        </mxCell>
        <mxCell id="OvB7LMG8N5DPpHJsQwpN-111" value="Чёрный" style="strokeWidth=2;html=1;shape=mxgraph.flowchart.merge_or_storage;whiteSpace=wrap;fillColor=#647687;fontColor=#ffffff;strokeColor=#314354;" vertex="1" parent="OvB7LMG8N5DPpHJsQwpN-105">
          <mxGeometry x="29.790697674418606" y="102.16216216216216" width="85.11627906976744" height="47.02702702702703" as="geometry" />
        </mxCell>
        <mxCell id="OvB7LMG8N5DPpHJsQwpN-112" value="" style="group" vertex="1" connectable="0" parent="1">
          <mxGeometry x="-558" y="-416.75" width="172" height="189" as="geometry" />
        </mxCell>
        <mxCell id="OvB7LMG8N5DPpHJsQwpN-113" value="&lt;font style=&quot;font-size: 18px;&quot;&gt;Дарджилинг&lt;/font&gt;" style="strokeWidth=2;html=1;shape=mxgraph.flowchart.database;whiteSpace=wrap;" vertex="1" parent="OvB7LMG8N5DPpHJsQwpN-112">
          <mxGeometry width="127.72173489278754" height="181.8804456196627" as="geometry" />
        </mxCell>
        <mxCell id="OvB7LMG8N5DPpHJsQwpN-114" value="" style="shape=requiredInterface;html=1;verticalLabelPosition=bottom;sketch=0;" vertex="1" parent="OvB7LMG8N5DPpHJsQwpN-112">
          <mxGeometry x="127.57504873294347" y="49.028641862691686" width="44.42495126705653" height="98.05728372538337" as="geometry" />
        </mxCell>
        <mxCell id="OvB7LMG8N5DPpHJsQwpN-115" value="Чёрный" style="strokeWidth=2;html=1;shape=mxgraph.flowchart.merge_or_storage;whiteSpace=wrap;fillColor=#647687;fontColor=#ffffff;strokeColor=#314354;" vertex="1" parent="OvB7LMG8N5DPpHJsQwpN-112">
          <mxGeometry x="27.87037037037037" y="103.22944210845722" width="79.62962962962963" height="47.51831462135332" as="geometry" />
        </mxCell>
        <mxCell id="OvB7LMG8N5DPpHJsQwpN-116" value="" style="group" vertex="1" connectable="0" parent="OvB7LMG8N5DPpHJsQwpN-112">
          <mxGeometry x="3.185185185185185" y="4.5115413420807425e-14" width="168.8148148148148" height="181.8804456196627" as="geometry" />
        </mxCell>
        <mxCell id="OvB7LMG8N5DPpHJsQwpN-117" value="" style="group;fillColor=#e3c800;fontColor=#000000;strokeColor=#B09500;" vertex="1" connectable="0" parent="OvB7LMG8N5DPpHJsQwpN-116">
          <mxGeometry x="24.04814814814814" y="13.927781871775974" width="72.86111111111111" height="31.95197017642723" as="geometry" />
        </mxCell>
        <mxCell id="OvB7LMG8N5DPpHJsQwpN-118" value="" style="verticalLabelPosition=bottom;verticalAlign=top;html=1;shape=mxgraph.basic.rect;fillColor2=none;strokeWidth=1;size=20;indent=5;" vertex="1" parent="OvB7LMG8N5DPpHJsQwpN-117">
          <mxGeometry width="72.86111111111111" height="31.95197017642723" as="geometry" />
        </mxCell>
        <mxCell id="OvB7LMG8N5DPpHJsQwpN-119" value="1" style="text;align=center;fontStyle=1;verticalAlign=middle;spacingLeft=3;spacingRight=3;strokeColor=none;rotatable=0;points=[[0,0.5],[1,0.5]];portConstraint=eastwest;html=1;" vertex="1" parent="OvB7LMG8N5DPpHJsQwpN-117">
          <mxGeometry x="2.388888888888889" y="3.2771251463002287" width="68.08333333333333" height="25.397719883826774" as="geometry" />
        </mxCell>
        <mxCell id="OvB7LMG8N5DPpHJsQwpN-120" value="" style="group" vertex="1" connectable="0" parent="1">
          <mxGeometry x="-207" y="284" width="171" height="199.5" as="geometry" />
        </mxCell>
        <mxCell id="OvB7LMG8N5DPpHJsQwpN-121" value="&lt;font style=&quot;font-size: 17px;&quot;&gt;Ройбуш&lt;/font&gt;" style="strokeWidth=2;html=1;shape=mxgraph.flowchart.database;whiteSpace=wrap;" vertex="1" parent="OvB7LMG8N5DPpHJsQwpN-120">
          <mxGeometry width="127.56976744186048" height="199.5" as="geometry" />
        </mxCell>
        <mxCell id="OvB7LMG8N5DPpHJsQwpN-122" value="" style="shape=requiredInterface;html=1;verticalLabelPosition=bottom;sketch=0;" vertex="1" parent="OvB7LMG8N5DPpHJsQwpN-120">
          <mxGeometry x="126.62748837209303" y="53.020270270270274" width="44.372511627906974" height="108.31412162162162" as="geometry" />
        </mxCell>
        <mxCell id="OvB7LMG8N5DPpHJsQwpN-123" value="" style="group;fillColor=#e3c800;fontColor=#000000;strokeColor=#B09500;" vertex="1" connectable="0" parent="OvB7LMG8N5DPpHJsQwpN-120">
          <mxGeometry x="24.01953488372092" y="15.277027027027028" width="72.77441860465116" height="35.0472972972973" as="geometry" />
        </mxCell>
        <mxCell id="OvB7LMG8N5DPpHJsQwpN-124" value="" style="verticalLabelPosition=bottom;verticalAlign=top;html=1;shape=mxgraph.basic.rect;fillColor2=none;strokeWidth=1;size=20;indent=5;" vertex="1" parent="OvB7LMG8N5DPpHJsQwpN-123">
          <mxGeometry width="72.77441860465116" height="35.0472972972973" as="geometry" />
        </mxCell>
        <mxCell id="OvB7LMG8N5DPpHJsQwpN-125" value="8" style="text;align=center;fontStyle=1;verticalAlign=middle;spacingLeft=3;spacingRight=3;strokeColor=none;rotatable=0;points=[[0,0.5],[1,0.5]];portConstraint=eastwest;html=1;" vertex="1" parent="OvB7LMG8N5DPpHJsQwpN-123">
          <mxGeometry x="2.3860465116279066" y="3.5945945945945947" width="68.00232558139534" height="27.85810810810811" as="geometry" />
        </mxCell>
        <mxCell id="OvB7LMG8N5DPpHJsQwpN-126" value="Травяной" style="strokeWidth=2;html=1;shape=mxgraph.flowchart.merge_or_storage;whiteSpace=wrap;fillColor=#B9E0A5;fontColor=#ffffff;strokeColor=#314354;" vertex="1" parent="OvB7LMG8N5DPpHJsQwpN-120">
          <mxGeometry x="27.83720930232558" y="113.22972972972974" width="79.53488372093022" height="52.12162162162162" as="geometry" />
        </mxCell>
        <mxCell id="OvB7LMG8N5DPpHJsQwpN-127" value="" style="group" vertex="1" connectable="0" parent="1">
          <mxGeometry x="-260" y="-283" width="171" height="191" as="geometry" />
        </mxCell>
        <mxCell id="OvB7LMG8N5DPpHJsQwpN-128" value="" style="group" vertex="1" connectable="0" parent="OvB7LMG8N5DPpHJsQwpN-127">
          <mxGeometry x="-8.872641509433961" y="6.0225225225225225" width="172.61320754716982" height="191" as="geometry" />
        </mxCell>
        <mxCell id="OvB7LMG8N5DPpHJsQwpN-129" value="&lt;font style=&quot;font-size: 18px;&quot;&gt;Улун&lt;/font&gt;" style="strokeWidth=2;html=1;shape=mxgraph.flowchart.database;whiteSpace=wrap;" vertex="1" parent="OvB7LMG8N5DPpHJsQwpN-128">
          <mxGeometry width="129.37500000000003" height="191" as="geometry" />
        </mxCell>
        <mxCell id="OvB7LMG8N5DPpHJsQwpN-130" value="" style="shape=requiredInterface;html=1;verticalLabelPosition=bottom;sketch=0;" vertex="1" parent="OvB7LMG8N5DPpHJsQwpN-128">
          <mxGeometry x="127.61320754716984" y="51.48695652173913" width="45.00000000000001" height="102.97391304347826" as="geometry" />
        </mxCell>
        <mxCell id="OvB7LMG8N5DPpHJsQwpN-131" value="" style="group;fillColor=#e3c800;fontColor=#000000;strokeColor=#B09500;" vertex="1" connectable="0" parent="OvB7LMG8N5DPpHJsQwpN-128">
          <mxGeometry x="24.359433962264145" y="14.626126126126126" width="73.80424528301887" height="33.554054054054056" as="geometry" />
        </mxCell>
        <mxCell id="OvB7LMG8N5DPpHJsQwpN-132" value="" style="verticalLabelPosition=bottom;verticalAlign=top;html=1;shape=mxgraph.basic.rect;fillColor2=none;strokeWidth=1;size=20;indent=5;" vertex="1" parent="OvB7LMG8N5DPpHJsQwpN-131">
          <mxGeometry width="73.80424528301887" height="33.554054054054056" as="geometry" />
        </mxCell>
        <mxCell id="OvB7LMG8N5DPpHJsQwpN-133" value="7" style="text;align=center;fontStyle=1;verticalAlign=middle;spacingLeft=3;spacingRight=3;strokeColor=none;rotatable=0;points=[[0,0.5],[1,0.5]];portConstraint=eastwest;html=1;" vertex="1" parent="OvB7LMG8N5DPpHJsQwpN-131">
          <mxGeometry x="2.419811320754717" y="3.441441441441442" width="68.96462264150944" height="26.671171171171174" as="geometry" />
        </mxCell>
        <mxCell id="OvB7LMG8N5DPpHJsQwpN-134" value="Улун" style="strokeWidth=2;html=1;shape=mxgraph.flowchart.merge_or_storage;whiteSpace=wrap;fillColor=#2C5700;fontColor=#ffffff;strokeColor=#3A5431;" vertex="1" parent="OvB7LMG8N5DPpHJsQwpN-128">
          <mxGeometry x="28.231132075471702" y="108.4054054054054" width="80.66037735849058" height="49.9009009009009" as="geometry" />
        </mxCell>
        <mxCell id="OvB7LMG8N5DPpHJsQwpN-135" value="" style="group" vertex="1" connectable="0" parent="1">
          <mxGeometry x="-284" y="-661" width="180" height="191" as="geometry" />
        </mxCell>
        <mxCell id="OvB7LMG8N5DPpHJsQwpN-136" value="&lt;p style=&quot;white-space-collapse: preserve;&quot; dir=&quot;auto&quot;&gt;&lt;font style=&quot;font-size: 18px;&quot;&gt;Бай Му Дань&lt;/font&gt;&lt;/p&gt;" style="strokeWidth=2;html=1;shape=mxgraph.flowchart.database;whiteSpace=wrap;" vertex="1" parent="OvB7LMG8N5DPpHJsQwpN-135">
          <mxGeometry width="136.1842105263158" height="191" as="geometry" />
        </mxCell>
        <mxCell id="OvB7LMG8N5DPpHJsQwpN-137" value="" style="shape=requiredInterface;html=1;verticalLabelPosition=bottom;sketch=0;" vertex="1" parent="OvB7LMG8N5DPpHJsQwpN-135">
          <mxGeometry x="135.17874875868918" y="51.48695652173913" width="47.36842105263158" height="102.97391304347826" as="geometry" />
        </mxCell>
        <mxCell id="OvB7LMG8N5DPpHJsQwpN-138" value="" style="group;fillColor=#e3c800;fontColor=#000000;strokeColor=#B09500;" vertex="1" connectable="0" parent="OvB7LMG8N5DPpHJsQwpN-135">
          <mxGeometry x="25.641509433962256" y="14.626126126126126" width="77.68867924528303" height="33.554054054054056" as="geometry" />
        </mxCell>
        <mxCell id="OvB7LMG8N5DPpHJsQwpN-139" value="" style="verticalLabelPosition=bottom;verticalAlign=top;html=1;shape=mxgraph.basic.rect;fillColor2=none;strokeWidth=1;size=20;indent=5;" vertex="1" parent="OvB7LMG8N5DPpHJsQwpN-138">
          <mxGeometry width="77.68867924528303" height="33.554054054054056" as="geometry" />
        </mxCell>
        <mxCell id="OvB7LMG8N5DPpHJsQwpN-140" value="10" style="text;align=center;fontStyle=1;verticalAlign=middle;spacingLeft=3;spacingRight=3;strokeColor=none;rotatable=0;points=[[0,0.5],[1,0.5]];portConstraint=eastwest;html=1;" vertex="1" parent="OvB7LMG8N5DPpHJsQwpN-138">
          <mxGeometry x="2.547169811320755" y="3.441441441441442" width="72.59433962264151" height="26.671171171171174" as="geometry" />
        </mxCell>
        <mxCell id="OvB7LMG8N5DPpHJsQwpN-141" value="Белый" style="strokeWidth=2;html=1;shape=mxgraph.flowchart.merge_or_storage;whiteSpace=wrap;fillColor=#f5f5f5;fontColor=#333333;strokeColor=#666666;" vertex="1" parent="OvB7LMG8N5DPpHJsQwpN-135">
          <mxGeometry x="29.716981132075475" y="108.4054054054054" width="84.90566037735849" height="49.9009009009009" as="geometry" />
        </mxCell>
        <mxCell id="OvB7LMG8N5DPpHJsQwpN-142" value="" style="group" vertex="1" connectable="0" parent="1">
          <mxGeometry x="-536" y="-644" width="188" height="174" as="geometry" />
        </mxCell>
        <mxCell id="OvB7LMG8N5DPpHJsQwpN-143" value="&lt;p style=&quot;white-space-collapse: preserve;&quot; dir=&quot;auto&quot;&gt;&lt;font style=&quot;font-size: 18px;&quot;&gt;Лапсанг Сушонг&lt;/font&gt;&lt;/p&gt;" style="strokeWidth=2;html=1;shape=mxgraph.flowchart.database;whiteSpace=wrap;" vertex="1" parent="OvB7LMG8N5DPpHJsQwpN-142">
          <mxGeometry width="140.25214198286415" height="174" as="geometry" />
        </mxCell>
        <mxCell id="OvB7LMG8N5DPpHJsQwpN-144" value="" style="shape=requiredInterface;html=1;verticalLabelPosition=bottom;sketch=0;" vertex="1" parent="OvB7LMG8N5DPpHJsQwpN-142">
          <mxGeometry x="139.2161860465116" y="46.24324324324324" width="48.78381395348837" height="94.46945945945946" as="geometry" />
        </mxCell>
        <mxCell id="OvB7LMG8N5DPpHJsQwpN-145" value="" style="group;fillColor=#e3c800;fontColor=#000000;strokeColor=#B09500;" vertex="1" connectable="0" parent="OvB7LMG8N5DPpHJsQwpN-142">
          <mxGeometry x="26.407441860465106" y="13.324324324324325" width="80.0093023255814" height="30.567567567567565" as="geometry" />
        </mxCell>
        <mxCell id="OvB7LMG8N5DPpHJsQwpN-146" value="" style="verticalLabelPosition=bottom;verticalAlign=top;html=1;shape=mxgraph.basic.rect;fillColor2=none;strokeWidth=1;size=20;indent=5;" vertex="1" parent="OvB7LMG8N5DPpHJsQwpN-145">
          <mxGeometry width="80.0093023255814" height="30.567567567567565" as="geometry" />
        </mxCell>
        <mxCell id="OvB7LMG8N5DPpHJsQwpN-147" value="9" style="text;align=center;fontStyle=1;verticalAlign=middle;spacingLeft=3;spacingRight=3;strokeColor=none;rotatable=0;points=[[0,0.5],[1,0.5]];portConstraint=eastwest;html=1;" vertex="1" parent="OvB7LMG8N5DPpHJsQwpN-145">
          <mxGeometry x="2.6232558139534885" y="3.135135135135135" width="74.76279069767442" height="24.297297297297295" as="geometry" />
        </mxCell>
        <mxCell id="OvB7LMG8N5DPpHJsQwpN-148" value="Чёрный" style="strokeWidth=2;html=1;shape=mxgraph.flowchart.merge_or_storage;whiteSpace=wrap;fillColor=#647687;fontColor=#ffffff;strokeColor=#314354;" vertex="1" parent="OvB7LMG8N5DPpHJsQwpN-142">
          <mxGeometry x="30.60465116279069" y="98.75675675675676" width="87.44186046511628" height="45.45945945945946" as="geometry" />
        </mxCell>
        <mxCell id="OvB7LMG8N5DPpHJsQwpN-149" style="edgeStyle=orthogonalEdgeStyle;rounded=0;orthogonalLoop=1;jettySize=auto;html=1;exitX=1;exitY=0.5;exitDx=0;exitDy=0;exitPerimeter=0;entryX=0.032;entryY=0.571;entryDx=0;entryDy=0;entryPerimeter=0;" edge="1" parent="1" source="OvB7LMG8N5DPpHJsQwpN-113" target="AainXPFVG76OlM5r3rVR-2">
          <mxGeometry relative="1" as="geometry" />
        </mxCell>
        <mxCell id="OvB7LMG8N5DPpHJsQwpN-155" style="edgeStyle=orthogonalEdgeStyle;rounded=0;orthogonalLoop=1;jettySize=auto;html=1;exitX=0;exitY=0.15;exitDx=0;exitDy=0;exitPerimeter=0;entryX=1;entryY=0.5;entryDx=0;entryDy=0;entryPerimeter=0;" edge="1" parent="1" source="OvB7LMG8N5DPpHJsQwpN-83" target="AainXPFVG76OlM5r3rVR-2">
          <mxGeometry relative="1" as="geometry" />
        </mxCell>
        <mxCell id="OvB7LMG8N5DPpHJsQwpN-156" style="edgeStyle=orthogonalEdgeStyle;rounded=0;orthogonalLoop=1;jettySize=auto;html=1;exitX=0.5;exitY=1;exitDx=0;exitDy=0;exitPerimeter=0;entryX=0.145;entryY=0.145;entryDx=0;entryDy=0;entryPerimeter=0;" edge="1" parent="1" source="OvB7LMG8N5DPpHJsQwpN-106" target="AainXPFVG76OlM5r3rVR-15">
          <mxGeometry relative="1" as="geometry" />
        </mxCell>
        <mxCell id="OvB7LMG8N5DPpHJsQwpN-157" style="edgeStyle=orthogonalEdgeStyle;rounded=0;orthogonalLoop=1;jettySize=auto;html=1;exitX=0.5;exitY=0;exitDx=0;exitDy=0;exitPerimeter=0;entryX=0.855;entryY=0.855;entryDx=0;entryDy=0;entryPerimeter=0;" edge="1" parent="1" source="OvB7LMG8N5DPpHJsQwpN-76" target="AainXPFVG76OlM5r3rVR-9">
          <mxGeometry relative="1" as="geometry">
            <Array as="points">
              <mxPoint x="-654" y="155" />
            </Array>
          </mxGeometry>
        </mxCell>
        <mxCell id="OvB7LMG8N5DPpHJsQwpN-158" style="edgeStyle=orthogonalEdgeStyle;rounded=0;orthogonalLoop=1;jettySize=auto;html=1;exitX=0.5;exitY=0;exitDx=0;exitDy=0;exitPerimeter=0;entryX=0.5;entryY=1;entryDx=0;entryDy=0;entryPerimeter=0;" edge="1" parent="1" source="OvB7LMG8N5DPpHJsQwpN-99" target="AainXPFVG76OlM5r3rVR-22">
          <mxGeometry relative="1" as="geometry" />
        </mxCell>
        <mxCell id="OvB7LMG8N5DPpHJsQwpN-159" style="edgeStyle=orthogonalEdgeStyle;rounded=0;orthogonalLoop=1;jettySize=auto;html=1;exitX=0.5;exitY=1;exitDx=0;exitDy=0;exitPerimeter=0;entryX=0.331;entryY=0.041;entryDx=0;entryDy=0;entryPerimeter=0;" edge="1" parent="1" source="OvB7LMG8N5DPpHJsQwpN-92" target="AainXPFVG76OlM5r3rVR-20">
          <mxGeometry relative="1" as="geometry" />
        </mxCell>
        <mxCell id="OvB7LMG8N5DPpHJsQwpN-160" style="edgeStyle=orthogonalEdgeStyle;rounded=0;orthogonalLoop=1;jettySize=auto;html=1;exitX=0;exitY=0.5;exitDx=0;exitDy=0;exitPerimeter=0;entryX=0.5;entryY=1;entryDx=0;entryDy=0;entryPerimeter=0;" edge="1" parent="1" source="OvB7LMG8N5DPpHJsQwpN-129" target="AainXPFVG76OlM5r3rVR-4">
          <mxGeometry relative="1" as="geometry" />
        </mxCell>
        <mxCell id="OvB7LMG8N5DPpHJsQwpN-161" style="edgeStyle=orthogonalEdgeStyle;rounded=0;orthogonalLoop=1;jettySize=auto;html=1;exitX=0.5;exitY=0;exitDx=0;exitDy=0;exitPerimeter=0;entryX=0.5;entryY=1;entryDx=0;entryDy=0;entryPerimeter=0;" edge="1" parent="1" source="OvB7LMG8N5DPpHJsQwpN-121" target="AainXPFVG76OlM5r3rVR-47">
          <mxGeometry relative="1" as="geometry" />
        </mxCell>
        <mxCell id="OvB7LMG8N5DPpHJsQwpN-162" style="edgeStyle=orthogonalEdgeStyle;rounded=0;orthogonalLoop=1;jettySize=auto;html=1;exitX=0.5;exitY=1;exitDx=0;exitDy=0;exitPerimeter=0;entryX=0;entryY=0;entryDx=0;entryDy=0;" edge="1" parent="1" source="OvB7LMG8N5DPpHJsQwpN-143" target="AainXPFVG76OlM5r3rVR-5">
          <mxGeometry relative="1" as="geometry" />
        </mxCell>
        <mxCell id="OvB7LMG8N5DPpHJsQwpN-163" style="edgeStyle=orthogonalEdgeStyle;rounded=0;orthogonalLoop=1;jettySize=auto;html=1;exitX=0.5;exitY=1;exitDx=0;exitDy=0;exitPerimeter=0;entryX=0.905;entryY=-0.065;entryDx=0;entryDy=0;entryPerimeter=0;" edge="1" parent="1" source="OvB7LMG8N5DPpHJsQwpN-136" target="AainXPFVG76OlM5r3rVR-3">
          <mxGeometry relative="1" as="geometry" />
        </mxCell>
      </root>
    </mxGraphModel>
  </diagram>
  <diagram id="WpnxhfesQFSPL_Xc_Mj1" name="Likes">
    <mxGraphModel dx="1653" dy="1833" grid="1" gridSize="10" guides="1" tooltips="1" connect="1" arrows="1" fold="1" page="1" pageScale="1" pageWidth="827" pageHeight="1169" math="0" shadow="0">
      <root>
        <mxCell id="0" />
        <mxCell id="1" parent="0" />
        <mxCell id="XlTuckfJaByN5dUXYVz2-1" value="&lt;p dir=&quot;auto&quot; style=&quot;white-space: pre-wrap;&quot;&gt;&lt;font style=&quot;font-size: 48px;&quot;&gt;&lt;b&gt;Likes&lt;/b&gt;&lt;/font&gt;&lt;/p&gt;" style="text;whiteSpace=wrap;html=1;" vertex="1" parent="1">
          <mxGeometry x="-300" y="-820" width="60" height="60" as="geometry" />
        </mxCell>
        <mxCell id="2I5b1_9o0vqaWvXaGw6R-1" value="" style="group" vertex="1" connectable="0" parent="1">
          <mxGeometry x="-360" y="-440" width="160" height="162" as="geometry" />
        </mxCell>
        <mxCell id="2I5b1_9o0vqaWvXaGw6R-2" value="&lt;font style=&quot;font-size: 18px;&quot;&gt;Ассам&lt;/font&gt;" style="strokeWidth=2;html=1;shape=mxgraph.flowchart.database;whiteSpace=wrap;" vertex="1" parent="2I5b1_9o0vqaWvXaGw6R-1">
          <mxGeometry width="121.05263157894738" height="162" as="geometry" />
        </mxCell>
        <mxCell id="2I5b1_9o0vqaWvXaGw6R-3" value="" style="shape=requiredInterface;html=1;verticalLabelPosition=bottom;sketch=0;" vertex="1" parent="2I5b1_9o0vqaWvXaGw6R-1">
          <mxGeometry x="120.15888778550149" y="43.6695652173913" width="42.10526315789474" height="87.3391304347826" as="geometry" />
        </mxCell>
        <mxCell id="2I5b1_9o0vqaWvXaGw6R-4" value="" style="group;fillColor=#e3c800;fontColor=#000000;strokeColor=#B09500;" vertex="1" connectable="0" parent="2I5b1_9o0vqaWvXaGw6R-1">
          <mxGeometry x="22.79245283018867" y="12.405405405405403" width="69.05660377358491" height="28.459459459459456" as="geometry" />
        </mxCell>
        <mxCell id="2I5b1_9o0vqaWvXaGw6R-5" value="" style="verticalLabelPosition=bottom;verticalAlign=top;html=1;shape=mxgraph.basic.rect;fillColor2=none;strokeWidth=1;size=20;indent=5;" vertex="1" parent="2I5b1_9o0vqaWvXaGw6R-4">
          <mxGeometry width="69.05660377358491" height="28.459459459459456" as="geometry" />
        </mxCell>
        <mxCell id="2I5b1_9o0vqaWvXaGw6R-6" value="5" style="text;align=center;fontStyle=1;verticalAlign=middle;spacingLeft=3;spacingRight=3;strokeColor=none;rotatable=0;points=[[0,0.5],[1,0.5]];portConstraint=eastwest;html=1;" vertex="1" parent="2I5b1_9o0vqaWvXaGw6R-4">
          <mxGeometry x="2.2641509433962264" y="2.9189189189189184" width="64.52830188679245" height="22.621621621621617" as="geometry" />
        </mxCell>
        <mxCell id="2I5b1_9o0vqaWvXaGw6R-7" value="Чёрный" style="strokeWidth=2;html=1;shape=mxgraph.flowchart.merge_or_storage;whiteSpace=wrap;fillColor=#647687;fontColor=#ffffff;strokeColor=#314354;" vertex="1" parent="2I5b1_9o0vqaWvXaGw6R-1">
          <mxGeometry x="26.41509433962264" y="91.94594594594594" width="75.47169811320754" height="42.324324324324316" as="geometry" />
        </mxCell>
        <mxCell id="2I5b1_9o0vqaWvXaGw6R-8" value="" style="group" vertex="1" connectable="0" parent="1">
          <mxGeometry x="-594" y="-240" width="154" height="147" as="geometry" />
        </mxCell>
        <mxCell id="2I5b1_9o0vqaWvXaGw6R-9" value="&lt;font style=&quot;font-size: 18px;&quot;&gt;Пуэр&lt;/font&gt;" style="strokeWidth=2;html=1;shape=mxgraph.flowchart.database;whiteSpace=wrap;" vertex="1" parent="2I5b1_9o0vqaWvXaGw6R-8">
          <mxGeometry width="116.51315789473685" height="147" as="geometry" />
        </mxCell>
        <mxCell id="2I5b1_9o0vqaWvXaGw6R-10" value="" style="shape=requiredInterface;html=1;verticalLabelPosition=bottom;sketch=0;" vertex="1" parent="2I5b1_9o0vqaWvXaGw6R-8">
          <mxGeometry x="114.92651439920556" y="39.62608695652174" width="40.526315789473685" height="79.25217391304348" as="geometry" />
        </mxCell>
        <mxCell id="2I5b1_9o0vqaWvXaGw6R-11" value="" style="group;fillColor=#e3c800;fontColor=#000000;strokeColor=#B09500;" vertex="1" connectable="0" parent="2I5b1_9o0vqaWvXaGw6R-8">
          <mxGeometry x="21.937735849056597" y="11.256756756756756" width="66.46698113207547" height="25.824324324324323" as="geometry" />
        </mxCell>
        <mxCell id="2I5b1_9o0vqaWvXaGw6R-12" value="" style="verticalLabelPosition=bottom;verticalAlign=top;html=1;shape=mxgraph.basic.rect;fillColor2=none;strokeWidth=1;size=20;indent=5;" vertex="1" parent="2I5b1_9o0vqaWvXaGw6R-11">
          <mxGeometry width="66.46698113207547" height="25.824324324324323" as="geometry" />
        </mxCell>
        <mxCell id="2I5b1_9o0vqaWvXaGw6R-13" value="3" style="text;align=center;fontStyle=1;verticalAlign=middle;spacingLeft=3;spacingRight=3;strokeColor=none;rotatable=0;points=[[0,0.5],[1,0.5]];portConstraint=eastwest;html=1;" vertex="1" parent="2I5b1_9o0vqaWvXaGw6R-11">
          <mxGeometry x="2.179245283018868" y="2.6486486486486487" width="62.10849056603775" height="20.527027027027028" as="geometry" />
        </mxCell>
        <mxCell id="2I5b1_9o0vqaWvXaGw6R-14" value="" style="strokeWidth=2;html=1;shape=mxgraph.flowchart.merge_or_storage;whiteSpace=wrap;fillColor=#FFBAD8;strokeColor=#36393d;" vertex="1" parent="2I5b1_9o0vqaWvXaGw6R-8">
          <mxGeometry x="13.80188679245283" y="88.72972972972973" width="84.26415094339623" height="39.72972972972973" as="geometry" />
        </mxCell>
        <mxCell id="2I5b1_9o0vqaWvXaGw6R-15" value="&lt;font style=&quot;color: rgb(255, 255, 255); font-weight: 400; text-wrap-mode: wrap; font-size: 10px;&quot;&gt;Фермен-&lt;/font&gt;&lt;div style=&quot;color: rgb(255, 255, 255); font-weight: 400; text-wrap-mode: wrap;&quot;&gt;&lt;font style=&quot;font-size: 10px;&quot;&gt;тированный&lt;/font&gt;&lt;/div&gt;" style="text;align=center;fontStyle=1;verticalAlign=middle;spacingLeft=3;spacingRight=3;strokeColor=none;rotatable=0;points=[[0,0.5],[1,0.5]];portConstraint=eastwest;html=1;" vertex="1" parent="2I5b1_9o0vqaWvXaGw6R-8">
          <mxGeometry x="24.69811320754717" y="90.71621621621621" width="59.529716981132076" height="18.54054054054054" as="geometry" />
        </mxCell>
        <mxCell id="2I5b1_9o0vqaWvXaGw6R-16" value="" style="group" vertex="1" connectable="0" parent="1">
          <mxGeometry x="-594" y="-430" width="154" height="162" as="geometry" />
        </mxCell>
        <mxCell id="2I5b1_9o0vqaWvXaGw6R-17" value="" style="group" vertex="1" connectable="0" parent="2I5b1_9o0vqaWvXaGw6R-16">
          <mxGeometry x="-2.179245283018868" y="-9.414107479572596" width="155.45283018867926" height="162" as="geometry" />
        </mxCell>
        <mxCell id="2I5b1_9o0vqaWvXaGw6R-18" value="&lt;font style=&quot;font-size: 18px;&quot;&gt;Матча&lt;/font&gt;" style="strokeWidth=2;html=1;shape=mxgraph.flowchart.database;whiteSpace=wrap;" vertex="1" parent="2I5b1_9o0vqaWvXaGw6R-17">
          <mxGeometry width="116.51315789473685" height="162" as="geometry" />
        </mxCell>
        <mxCell id="2I5b1_9o0vqaWvXaGw6R-19" value="" style="shape=requiredInterface;html=1;verticalLabelPosition=bottom;sketch=0;" vertex="1" parent="2I5b1_9o0vqaWvXaGw6R-17">
          <mxGeometry x="114.92651439920554" y="43.6695652173913" width="40.526315789473685" height="87.3391304347826" as="geometry" />
        </mxCell>
        <mxCell id="2I5b1_9o0vqaWvXaGw6R-20" value="" style="group;fillColor=#e3c800;fontColor=#000000;strokeColor=#B09500;" vertex="1" connectable="0" parent="2I5b1_9o0vqaWvXaGw6R-17">
          <mxGeometry x="21.937735849056594" y="12.405405405405405" width="66.46698113207547" height="28.459459459459456" as="geometry" />
        </mxCell>
        <mxCell id="2I5b1_9o0vqaWvXaGw6R-21" value="" style="verticalLabelPosition=bottom;verticalAlign=top;html=1;shape=mxgraph.basic.rect;fillColor2=none;strokeWidth=1;size=20;indent=5;" vertex="1" parent="2I5b1_9o0vqaWvXaGw6R-20">
          <mxGeometry width="66.46698113207547" height="28.459459459459456" as="geometry" />
        </mxCell>
        <mxCell id="2I5b1_9o0vqaWvXaGw6R-22" value="2" style="text;align=center;fontStyle=1;verticalAlign=middle;spacingLeft=3;spacingRight=3;strokeColor=none;rotatable=0;points=[[0,0.5],[1,0.5]];portConstraint=eastwest;html=1;" vertex="1" parent="2I5b1_9o0vqaWvXaGw6R-20">
          <mxGeometry x="2.179245283018868" y="2.918918918918919" width="62.10849056603774" height="22.62162162162162" as="geometry" />
        </mxCell>
        <mxCell id="2I5b1_9o0vqaWvXaGw6R-23" value="Зелёный" style="strokeWidth=2;html=1;shape=mxgraph.flowchart.merge_or_storage;whiteSpace=wrap;fillColor=#6d8764;fontColor=#ffffff;strokeColor=#3A5431;" vertex="1" parent="2I5b1_9o0vqaWvXaGw6R-17">
          <mxGeometry x="9.22" y="99.41" width="98.07" height="42.32" as="geometry" />
        </mxCell>
        <mxCell id="2I5b1_9o0vqaWvXaGw6R-24" value="" style="group" vertex="1" connectable="0" parent="1">
          <mxGeometry x="-360" y="-230" width="160" height="154" as="geometry" />
        </mxCell>
        <mxCell id="2I5b1_9o0vqaWvXaGw6R-25" value="&lt;font style=&quot;font-size: 18px;&quot;&gt;Сенча&lt;/font&gt;" style="strokeWidth=2;html=1;shape=mxgraph.flowchart.database;whiteSpace=wrap;" vertex="1" parent="2I5b1_9o0vqaWvXaGw6R-24">
          <mxGeometry width="121.05263157894737" height="154" as="geometry" />
        </mxCell>
        <mxCell id="2I5b1_9o0vqaWvXaGw6R-26" value="" style="shape=requiredInterface;html=1;verticalLabelPosition=bottom;sketch=0;" vertex="1" parent="2I5b1_9o0vqaWvXaGw6R-24">
          <mxGeometry x="119.4041708043694" y="41.513043478260876" width="42.10526315789473" height="83.02608695652175" as="geometry" />
        </mxCell>
        <mxCell id="2I5b1_9o0vqaWvXaGw6R-27" value="" style="group;fillColor=#e3c800;fontColor=#000000;strokeColor=#B09500;" vertex="1" connectable="0" parent="2I5b1_9o0vqaWvXaGw6R-24">
          <mxGeometry x="22.79245283018867" y="11.792792792792794" width="69.0566037735849" height="27.054054054054056" as="geometry" />
        </mxCell>
        <mxCell id="2I5b1_9o0vqaWvXaGw6R-28" value="" style="verticalLabelPosition=bottom;verticalAlign=top;html=1;shape=mxgraph.basic.rect;fillColor2=none;strokeWidth=1;size=20;indent=5;" vertex="1" parent="2I5b1_9o0vqaWvXaGw6R-27">
          <mxGeometry width="69.0566037735849" height="27.054054054054056" as="geometry" />
        </mxCell>
        <mxCell id="2I5b1_9o0vqaWvXaGw6R-29" value="6" style="text;align=center;fontStyle=1;verticalAlign=middle;spacingLeft=3;spacingRight=3;strokeColor=none;rotatable=0;points=[[0,0.5],[1,0.5]];portConstraint=eastwest;html=1;" vertex="1" parent="2I5b1_9o0vqaWvXaGw6R-27">
          <mxGeometry x="2.264150943396226" y="2.774774774774775" width="64.52830188679245" height="21.504504504504503" as="geometry" />
        </mxCell>
        <mxCell id="2I5b1_9o0vqaWvXaGw6R-30" value="Зелёный" style="strokeWidth=2;html=1;shape=mxgraph.flowchart.merge_or_storage;whiteSpace=wrap;fillColor=#6d8764;fontColor=#ffffff;strokeColor=#3A5431;" vertex="1" parent="2I5b1_9o0vqaWvXaGw6R-24">
          <mxGeometry x="26.41509433962264" y="87.4054054054054" width="75.47169811320755" height="40.23423423423423" as="geometry" />
        </mxCell>
        <mxCell id="2I5b1_9o0vqaWvXaGw6R-31" value="" style="group" vertex="1" connectable="0" parent="1">
          <mxGeometry x="-322" y="-668" width="172" height="168" as="geometry" />
        </mxCell>
        <mxCell id="2I5b1_9o0vqaWvXaGw6R-32" value="&lt;font style=&quot;font-size: 17px;&quot;&gt;Цейлон&lt;/font&gt;" style="strokeWidth=2;html=1;shape=mxgraph.flowchart.database;whiteSpace=wrap;" vertex="1" parent="2I5b1_9o0vqaWvXaGw6R-31">
          <mxGeometry width="128.31578947368425" height="168" as="geometry" />
        </mxCell>
        <mxCell id="2I5b1_9o0vqaWvXaGw6R-33" value="" style="shape=requiredInterface;html=1;verticalLabelPosition=bottom;sketch=0;" vertex="1" parent="2I5b1_9o0vqaWvXaGw6R-31">
          <mxGeometry x="127.36800000000001" y="44.64864864864865" width="44.632000000000005" height="91.2118918918919" as="geometry" />
        </mxCell>
        <mxCell id="2I5b1_9o0vqaWvXaGw6R-34" value="" style="group;fillColor=#e3c800;fontColor=#000000;strokeColor=#B09500;" vertex="1" connectable="0" parent="2I5b1_9o0vqaWvXaGw6R-31">
          <mxGeometry x="24.159999999999993" y="12.864864864864865" width="73.2" height="29.513513513513516" as="geometry" />
        </mxCell>
        <mxCell id="2I5b1_9o0vqaWvXaGw6R-35" value="" style="verticalLabelPosition=bottom;verticalAlign=top;html=1;shape=mxgraph.basic.rect;fillColor2=none;strokeWidth=1;size=20;indent=5;" vertex="1" parent="2I5b1_9o0vqaWvXaGw6R-34">
          <mxGeometry width="73.2" height="29.513513513513516" as="geometry" />
        </mxCell>
        <mxCell id="2I5b1_9o0vqaWvXaGw6R-36" value="4" style="text;align=center;fontStyle=1;verticalAlign=middle;spacingLeft=3;spacingRight=3;strokeColor=none;rotatable=0;points=[[0,0.5],[1,0.5]];portConstraint=eastwest;html=1;" vertex="1" parent="2I5b1_9o0vqaWvXaGw6R-34">
          <mxGeometry x="2.4000000000000004" y="3.027027027027027" width="68.4" height="23.45945945945946" as="geometry" />
        </mxCell>
        <mxCell id="2I5b1_9o0vqaWvXaGw6R-37" value="Чёрный" style="strokeWidth=2;html=1;shape=mxgraph.flowchart.merge_or_storage;whiteSpace=wrap;fillColor=#647687;fontColor=#ffffff;strokeColor=#314354;" vertex="1" parent="2I5b1_9o0vqaWvXaGw6R-31">
          <mxGeometry x="28" y="95.35135135135135" width="80" height="43.891891891891895" as="geometry" />
        </mxCell>
        <mxCell id="2I5b1_9o0vqaWvXaGw6R-38" value="" style="group" vertex="1" connectable="0" parent="1">
          <mxGeometry x="-580" y="-676.69" width="170" height="186.69" as="geometry" />
        </mxCell>
        <mxCell id="2I5b1_9o0vqaWvXaGw6R-39" value="&lt;font style=&quot;font-size: 18px;&quot;&gt;Дарджилинг&lt;/font&gt;" style="strokeWidth=2;html=1;shape=mxgraph.flowchart.database;whiteSpace=wrap;" vertex="1" parent="2I5b1_9o0vqaWvXaGw6R-38">
          <mxGeometry width="126.23659844054583" height="179.65746239542239" as="geometry" />
        </mxCell>
        <mxCell id="2I5b1_9o0vqaWvXaGw6R-40" value="" style="shape=requiredInterface;html=1;verticalLabelPosition=bottom;sketch=0;" vertex="1" parent="2I5b1_9o0vqaWvXaGw6R-38">
          <mxGeometry x="126.09161793372321" y="48.429402906592124" width="43.90838206627681" height="96.85880581318425" as="geometry" />
        </mxCell>
        <mxCell id="2I5b1_9o0vqaWvXaGw6R-41" value="Чёрный" style="strokeWidth=2;html=1;shape=mxgraph.flowchart.merge_or_storage;whiteSpace=wrap;fillColor=#647687;fontColor=#ffffff;strokeColor=#314354;" vertex="1" parent="2I5b1_9o0vqaWvXaGw6R-38">
          <mxGeometry x="27.546296296296298" y="101.96774892713162" width="78.70370370370371" height="46.93753522042567" as="geometry" />
        </mxCell>
        <mxCell id="2I5b1_9o0vqaWvXaGw6R-42" value="" style="group" vertex="1" connectable="0" parent="2I5b1_9o0vqaWvXaGw6R-38">
          <mxGeometry x="3.1481481481481484" y="4.4564002812330893e-14" width="166.85185185185188" height="179.65746239542239" as="geometry" />
        </mxCell>
        <mxCell id="2I5b1_9o0vqaWvXaGw6R-43" value="" style="group;fillColor=#e3c800;fontColor=#000000;strokeColor=#B09500;" vertex="1" connectable="0" parent="2I5b1_9o0vqaWvXaGw6R-42">
          <mxGeometry x="23.768518518518515" y="13.75755342667649" width="72.0138888888889" height="31.561446096493125" as="geometry" />
        </mxCell>
        <mxCell id="2I5b1_9o0vqaWvXaGw6R-44" value="" style="verticalLabelPosition=bottom;verticalAlign=top;html=1;shape=mxgraph.basic.rect;fillColor2=none;strokeWidth=1;size=20;indent=5;" vertex="1" parent="2I5b1_9o0vqaWvXaGw6R-43">
          <mxGeometry width="72.0138888888889" height="31.561446096493125" as="geometry" />
        </mxCell>
        <mxCell id="2I5b1_9o0vqaWvXaGw6R-45" value="1" style="text;align=center;fontStyle=1;verticalAlign=middle;spacingLeft=3;spacingRight=3;strokeColor=none;rotatable=0;points=[[0,0.5],[1,0.5]];portConstraint=eastwest;html=1;" vertex="1" parent="2I5b1_9o0vqaWvXaGw6R-43">
          <mxGeometry x="2.3611111111111116" y="3.2370713945121152" width="67.29166666666669" height="25.087303307468893" as="geometry" />
        </mxCell>
        <mxCell id="2I5b1_9o0vqaWvXaGw6R-46" value="" style="group" vertex="1" connectable="0" parent="1">
          <mxGeometry x="-86" y="-440" width="166" height="170" as="geometry" />
        </mxCell>
        <mxCell id="2I5b1_9o0vqaWvXaGw6R-47" value="&lt;font style=&quot;font-size: 17px;&quot;&gt;Ройбуш&lt;/font&gt;" style="strokeWidth=2;html=1;shape=mxgraph.flowchart.database;whiteSpace=wrap;" vertex="1" parent="2I5b1_9o0vqaWvXaGw6R-46">
          <mxGeometry width="123.83965728274177" height="170" as="geometry" />
        </mxCell>
        <mxCell id="2I5b1_9o0vqaWvXaGw6R-48" value="" style="shape=requiredInterface;html=1;verticalLabelPosition=bottom;sketch=0;" vertex="1" parent="2I5b1_9o0vqaWvXaGw6R-46">
          <mxGeometry x="122.92493023255815" y="45.18018018018018" width="43.07506976744186" height="92.29774774774775" as="geometry" />
        </mxCell>
        <mxCell id="2I5b1_9o0vqaWvXaGw6R-49" value="" style="group;fillColor=#e3c800;fontColor=#000000;strokeColor=#B09500;" vertex="1" connectable="0" parent="2I5b1_9o0vqaWvXaGw6R-46">
          <mxGeometry x="23.317209302325573" y="13.018018018018017" width="70.64651162790697" height="29.864864864864867" as="geometry" />
        </mxCell>
        <mxCell id="2I5b1_9o0vqaWvXaGw6R-50" value="" style="verticalLabelPosition=bottom;verticalAlign=top;html=1;shape=mxgraph.basic.rect;fillColor2=none;strokeWidth=1;size=20;indent=5;" vertex="1" parent="2I5b1_9o0vqaWvXaGw6R-49">
          <mxGeometry width="70.64651162790697" height="29.864864864864867" as="geometry" />
        </mxCell>
        <mxCell id="2I5b1_9o0vqaWvXaGw6R-51" value="8" style="text;align=center;fontStyle=1;verticalAlign=middle;spacingLeft=3;spacingRight=3;strokeColor=none;rotatable=0;points=[[0,0.5],[1,0.5]];portConstraint=eastwest;html=1;" vertex="1" parent="2I5b1_9o0vqaWvXaGw6R-49">
          <mxGeometry x="2.316279069767442" y="3.063063063063063" width="66.0139534883721" height="23.73873873873874" as="geometry" />
        </mxCell>
        <mxCell id="2I5b1_9o0vqaWvXaGw6R-52" value="Травяной" style="strokeWidth=2;html=1;shape=mxgraph.flowchart.merge_or_storage;whiteSpace=wrap;fillColor=#B9E0A5;fontColor=#ffffff;strokeColor=#314354;" vertex="1" parent="2I5b1_9o0vqaWvXaGw6R-46">
          <mxGeometry x="27.02325581395349" y="96.48648648648648" width="77.20930232558139" height="44.414414414414416" as="geometry" />
        </mxCell>
        <mxCell id="2I5b1_9o0vqaWvXaGw6R-53" value="" style="group" vertex="1" connectable="0" parent="1">
          <mxGeometry x="-83" y="-678.5" width="163" height="168.5" as="geometry" />
        </mxCell>
        <mxCell id="2I5b1_9o0vqaWvXaGw6R-54" value="" style="group" vertex="1" connectable="0" parent="2I5b1_9o0vqaWvXaGw6R-53">
          <mxGeometry x="-8.45754716981132" y="5.313063063063063" width="164.53773584905662" height="168.5" as="geometry" />
        </mxCell>
        <mxCell id="2I5b1_9o0vqaWvXaGw6R-55" value="&lt;font style=&quot;font-size: 18px;&quot;&gt;Улун&lt;/font&gt;" style="strokeWidth=2;html=1;shape=mxgraph.flowchart.database;whiteSpace=wrap;" vertex="1" parent="2I5b1_9o0vqaWvXaGw6R-54">
          <mxGeometry width="123.32236842105267" height="168.5" as="geometry" />
        </mxCell>
        <mxCell id="2I5b1_9o0vqaWvXaGw6R-56" value="" style="shape=requiredInterface;html=1;verticalLabelPosition=bottom;sketch=0;" vertex="1" parent="2I5b1_9o0vqaWvXaGw6R-54">
          <mxGeometry x="121.64299900695136" y="45.42173913043479" width="42.89473684210527" height="90.84347826086957" as="geometry" />
        </mxCell>
        <mxCell id="2I5b1_9o0vqaWvXaGw6R-57" value="" style="group;fillColor=#e3c800;fontColor=#000000;strokeColor=#B09500;" vertex="1" connectable="0" parent="2I5b1_9o0vqaWvXaGw6R-54">
          <mxGeometry x="23.21981132075471" y="12.903153153153152" width="70.35141509433963" height="29.601351351351347" as="geometry" />
        </mxCell>
        <mxCell id="2I5b1_9o0vqaWvXaGw6R-58" value="" style="verticalLabelPosition=bottom;verticalAlign=top;html=1;shape=mxgraph.basic.rect;fillColor2=none;strokeWidth=1;size=20;indent=5;" vertex="1" parent="2I5b1_9o0vqaWvXaGw6R-57">
          <mxGeometry width="70.35141509433963" height="29.601351351351347" as="geometry" />
        </mxCell>
        <mxCell id="2I5b1_9o0vqaWvXaGw6R-59" value="7" style="text;align=center;fontStyle=1;verticalAlign=middle;spacingLeft=3;spacingRight=3;strokeColor=none;rotatable=0;points=[[0,0.5],[1,0.5]];portConstraint=eastwest;html=1;" vertex="1" parent="2I5b1_9o0vqaWvXaGw6R-57">
          <mxGeometry x="2.306603773584906" y="3.0360360360360357" width="65.73820754716982" height="23.52927927927928" as="geometry" />
        </mxCell>
        <mxCell id="2I5b1_9o0vqaWvXaGw6R-60" value="Улун" style="strokeWidth=2;html=1;shape=mxgraph.flowchart.merge_or_storage;whiteSpace=wrap;fillColor=#2C5700;fontColor=#ffffff;strokeColor=#3A5431;" vertex="1" parent="2I5b1_9o0vqaWvXaGw6R-54">
          <mxGeometry x="26.91037735849057" y="95.63513513513513" width="76.88679245283019" height="44.02252252252252" as="geometry" />
        </mxCell>
        <mxCell id="2I5b1_9o0vqaWvXaGw6R-61" value="" style="group" vertex="1" connectable="0" parent="1">
          <mxGeometry x="-450" y="-70" width="170" height="161.5" as="geometry" />
        </mxCell>
        <mxCell id="2I5b1_9o0vqaWvXaGw6R-62" value="&lt;p style=&quot;white-space-collapse: preserve;&quot; dir=&quot;auto&quot;&gt;&lt;font style=&quot;font-size: 18px;&quot;&gt;Бай Му Дань&lt;/font&gt;&lt;/p&gt;" style="strokeWidth=2;html=1;shape=mxgraph.flowchart.database;whiteSpace=wrap;" vertex="1" parent="2I5b1_9o0vqaWvXaGw6R-61">
          <mxGeometry width="128.61842105263162" height="161.5" as="geometry" />
        </mxCell>
        <mxCell id="2I5b1_9o0vqaWvXaGw6R-63" value="" style="shape=requiredInterface;html=1;verticalLabelPosition=bottom;sketch=0;" vertex="1" parent="2I5b1_9o0vqaWvXaGw6R-61">
          <mxGeometry x="127.66881827209534" y="43.53478260869565" width="44.736842105263165" height="87.0695652173913" as="geometry" />
        </mxCell>
        <mxCell id="2I5b1_9o0vqaWvXaGw6R-64" value="" style="group;fillColor=#e3c800;fontColor=#000000;strokeColor=#B09500;" vertex="1" connectable="0" parent="2I5b1_9o0vqaWvXaGw6R-61">
          <mxGeometry x="24.216981132075464" y="12.367117117117118" width="73.37264150943396" height="28.37162162162162" as="geometry" />
        </mxCell>
        <mxCell id="2I5b1_9o0vqaWvXaGw6R-65" value="" style="verticalLabelPosition=bottom;verticalAlign=top;html=1;shape=mxgraph.basic.rect;fillColor2=none;strokeWidth=1;size=20;indent=5;" vertex="1" parent="2I5b1_9o0vqaWvXaGw6R-64">
          <mxGeometry width="73.37264150943396" height="28.37162162162162" as="geometry" />
        </mxCell>
        <mxCell id="2I5b1_9o0vqaWvXaGw6R-66" value="10" style="text;align=center;fontStyle=1;verticalAlign=middle;spacingLeft=3;spacingRight=3;strokeColor=none;rotatable=0;points=[[0,0.5],[1,0.5]];portConstraint=eastwest;html=1;" vertex="1" parent="2I5b1_9o0vqaWvXaGw6R-64">
          <mxGeometry x="2.4056603773584904" y="2.90990990990991" width="68.56132075471699" height="22.5518018018018" as="geometry" />
        </mxCell>
        <mxCell id="2I5b1_9o0vqaWvXaGw6R-67" value="Белый" style="strokeWidth=2;html=1;shape=mxgraph.flowchart.merge_or_storage;whiteSpace=wrap;fillColor=#f5f5f5;fontColor=#333333;strokeColor=#666666;" vertex="1" parent="2I5b1_9o0vqaWvXaGw6R-61">
          <mxGeometry x="28.066037735849054" y="91.66216216216216" width="80.18867924528303" height="42.193693693693696" as="geometry" />
        </mxCell>
        <mxCell id="2I5b1_9o0vqaWvXaGw6R-68" value="" style="group" vertex="1" connectable="0" parent="1">
          <mxGeometry x="-100" y="-211" width="190" height="171" as="geometry" />
        </mxCell>
        <mxCell id="2I5b1_9o0vqaWvXaGw6R-69" value="&lt;p style=&quot;white-space-collapse: preserve;&quot; dir=&quot;auto&quot;&gt;&lt;font style=&quot;font-size: 18px;&quot;&gt;Лапсанг Сушонг&lt;/font&gt;&lt;/p&gt;" style="strokeWidth=2;html=1;shape=mxgraph.flowchart.database;whiteSpace=wrap;" vertex="1" parent="2I5b1_9o0vqaWvXaGw6R-68">
          <mxGeometry width="141.74418604651163" height="171" as="geometry" />
        </mxCell>
        <mxCell id="2I5b1_9o0vqaWvXaGw6R-70" value="" style="shape=requiredInterface;html=1;verticalLabelPosition=bottom;sketch=0;" vertex="1" parent="2I5b1_9o0vqaWvXaGw6R-68">
          <mxGeometry x="140.69720930232558" y="45.445945945945944" width="49.30279069767442" height="92.84067567567567" as="geometry" />
        </mxCell>
        <mxCell id="2I5b1_9o0vqaWvXaGw6R-71" value="" style="group;fillColor=#e3c800;fontColor=#000000;strokeColor=#B09500;" vertex="1" connectable="0" parent="2I5b1_9o0vqaWvXaGw6R-68">
          <mxGeometry x="26.688372093023244" y="13.094594594594595" width="80.86046511627906" height="30.040540540540537" as="geometry" />
        </mxCell>
        <mxCell id="2I5b1_9o0vqaWvXaGw6R-72" value="" style="verticalLabelPosition=bottom;verticalAlign=top;html=1;shape=mxgraph.basic.rect;fillColor2=none;strokeWidth=1;size=20;indent=5;" vertex="1" parent="2I5b1_9o0vqaWvXaGw6R-71">
          <mxGeometry width="80.86046511627906" height="30.040540540540537" as="geometry" />
        </mxCell>
        <mxCell id="2I5b1_9o0vqaWvXaGw6R-73" value="9" style="text;align=center;fontStyle=1;verticalAlign=middle;spacingLeft=3;spacingRight=3;strokeColor=none;rotatable=0;points=[[0,0.5],[1,0.5]];portConstraint=eastwest;html=1;" vertex="1" parent="2I5b1_9o0vqaWvXaGw6R-71">
          <mxGeometry x="2.651162790697674" y="3.081081081081081" width="75.55813953488371" height="23.878378378378375" as="geometry" />
        </mxCell>
        <mxCell id="2I5b1_9o0vqaWvXaGw6R-74" value="Чёрный" style="strokeWidth=2;html=1;shape=mxgraph.flowchart.merge_or_storage;whiteSpace=wrap;fillColor=#647687;fontColor=#ffffff;strokeColor=#314354;" vertex="1" parent="2I5b1_9o0vqaWvXaGw6R-68">
          <mxGeometry x="30.930232558139533" y="97.05405405405405" width="88.3720930232558" height="44.67567567567567" as="geometry" />
        </mxCell>
        <mxCell id="lethgWHPpajz1dYesi5C-4" value="" style="group" vertex="1" connectable="0" parent="1">
          <mxGeometry x="-780" y="-620" width="80" height="146" as="geometry" />
        </mxCell>
        <mxCell id="lethgWHPpajz1dYesi5C-36" style="edgeStyle=orthogonalEdgeStyle;rounded=0;orthogonalLoop=1;jettySize=auto;html=1;exitX=0.5;exitY=0.5;exitDx=0;exitDy=0;exitPerimeter=0;" edge="1" parent="lethgWHPpajz1dYesi5C-4" source="lethgWHPpajz1dYesi5C-5">
          <mxGeometry relative="1" as="geometry">
            <mxPoint x="200" y="30" as="targetPoint" />
          </mxGeometry>
        </mxCell>
        <mxCell id="lethgWHPpajz1dYesi5C-37" value="8" style="edgeLabel;html=1;align=center;verticalAlign=middle;resizable=0;points=[];" vertex="1" connectable="0" parent="lethgWHPpajz1dYesi5C-36">
          <mxGeometry x="-0.1952" y="2" relative="1" as="geometry">
            <mxPoint as="offset" />
          </mxGeometry>
        </mxCell>
        <mxCell id="lethgWHPpajz1dYesi5C-5" value="&lt;p style=&quot;white-space: pre-wrap;&quot; dir=&quot;auto&quot;&gt;&lt;b&gt;Мария&lt;/b&gt;&lt;/p&gt;" style="shape=umlActor;verticalLabelPosition=bottom;verticalAlign=top;html=1;fontSize=15;" vertex="1" parent="lethgWHPpajz1dYesi5C-4">
          <mxGeometry width="80" height="146" as="geometry" />
        </mxCell>
        <mxCell id="lethgWHPpajz1dYesi5C-6" value="2&lt;span style=&quot;color: rgba(0, 0, 0, 0); font-family: monospace; font-size: 0px; text-align: start; text-wrap-mode: nowrap;&quot;&gt;%3CmxGraphModel%3E%3Croot%3E%3CmxCell%20id%3D%220%22%2F%3E%3CmxCell%20id%3D%221%22%20parent%3D%220%22%2F%3E%3CmxCell%20id%3D%222%22%20value%3D%221%22%20style%3D%22text%3Bhtml%3D1%3Balign%3Dcenter%3BverticalAlign%3Dmiddle%3BwhiteSpace%3Dwrap%3Brounded%3D0%3B%22%20vertex%3D%221%22%20parent%3D%221%22%3E%3CmxGeometry%20x%3D%22-265%22%20y%3D%22-197%22%20width%3D%2260%22%20height%3D%2230%22%20as%3D%22geometry%22%2F%3E%3C%2FmxCell%3E%3C%2Froot%3E%3C%2FmxGraphModel%3E&lt;/span&gt;" style="text;html=1;align=center;verticalAlign=middle;whiteSpace=wrap;rounded=0;" vertex="1" parent="lethgWHPpajz1dYesi5C-4">
          <mxGeometry x="10" y="4" width="60" height="30" as="geometry" />
        </mxCell>
        <mxCell id="lethgWHPpajz1dYesi5C-10" value="" style="group" vertex="1" connectable="0" parent="1">
          <mxGeometry x="-86" y="-850" width="80" height="146" as="geometry" />
        </mxCell>
        <mxCell id="lethgWHPpajz1dYesi5C-11" value="&lt;div&gt;&lt;span style=&quot;text-wrap-mode: wrap;&quot;&gt;&lt;b&gt;Екатерина&lt;/b&gt;&lt;/span&gt;&lt;/div&gt;" style="shape=umlActor;verticalLabelPosition=bottom;verticalAlign=top;html=1;fontSize=15;" vertex="1" parent="lethgWHPpajz1dYesi5C-10">
          <mxGeometry width="80" height="146" as="geometry" />
        </mxCell>
        <mxCell id="lethgWHPpajz1dYesi5C-12" value="4" style="text;html=1;align=center;verticalAlign=middle;whiteSpace=wrap;rounded=0;" vertex="1" parent="lethgWHPpajz1dYesi5C-10">
          <mxGeometry x="10" y="4" width="60" height="30" as="geometry" />
        </mxCell>
        <mxCell id="lethgWHPpajz1dYesi5C-13" value="" style="group" vertex="1" connectable="0" parent="1">
          <mxGeometry x="-550" y="50" width="80" height="146" as="geometry" />
        </mxCell>
        <mxCell id="lethgWHPpajz1dYesi5C-14" value="&lt;div&gt;&lt;span style=&quot;text-wrap-mode: wrap;&quot;&gt;&lt;b&gt;Сергей&lt;/b&gt;&lt;/span&gt;&lt;/div&gt;" style="shape=umlActor;verticalLabelPosition=bottom;verticalAlign=top;html=1;fontSize=15;" vertex="1" parent="lethgWHPpajz1dYesi5C-13">
          <mxGeometry width="80" height="146" as="geometry" />
        </mxCell>
        <mxCell id="lethgWHPpajz1dYesi5C-15" value="5" style="text;html=1;align=center;verticalAlign=middle;whiteSpace=wrap;rounded=0;" vertex="1" parent="lethgWHPpajz1dYesi5C-13">
          <mxGeometry x="10" y="4" width="60" height="30" as="geometry" />
        </mxCell>
        <mxCell id="lethgWHPpajz1dYesi5C-16" value="" style="group" vertex="1" connectable="0" parent="1">
          <mxGeometry x="-770" y="-410" width="80" height="146" as="geometry" />
        </mxCell>
        <mxCell id="lethgWHPpajz1dYesi5C-17" value="&lt;span style=&quot;text-wrap-mode: wrap;&quot;&gt;&lt;b&gt;Анастасия&lt;/b&gt;&lt;/span&gt;" style="shape=umlActor;verticalLabelPosition=bottom;verticalAlign=top;html=1;fontSize=15;" vertex="1" parent="lethgWHPpajz1dYesi5C-16">
          <mxGeometry width="80" height="146" as="geometry" />
        </mxCell>
        <mxCell id="lethgWHPpajz1dYesi5C-18" value="6" style="text;html=1;align=center;verticalAlign=middle;whiteSpace=wrap;rounded=0;" vertex="1" parent="lethgWHPpajz1dYesi5C-16">
          <mxGeometry x="10" y="4" width="60" height="30" as="geometry" />
        </mxCell>
        <mxCell id="lethgWHPpajz1dYesi5C-19" value="" style="group" vertex="1" connectable="0" parent="1">
          <mxGeometry x="-770" y="-222" width="80" height="146" as="geometry" />
        </mxCell>
        <mxCell id="lethgWHPpajz1dYesi5C-20" value="&lt;div&gt;&lt;span style=&quot;text-wrap-mode: wrap;&quot;&gt;&lt;b&gt;Игорь&lt;/b&gt;&lt;/span&gt;&lt;/div&gt;" style="shape=umlActor;verticalLabelPosition=bottom;verticalAlign=top;html=1;fontSize=15;" vertex="1" parent="lethgWHPpajz1dYesi5C-19">
          <mxGeometry width="80" height="146" as="geometry" />
        </mxCell>
        <mxCell id="lethgWHPpajz1dYesi5C-21" value="7" style="text;html=1;align=center;verticalAlign=middle;whiteSpace=wrap;rounded=0;" vertex="1" parent="lethgWHPpajz1dYesi5C-19">
          <mxGeometry x="10" y="4" width="60" height="30" as="geometry" />
        </mxCell>
        <mxCell id="lethgWHPpajz1dYesi5C-22" value="" style="group" vertex="1" connectable="0" parent="1">
          <mxGeometry x="-800" y="-20" width="80" height="146" as="geometry" />
        </mxCell>
        <mxCell id="lethgWHPpajz1dYesi5C-23" value="&lt;div&gt;&lt;span style=&quot;text-wrap-mode: wrap;&quot;&gt;&lt;b&gt;Ольга&lt;/b&gt;&lt;/span&gt;&lt;/div&gt;" style="shape=umlActor;verticalLabelPosition=bottom;verticalAlign=top;html=1;fontSize=15;" vertex="1" parent="lethgWHPpajz1dYesi5C-22">
          <mxGeometry width="80" height="146" as="geometry" />
        </mxCell>
        <mxCell id="lethgWHPpajz1dYesi5C-24" value="8" style="text;html=1;align=center;verticalAlign=middle;whiteSpace=wrap;rounded=0;" vertex="1" parent="lethgWHPpajz1dYesi5C-22">
          <mxGeometry x="10" y="4" width="60" height="30" as="geometry" />
        </mxCell>
        <mxCell id="lethgWHPpajz1dYesi5C-25" value="" style="group" vertex="1" connectable="0" parent="1">
          <mxGeometry x="140" y="-530" width="72" height="146" as="geometry" />
        </mxCell>
        <mxCell id="lethgWHPpajz1dYesi5C-26" value="&lt;b&gt;Владимир&lt;/b&gt;" style="shape=umlActor;verticalLabelPosition=bottom;verticalAlign=top;html=1;fontSize=15;" vertex="1" parent="lethgWHPpajz1dYesi5C-25">
          <mxGeometry width="72" height="146" as="geometry" />
        </mxCell>
        <mxCell id="lethgWHPpajz1dYesi5C-27" value="9" style="text;html=1;align=center;verticalAlign=middle;whiteSpace=wrap;rounded=0;" vertex="1" parent="lethgWHPpajz1dYesi5C-25">
          <mxGeometry x="6" y="4" width="60" height="30" as="geometry" />
        </mxCell>
        <mxCell id="lethgWHPpajz1dYesi5C-28" value="" style="group" vertex="1" connectable="0" parent="1">
          <mxGeometry x="130" y="-800" width="80" height="146" as="geometry" />
        </mxCell>
        <mxCell id="lethgWHPpajz1dYesi5C-29" value="&lt;div style=&quot;&quot;&gt;&lt;span style=&quot;text-wrap-mode: wrap;&quot;&gt;&lt;b&gt;Юлия&lt;/b&gt;&lt;/span&gt;&lt;/div&gt;" style="shape=umlActor;verticalLabelPosition=bottom;verticalAlign=top;html=1;fontSize=15;align=center;" vertex="1" parent="lethgWHPpajz1dYesi5C-28">
          <mxGeometry width="80" height="146" as="geometry" />
        </mxCell>
        <mxCell id="lethgWHPpajz1dYesi5C-30" value="10" style="text;html=1;align=center;verticalAlign=middle;whiteSpace=wrap;rounded=0;" vertex="1" parent="lethgWHPpajz1dYesi5C-28">
          <mxGeometry x="10" y="4" width="60" height="30" as="geometry" />
        </mxCell>
        <mxCell id="lethgWHPpajz1dYesi5C-31" style="edgeStyle=orthogonalEdgeStyle;rounded=0;orthogonalLoop=1;jettySize=auto;html=1;exitX=0.5;exitY=0.5;exitDx=0;exitDy=0;exitPerimeter=0;entryX=0.5;entryY=1;entryDx=0;entryDy=0;entryPerimeter=0;" edge="1" parent="1" source="lethgWHPpajz1dYesi5C-2" target="2I5b1_9o0vqaWvXaGw6R-9">
          <mxGeometry relative="1" as="geometry" />
        </mxCell>
        <mxCell id="lethgWHPpajz1dYesi5C-32" value="10" style="edgeLabel;html=1;align=center;verticalAlign=middle;resizable=0;points=[];" vertex="1" connectable="0" parent="lethgWHPpajz1dYesi5C-31">
          <mxGeometry x="0.2301" y="3" relative="1" as="geometry">
            <mxPoint as="offset" />
          </mxGeometry>
        </mxCell>
        <mxCell id="lethgWHPpajz1dYesi5C-38" style="edgeStyle=orthogonalEdgeStyle;rounded=0;orthogonalLoop=1;jettySize=auto;html=1;exitX=0.5;exitY=0.5;exitDx=0;exitDy=0;exitPerimeter=0;entryX=0.405;entryY=0.048;entryDx=0;entryDy=0;entryPerimeter=0;" edge="1" parent="1" source="lethgWHPpajz1dYesi5C-8" target="2I5b1_9o0vqaWvXaGw6R-32">
          <mxGeometry relative="1" as="geometry" />
        </mxCell>
        <mxCell id="lethgWHPpajz1dYesi5C-39" value="9" style="edgeLabel;html=1;align=center;verticalAlign=middle;resizable=0;points=[];" vertex="1" connectable="0" parent="lethgWHPpajz1dYesi5C-38">
          <mxGeometry x="-0.3842" y="2" relative="1" as="geometry">
            <mxPoint as="offset" />
          </mxGeometry>
        </mxCell>
        <mxCell id="lethgWHPpajz1dYesi5C-40" style="edgeStyle=orthogonalEdgeStyle;rounded=0;orthogonalLoop=1;jettySize=auto;html=1;exitX=0.5;exitY=0.5;exitDx=0;exitDy=0;exitPerimeter=0;entryX=1;entryY=0.15;entryDx=0;entryDy=0;entryPerimeter=0;" edge="1" parent="1" source="lethgWHPpajz1dYesi5C-11" target="2I5b1_9o0vqaWvXaGw6R-32">
          <mxGeometry relative="1" as="geometry" />
        </mxCell>
        <mxCell id="lethgWHPpajz1dYesi5C-41" value="7" style="edgeLabel;html=1;align=center;verticalAlign=middle;resizable=0;points=[];" vertex="1" connectable="0" parent="lethgWHPpajz1dYesi5C-40">
          <mxGeometry x="-0.4929" y="2" relative="1" as="geometry">
            <mxPoint as="offset" />
          </mxGeometry>
        </mxCell>
        <mxCell id="lethgWHPpajz1dYesi5C-42" style="edgeStyle=orthogonalEdgeStyle;rounded=0;orthogonalLoop=1;jettySize=auto;html=1;exitX=0.5;exitY=0.5;exitDx=0;exitDy=0;exitPerimeter=0;entryX=0.751;entryY=0.983;entryDx=0;entryDy=0;entryPerimeter=0;" edge="1" parent="1" source="lethgWHPpajz1dYesi5C-14" target="2I5b1_9o0vqaWvXaGw6R-9">
          <mxGeometry relative="1" as="geometry" />
        </mxCell>
        <mxCell id="lethgWHPpajz1dYesi5C-43" value="9" style="edgeLabel;html=1;align=center;verticalAlign=middle;resizable=0;points=[];" vertex="1" connectable="0" parent="lethgWHPpajz1dYesi5C-42">
          <mxGeometry x="0.2087" y="-5" relative="1" as="geometry">
            <mxPoint x="-1" as="offset" />
          </mxGeometry>
        </mxCell>
        <mxCell id="lethgWHPpajz1dYesi5C-45" value="" style="group" vertex="1" connectable="0" parent="1">
          <mxGeometry x="-674" y="-50" width="80" height="146" as="geometry" />
        </mxCell>
        <mxCell id="lethgWHPpajz1dYesi5C-2" value="&lt;div&gt;&lt;span style=&quot;text-align: left; text-wrap-mode: wrap;&quot;&gt;&lt;b&gt;Алексей&lt;/b&gt;&lt;/span&gt;&lt;/div&gt;" style="shape=umlActor;verticalLabelPosition=bottom;verticalAlign=top;html=1;fontSize=15;" vertex="1" parent="lethgWHPpajz1dYesi5C-45">
          <mxGeometry width="80" height="146" as="geometry" />
        </mxCell>
        <mxCell id="lethgWHPpajz1dYesi5C-1" value="" style="group" vertex="1" connectable="0" parent="lethgWHPpajz1dYesi5C-45">
          <mxGeometry width="80" height="146" as="geometry" />
        </mxCell>
        <mxCell id="lethgWHPpajz1dYesi5C-3" value="1" style="text;html=1;align=center;verticalAlign=middle;whiteSpace=wrap;rounded=0;" vertex="1" parent="lethgWHPpajz1dYesi5C-1">
          <mxGeometry x="10" y="4" width="60" height="30" as="geometry" />
        </mxCell>
        <mxCell id="lethgWHPpajz1dYesi5C-47" value="" style="group" vertex="1" connectable="0" parent="1">
          <mxGeometry x="-430" y="-830" width="80.89999999999998" height="146" as="geometry" />
        </mxCell>
        <mxCell id="lethgWHPpajz1dYesi5C-8" value="&lt;div&gt;&lt;span style=&quot;text-wrap-mode: wrap;&quot;&gt;&lt;b&gt;Дмитрий&lt;/b&gt;&lt;/span&gt;&lt;/div&gt;" style="shape=umlActor;verticalLabelPosition=bottom;verticalAlign=top;html=1;fontSize=15;" vertex="1" parent="lethgWHPpajz1dYesi5C-47">
          <mxGeometry width="80" height="146" as="geometry" />
        </mxCell>
        <mxCell id="lethgWHPpajz1dYesi5C-7" value="" style="group" vertex="1" connectable="0" parent="lethgWHPpajz1dYesi5C-47">
          <mxGeometry x="0.8999999999999773" width="80" height="146" as="geometry" />
        </mxCell>
        <mxCell id="lethgWHPpajz1dYesi5C-9" value="3" style="text;html=1;align=center;verticalAlign=middle;whiteSpace=wrap;rounded=0;" vertex="1" parent="lethgWHPpajz1dYesi5C-7">
          <mxGeometry x="10" y="4" width="60" height="30" as="geometry" />
        </mxCell>
        <mxCell id="lethgWHPpajz1dYesi5C-48" style="edgeStyle=orthogonalEdgeStyle;rounded=0;orthogonalLoop=1;jettySize=auto;html=1;exitX=1;exitY=0.3333333333333333;exitDx=0;exitDy=0;exitPerimeter=0;entryX=0;entryY=0.5;entryDx=0;entryDy=0;entryPerimeter=0;" edge="1" parent="1" source="lethgWHPpajz1dYesi5C-17" target="2I5b1_9o0vqaWvXaGw6R-18">
          <mxGeometry relative="1" as="geometry" />
        </mxCell>
        <mxCell id="lethgWHPpajz1dYesi5C-49" value="10" style="edgeLabel;html=1;align=center;verticalAlign=middle;resizable=0;points=[];" vertex="1" connectable="0" parent="lethgWHPpajz1dYesi5C-48">
          <mxGeometry x="-0.1825" y="-4" relative="1" as="geometry">
            <mxPoint as="offset" />
          </mxGeometry>
        </mxCell>
        <mxCell id="lethgWHPpajz1dYesi5C-50" style="edgeStyle=orthogonalEdgeStyle;rounded=0;orthogonalLoop=1;jettySize=auto;html=1;exitX=1;exitY=0.3333333333333333;exitDx=0;exitDy=0;exitPerimeter=0;entryX=0;entryY=0.85;entryDx=0;entryDy=0;entryPerimeter=0;" edge="1" parent="1" source="lethgWHPpajz1dYesi5C-20" target="2I5b1_9o0vqaWvXaGw6R-18">
          <mxGeometry relative="1" as="geometry">
            <Array as="points">
              <mxPoint x="-700" y="-173" />
              <mxPoint x="-700" y="-200" />
              <mxPoint x="-643" y="-200" />
              <mxPoint x="-643" y="-302" />
            </Array>
          </mxGeometry>
        </mxCell>
        <mxCell id="lethgWHPpajz1dYesi5C-51" value="10" style="edgeLabel;html=1;align=center;verticalAlign=middle;resizable=0;points=[];" vertex="1" connectable="0" parent="lethgWHPpajz1dYesi5C-50">
          <mxGeometry x="-0.1433" y="-4" relative="1" as="geometry">
            <mxPoint as="offset" />
          </mxGeometry>
        </mxCell>
        <mxCell id="lethgWHPpajz1dYesi5C-52" style="edgeStyle=orthogonalEdgeStyle;rounded=0;orthogonalLoop=1;jettySize=auto;html=1;exitX=0.5;exitY=0.5;exitDx=0;exitDy=0;exitPerimeter=0;entryX=0;entryY=0.5;entryDx=0;entryDy=0;entryPerimeter=0;" edge="1" parent="1" source="lethgWHPpajz1dYesi5C-23" target="2I5b1_9o0vqaWvXaGw6R-9">
          <mxGeometry relative="1" as="geometry" />
        </mxCell>
        <mxCell id="lethgWHPpajz1dYesi5C-53" value="9" style="edgeLabel;html=1;align=center;verticalAlign=middle;resizable=0;points=[];" vertex="1" connectable="0" parent="lethgWHPpajz1dYesi5C-52">
          <mxGeometry x="0.3199" y="1" relative="1" as="geometry">
            <mxPoint as="offset" />
          </mxGeometry>
        </mxCell>
        <mxCell id="lethgWHPpajz1dYesi5C-55" style="edgeStyle=orthogonalEdgeStyle;rounded=0;orthogonalLoop=1;jettySize=auto;html=1;exitX=0.5;exitY=0.5;exitDx=0;exitDy=0;exitPerimeter=0;entryX=1;entryY=0.15;entryDx=0;entryDy=0;entryPerimeter=0;" edge="1" parent="1" source="lethgWHPpajz1dYesi5C-26" target="2I5b1_9o0vqaWvXaGw6R-47">
          <mxGeometry relative="1" as="geometry" />
        </mxCell>
        <mxCell id="lethgWHPpajz1dYesi5C-56" value="8" style="edgeLabel;html=1;align=center;verticalAlign=middle;resizable=0;points=[];" vertex="1" connectable="0" parent="lethgWHPpajz1dYesi5C-55">
          <mxGeometry x="-0.0034" relative="1" as="geometry">
            <mxPoint as="offset" />
          </mxGeometry>
        </mxCell>
        <mxCell id="lethgWHPpajz1dYesi5C-57" style="edgeStyle=orthogonalEdgeStyle;rounded=0;orthogonalLoop=1;jettySize=auto;html=1;exitX=0.5;exitY=0.5;exitDx=0;exitDy=0;exitPerimeter=0;entryX=1;entryY=0.15;entryDx=0;entryDy=0;entryPerimeter=0;" edge="1" parent="1" source="lethgWHPpajz1dYesi5C-29" target="2I5b1_9o0vqaWvXaGw6R-55">
          <mxGeometry relative="1" as="geometry" />
        </mxCell>
        <mxCell id="lethgWHPpajz1dYesi5C-58" value="9" style="edgeLabel;html=1;align=center;verticalAlign=middle;resizable=0;points=[];" vertex="1" connectable="0" parent="lethgWHPpajz1dYesi5C-57">
          <mxGeometry x="-0.0643" relative="1" as="geometry">
            <mxPoint as="offset" />
          </mxGeometry>
        </mxCell>
      </root>
    </mxGraphModel>
  </diagram>
</mxfile>
